<?xml version="1.0" standalone="no"?>
<!DOCTYPE svg PUBLIC "-//W3C//DTD SVG 1.1//EN" "http://www.w3.org/Graphics/SVG/1.1/DTD/svg11.dtd" >
<svg xmlns="http://www.w3.org/2000/svg" xmlns:xlink="http://www.w3.org/1999/xlink" version="1.1">
<metadata></metadata>
<defs>
<font id="stephanie_marie_jfregular" horiz-adv-x="358" >
<font-face units-per-em="2048" ascent="1638" descent="-410" />
<missing-glyph horiz-adv-x="563" />
<glyph horiz-adv-x="0" />
<glyph unicode="&#xd;" horiz-adv-x="1024" />
<glyph unicode=" "  horiz-adv-x="563" />
<glyph unicode="&#x09;" horiz-adv-x="563" />
<glyph unicode="&#xa0;" horiz-adv-x="563" />
<glyph unicode="!" horiz-adv-x="614" d="M236 74q0 -10 5 -39t9 -41q2 -10 17.5 -18.5t37.5 -8.5q14 0 28.5 10.5t25 23.5t17.5 29.5t7 28.5t-10.5 27.5t-24.5 28t-28.5 21.5t-22.5 9t-18.5 -9t-19.5 -20.5t-16 -23.5t-7 -18zM344 250q0 -16 5 -30.5t24 -14.5q10 0 16 2q27 80 75 169t104.5 178t113.5 173 t104 156q82 125 168 239.5t156 201.5t114 140l44 52v14q0 2 -5.5 10t-15.5 17.5t-23.5 16.5t-27.5 7q-12 0 -52 -51t-96.5 -130t-120 -173t-119.5 -179t-99 -151t-56 -86q-12 -18 -39.5 -62t-61.5 -100.5t-71 -120t-67.5 -120t-50 -99.5t-19.5 -59z" />
<glyph unicode="&#x22;" horiz-adv-x="608" d="M428 979q0 -8 7 -10t11 -2q43 0 91.5 38.5t89.5 89t70.5 97.5t35.5 63q2 10 5 17.5t3 17.5t-9 24.5t-22.5 29t-27.5 23.5t-25 9q-6 0 -17 -8t-21.5 -20.5t-17.5 -24.5t-7 -18q0 -10 7 -43t11 -43q-14 -35 -28.5 -73t-36.5 -69q-10 -16 -29.5 -30.5t-38 -26.5t-34 -23.5 t-17.5 -17.5zM647 979q0 -8 7.5 -10t11.5 -2q43 0 90 38.5t89 89t70.5 97.5t34.5 63q4 10 7.5 17.5t3.5 17.5t-9.5 24.5t-24 29t-28.5 23.5t-25 9q-6 0 -17 -8t-20.5 -20.5t-16.5 -24.5t-7 -18q0 -10 6 -43t10 -43q-12 -35 -26.5 -73t-36.5 -69q-10 -16 -29.5 -30.5 t-38 -26.5t-34 -23.5t-17.5 -17.5z" />
<glyph unicode="#" horiz-adv-x="1243" d="M156 573.5q4 -10.5 14 -10.5h342l-240 -450q-8 -12 -3 -21.5t18 -9.5h65q12 0 25.5 9t21.5 22l240 450h248l-240 -450q-8 -12 -3 -21.5t18 -9.5h65q12 0 25.5 9t21.5 22l240 450h329q10 0 26.5 10.5t21 20.5t0 20.5t-14.5 10.5h-329l180 338h329q10 0 27 10t21 20 t-0.5 20.5t-14.5 10.5h-329l262 492q6 12 2 21t-17 9h-65q-14 0 -27.5 -9t-19.5 -21l-262 -492h-248l262 492q6 12 2 21t-16 9h-66q-14 0 -27.5 -9t-19.5 -21l-262 -492h-342q-10 0 -26.5 -10t-20.5 -20.5t0 -20.5t14 -10h342l-180 -338h-342q-10 0 -26.5 -10.5t-20.5 -20.5 t0 -20.5zM672 625l180 338h248l-180 -338h-248z" />
<glyph unicode="$" horiz-adv-x="1218" d="M53 360q0 -66 48.5 -103.5t109.5 -55.5q-47 -72 -79 -128.5t-32 -82.5q0 -10 5.5 -18.5t15.5 -8.5h10q33 59 70 114.5t75 108.5q23 -4 44.5 -6t39.5 -2q43 0 107.5 11.5t125 37t103.5 66.5t43 98q0 68 -34.5 135.5t-77.5 132.5q29 35 55.5 69t54.5 69q8 10 49 58 t98.5 116.5t124 147.5t128.5 151q66 18 123 28.5t102 10.5q8 0 21.5 -1t25.5 -4.5t21.5 -10.5t9.5 -21q0 -16 -21.5 -49t-49.5 -66t-55.5 -57.5t-41.5 -24.5q-6 0 -12.5 8.5t-22.5 8.5q-12 0 -41 -17.5t-65.5 -45.5t-76.5 -61.5t-74 -65.5t-55.5 -57.5t-21.5 -35.5 q0 -23 14.5 -38t36.5 -15q20 0 68.5 30.5t109 77.5t126 107.5t119 118t88 108.5t34.5 82t-16.5 51.5t-42 32.5t-54 16t-53.5 4q-49 0 -104 -6q43 51 68.5 82t27.5 33q4 10 11 36.5t7 35.5q0 6 2.5 12t-4.5 6q-12 0 -70.5 -62.5t-137.5 -158.5q-115 -23 -237 -65t-223.5 -100 t-167 -133t-65.5 -161q0 -55 38 -117.5t81 -123.5q-29 -35 -65.5 -82.5t-76.5 -99.5t-82 -107.5t-79 -108.5q-51 10 -97 32.5t-46 65.5q0 25 18.5 50.5t43 49t52 43t45.5 32.5q-4 27 -28 26q-20 0 -52 -23.5t-63 -56t-53.5 -67.5t-22.5 -56zM326 254q66 92 131 181t133 177 q25 -39 41 -76.5t16 -72.5q0 -55 -28.5 -95t-72.5 -64.5t-96.5 -37t-97.5 -12.5h-26zM514 897q0 37 44 82t115.5 90t163 88t185.5 76q-68 -82 -135.5 -165t-123.5 -153.5t-97 -122t-56 -67.5l-14 -18q-35 53 -58.5 101t-23.5 89z" />
<glyph unicode="%" horiz-adv-x="1617" d="M477 897q0 -55 15.5 -90t40 -54.5t55 -27.5t61.5 -8q61 0 140 42t160 109.5t156 153.5t126 176q39 -18 90 -18q47 0 88 14q-74 -78 -144.5 -157t-131 -145.5t-103.5 -115.5t-57 -67q-18 -20 -60.5 -70.5t-95.5 -117t-110.5 -141.5t-105.5 -142.5t-78.5 -122t-30.5 -80.5 q-2 -25 19 -33t44 -10q35 82 85 153.5t97 141.5q94 135 193.5 263t208.5 249q129 141 250.5 267t217 222t154 152.5t58.5 58.5q2 7 2 21v20t-15 16q-12 6 -55 -27.5t-90 -78.5t-89 -88t-54 -55q-41 -41 -82 -57.5t-82 -16.5q-33 0 -52.5 15.5t-29.5 35.5q35 82 35 154 t-49.5 119t-127.5 47q-29 0 -57.5 -9.5t-56.5 -19.5q-16 -4 -17 -4q-8 14 -24 14q-25 0 -71 -32.5t-101 -87t-113.5 -126t-105.5 -147.5t-77 -152.5t-30 -142.5zM561 866q0 51 32 121t83 142.5t116.5 143t132 126t130 89.5t110.5 34q33 0 52.5 -10.5t29.5 -26.5 q-16 -2 -38.5 -7t-43 -19.5t-36 -38t-15.5 -62.5q0 -41 21.5 -76t56.5 -61q-47 -86 -116.5 -169t-145.5 -147.5t-147.5 -104.5t-125.5 -40q-39 0 -67.5 24.5t-28.5 81.5zM905 156q0 -55 15.5 -90t40 -54.5t55.5 -28t61 -8.5q53 0 124 34t143.5 91.5t143.5 131t125 153.5 t88 160.5t34 150.5q0 72 -49.5 119t-126.5 47q-29 0 -57.5 -9t-57.5 -19q-16 -4 -17 -5q-8 14 -24 15q-25 0 -71 -33t-101 -87t-113.5 -126t-105.5 -147.5t-77 -152.5t-30 -142zM1008 125q0 53 30.5 120.5t79.5 139.5t111.5 140.5t128 121.5t127 86t108.5 33q51 0 73 -24.5 t22 -53.5q0 -68 -33 -143.5t-86 -149t-118 -140.5t-130.5 -118t-122.5 -80.5t-94 -29.5q-39 0 -67.5 20.5t-28.5 77.5z" />
<glyph unicode="&#x26;" horiz-adv-x="1994" d="M147 207q0 -76 51.5 -127t124 -82t151.5 -43t136 -12q104 0 206 20.5t192 63.5t165.5 110.5t131.5 161.5h38h89q45 0 88 -4q10 10 25.5 30.5t15.5 30.5q0 8 -17.5 13.5t-39 8.5t-42.5 3h-26q-29 0 -82.5 -2t-119 -8t-134 -14.5t-130 -20.5t-107.5 -29.5t-64 -38.5 q-10 -12 -20.5 -30.5t-10.5 -34.5l2 -15q43 27 106.5 47.5t131 34t134 20.5t118.5 9q-59 -74 -133 -127t-159 -89t-176.5 -53.5t-183.5 -17.5q-49 0 -110.5 9.5t-114.5 33t-89 64.5t-36 106q0 70 52 131.5t126 110.5t154 83t135 50q33 -23 72 -36t80 -13q14 0 37.5 3t45 10 t38 20.5t16.5 33.5q0 18 -15.5 28.5t-37 16t-43 7.5t-31.5 2q-35 0 -69 -4t-68 -11q-35 35 -56.5 82t-21.5 99q0 66 70.5 140.5t183 149t253 142t278.5 120t260 83t200 30.5q16 0 37.5 -1t41 -7t33 -18.5t13.5 -36.5q0 -31 -34 -82t-78 -98.5t-86 -82t-60 -34.5 q-8 0 -12.5 3t-8.5 8t-10 8t-18 3q-16 0 -57.5 -25.5t-93.5 -65.5t-109.5 -88t-104.5 -93t-77.5 -80t-30.5 -49q0 -25 18 -44.5t45 -19.5q8 0 27.5 9.5t39 21.5t38 24.5t26.5 18.5q37 25 98.5 73t134 107.5t146.5 128t133.5 135t97 127t37.5 105.5q0 43 -23.5 70.5t-58 43 t-74.5 21.5t-73 6q-98 0 -232.5 -24.5t-276.5 -70.5t-281.5 -111.5t-249 -148.5t-177 -180.5t-67.5 -207.5q0 -59 24.5 -112.5t63.5 -94.5q-70 -18 -161 -56t-173 -93.5t-139.5 -127t-57.5 -157.5zM799 618q47 10 88 11h14q12 0 24.5 -2t21.5 -5.5t9 -11.5q0 -6 -9 -10 t-21.5 -5t-23.5 -2t-15 -1q-23 0 -45.5 8t-42.5 18z" />
<glyph unicode="'" d="M309 971q0 -8 7.5 -10.5t11.5 -2.5q43 0 91 39t89 89.5t70.5 97.5t35.5 63q2 10 5.5 17.5t3.5 17.5t-9.5 24.5t-22.5 29t-27.5 23.5t-24.5 9q-6 0 -17.5 -8t-22 -20.5t-17.5 -24.5t-7 -19q0 -10 7 -42.5t12 -43.5q-14 -35 -28.5 -72.5t-37.5 -68.5q-10 -16 -29.5 -30.5 t-38 -27t-34 -23.5t-17.5 -17z" />
<glyph unicode="(" horiz-adv-x="595" d="M96 352q0 -23 4 -84t14.5 -134t26 -142.5t37.5 -110.5q18 -39 45 -39q8 0 29.5 5.5t44 14.5t40 19t17.5 23q0 20 -18.5 42.5t-28.5 39.5q-51 90 -73.5 207.5t-22.5 222.5q0 186 53 371.5t152.5 348t241 290.5t315.5 200q10 4 21.5 10.5t11.5 18.5q0 6 -6.5 8t-10.5 2 q-16 0 -28 -6q-201 -78 -361 -213t-272.5 -307t-172 -374t-59.5 -413z" />
<glyph unicode=")" horiz-adv-x="696" d="M31 -147q0 -6 6 -8.5t10 -2.5q14 0 31 6q199 78 358.5 213.5t272 307.5t172 372.5t59.5 413.5q0 23 -4 84t-14.5 134t-25.5 142.5t-38 110.5q-20 39 -43 39q-10 0 -31.5 -5t-43 -14.5t-39 -19.5t-17.5 -22q0 -20 17.5 -43t27.5 -39q53 -90 75.5 -208t22.5 -222 q0 -184 -54 -370.5t-153.5 -349.5t-240.5 -291t-316 -200q-10 -4 -21 -10t-11 -18z" />
<glyph unicode="*" horiz-adv-x="724" d="M412 1417q0 -18 20 -20q10 14 49 19t78 9q-10 -16 -16 -27.5t-11 -17.5q-14 -23 -23 -40t-10 -33.5t9 -30.5t39 -31q16 -12 28 6q-6 16 8.5 53t30.5 72q10 -16 15.5 -28.5t9.5 -18.5q12 -23 23.5 -40t24.5 -25.5t31.5 -6t47.5 18.5q16 10 6 27q-10 2 -23.5 15t-26.5 30.5 t-27.5 38t-24.5 38.5q41 -2 79.5 -4t77.5 -2q14 0 19 6l2 13q0 6 -1 16t-7 14q-8 6 -55.5 12.5t-102.5 10.5q18 29 37.5 57.5t36.5 57.5q2 4 4 9t-2 9l-10 8q-4 4 -13.5 8.5t-15.5 -0.5q-10 -4 -39 -41.5t-59 -82.5q-16 29 -32 60.5t-32 59.5q-4 4 -7 7.5t-9 5.5l-11 -7 q-6 -4 -13 -9t-9 -11q-2 -10 12.5 -45t34.5 -78h-33q-27 0 -47 -1t-34.5 -8t-21.5 -23.5t-7 -49.5z" />
<glyph unicode="+" horiz-adv-x="743" d="M270 657q0 -27 27 -26q8 10 31.5 17t53.5 11.5t62.5 6.5t59.5 2q-2 -57 -6 -112.5t-4 -111.5q0 -16 10 -24l16 -2q8 0 20.5 1t16.5 9q4 6 9 29.5t9.5 56.5t7.5 73t7 81q53 -2 107.5 -6.5t107.5 -4.5q16 0 22 9l2 16q0 10 -1 21.5t-9 17.5q-6 4 -27.5 8t-52 8t-68.5 7.5 t-77 7.5q4 31 4 51v33q0 33 -1 59.5t-10 44.5t-30.5 27.5t-62.5 9.5q-25 0 -27 -25q10 -8 16 -29.5t11.5 -49t7.5 -58.5t2 -57q-35 2 -58.5 3t-33.5 1q-35 0 -60.5 -1t-44 -10.5t-28 -31t-9.5 -62.5z" />
<glyph unicode="," d="M-68 -252q0 -8 7.5 -10t11.5 -2q43 0 91 39t89 89t70.5 97t36.5 64q2 10 5 17t3 17t-9.5 24.5t-22.5 29t-27.5 23.5t-24.5 9q-6 0 -17.5 -8t-21.5 -20.5t-17.5 -24.5t-7.5 -18q0 -10 7.5 -43t11.5 -43q-14 -35 -28.5 -73t-37.5 -69q-10 -16 -29.5 -30.5t-38 -26.5 t-34 -23.5t-17.5 -17.5z" />
<glyph unicode="-" horiz-adv-x="780" d="M184 444q0 -27 27 -26q12 14 47 21t76 10.5t79 4.5t56 1q61 0 123.5 -5.5t126.5 -5.5q16 0 22 9l2 16q0 10 -1 21.5t-9 17.5q-6 4 -35.5 9t-70.5 10t-89.5 9.5t-91.5 6.5t-75.5 4t-44.5 2q-35 0 -60.5 -1t-44 -10.5t-28 -31t-9.5 -62.5z" />
<glyph unicode="." d="M98 74q0 -10 5.5 -39t9.5 -41q2 -10 17 -18.5t38 -8.5q14 0 28.5 10.5t24.5 23.5t17.5 29.5t7.5 28.5t-10.5 27.5t-24.5 28t-28.5 21.5t-22.5 9t-18.5 -9t-19.5 -20.5t-16.5 -23.5t-7.5 -18z" />
<glyph unicode="/" horiz-adv-x="641" d="M41 -133q0 -23 7 -42.5t34 -19.5q10 0 22 5q31 84 77 164.5t89 158.5q86 154 177.5 301.5t191.5 290.5q119 168 231.5 322.5t200.5 272.5t142.5 188.5t54.5 72.5q2 4 1 9t-1 9v13q0 12 -1 24.5t-4 22.5t-10 10q-16 0 -74.5 -69.5t-138 -176t-170 -233.5t-171.5 -243 t-140 -203t-78 -115q-16 -25 -56 -84.5t-88 -136t-100.5 -162.5t-96.5 -163t-71.5 -135.5t-27.5 -80.5z" />
<glyph unicode="0" horiz-adv-x="1343" d="M231 283q0 -92 26 -151.5t67 -93.5t92 -47.5t104 -13.5q96 0 223 62.5t260.5 168t262.5 242t230 284t163.5 296t62.5 275.5q0 123 -79.5 200.5t-215.5 77.5q-33 0 -70.5 -9t-72.5 -21.5t-63.5 -21.5t-42.5 -9q-27 0 -27 12q-4 16 -16 16q-31 0 -85.5 -34.5t-124 -95 t-147.5 -143.5t-154.5 -179.5t-148.5 -201.5t-126 -211.5t-86 -209t-32 -192.5zM317 252q0 102 58.5 235.5t154 272.5t216 272t247.5 238.5t249 169t216 63.5q55 0 96 -16.5t67 -42t39 -59t13 -68.5q0 -133 -63.5 -280.5t-165 -291t-228 -272.5t-253.5 -228.5t-240 -157.5 t-188 -58q-43 0 -82 11t-70 36.5t-48.5 68.5t-17.5 107z" />
<glyph unicode="1" horiz-adv-x="927" d="M102 6q0 -12 5.5 -25.5t21.5 -15.5q98 53 195.5 101.5t199.5 91.5q35 14 73 24.5t73 26.5q8 6 8 20q0 10 -4 13q-57 -10 -113.5 -29.5t-109.5 -40.5q90 180 194.5 353t218.5 339q20 29 65.5 89.5t100.5 134t115.5 151.5t110 142.5t81 107.5t31.5 47q0 8 -8 20.5 t-18.5 22.5t-23.5 17.5t-22 7.5q-2 0 -44 -21.5t-93 -47.5t-98 -50.5t-62 -30.5q-27 -10 -72.5 -25.5t-95 -31t-95.5 -25.5t-72 -10q-27 0 -38.5 8t-17.5 8q-12 0 -15 -12t-3 -20q0 -23 16.5 -37.5t38.5 -14.5q55 0 124 21.5t132.5 48.5t109.5 48.5t52 21.5q20 0 20 -25 q0 -4 -29.5 -51t-73.5 -115.5t-97.5 -149.5t-100.5 -153t-81.5 -124t-41.5 -62q-104 -160 -202.5 -323t-190.5 -333q-6 -2 -32.5 -14t-56.5 -27.5t-52.5 -30t-22.5 -20.5z" />
<glyph unicode="2" horiz-adv-x="1161" d="M106 102q0 -53 31 -83.5t72 -30.5q12 0 58 21.5t116 56t161 78.5t195.5 89.5t218 87t228.5 72.5q10 4 7 10.5t-17 10.5q-45 -4 -112 -18.5t-145.5 -34t-164.5 -45t-170 -55.5t-162 -60.5t-137 -61.5l-4 6q4 4 42.5 38t99 85t136.5 116t154 130.5t151.5 125.5t128.5 105 q84 68 181.5 147t179.5 167t136 180t54 188q0 45 -18.5 79t-48 57.5t-68.5 35t-82 11.5q-78 0 -166 -20.5t-173 -51.5t-162.5 -68.5t-137 -71.5t-94.5 -60.5t-35 -34.5q0 -16 10.5 -32t22.5 -28t24.5 -19t18.5 -7q10 0 51 25.5t101.5 64.5t136 85t154.5 85t155 64.5 t137 25.5q45 0 62.5 -21.5t17.5 -60.5q0 -72 -65.5 -171.5t-168 -210t-227.5 -222t-241.5 -209t-213 -171t-139.5 -106.5q-133 -100 -211 -169.5t-78 -123.5z" />
<glyph unicode="3" horiz-adv-x="1110" d="M252 -33q0 -16 10 -26q70 29 169 78t208 111.5t217.5 136t194.5 154.5t139 166t53 169q0 68 -30.5 115t-79 77.5t-107.5 44t-117 13.5q-35 0 -67.5 -5.5t-67.5 -5.5q-10 0 -12 6q6 10 58 46t127 85.5t161 105.5t159.5 106.5t122 89.5t48.5 51q0 8 -5.5 30.5t-13.5 45 t-18 41t-21 18.5q-18 0 -68 -10.5t-107.5 -23.5t-112 -26.5t-80.5 -17.5q-90 -16 -183.5 -32.5t-185.5 -16.5q-14 0 -25.5 5t-21.5 5q-12 0 -12 -14q0 -10 4 -25.5t12 -31t19.5 -26.5t23.5 -11q31 0 93.5 14t132 32.5t134 38t99.5 29.5q8 2 25.5 7.5t37 9.5t36 8t26.5 4 q23 0 22 -22q0 -20 -54 -68.5t-135 -110t-175 -128t-175 -125t-135.5 -100.5t-54.5 -52q0 -16 15.5 -38t31.5 -22q4 0 18.5 4.5t30 10.5t28.5 11t20 7q47 16 97 28.5t103 12.5q43 0 83 -8t70 -26.5t48 -51.5t18 -82q0 -84 -43 -166t-113.5 -157.5t-159.5 -144t-181 -129 t-179.5 -111t-150.5 -86.5q-4 -8 -4 -17z" />
<glyph unicode="4" horiz-adv-x="1191" d="M223 514q0 -16 25.5 -34.5t40.5 -18.5q2 0 18.5 7t35.5 16.5t35.5 17.5t20.5 10q137 63 275.5 115.5t286.5 87.5l65 16q-12 -23 -42 -80t-67.5 -132t-78.5 -157.5t-75 -157.5t-56.5 -131.5t-22.5 -76.5q0 -29 33 -29q29 0 64.5 15.5t47.5 40.5q4 8 14.5 38.5t22 67.5 t21.5 72t16 51q47 127 98.5 251t108.5 247q92 18 188.5 34.5t190.5 16.5q8 8 8 20q0 4 -1 6t-1 7q-20 0 -38.5 1t-39.5 1q-70 0 -139.5 -8.5t-138.5 -18.5q12 23 24.5 47.5t24.5 46.5q82 158 172 311.5t201 294.5q2 2 9 11.5t15 19.5t15.5 18.5t7.5 10.5q2 4 1 5t-1 5 q0 6 -5.5 11t-11.5 3q-63 -63 -138 -165.5t-146.5 -216t-136 -224t-107.5 -190.5q-59 -10 -132 -23.5t-146.5 -29t-145.5 -33t-127 -37.5l-4 6q111 115 227.5 221.5t237.5 208.5q90 78 181 147.5t164 123t119 87t46 39.5q0 16 -21.5 43t-38.5 27q-16 0 -87.5 -45 t-171 -115.5t-212 -159t-209.5 -174.5q-102 -92 -195 -181t-166 -164.5t-116 -134t-43 -89.5z" />
<glyph unicode="5" horiz-adv-x="1214" d="M160 -53l10 -6q68 12 174.5 52t228 99.5t244.5 133t222.5 154.5t162 165t62.5 162q0 57 -33 96t-81 61.5t-103.5 32.5t-100.5 10q-76 0 -170 -15t-166 -42l-2 10q31 47 82 130t108.5 169t114 159t97.5 99q25 16 78 32.5t120.5 33t143 30t146.5 23.5t130.5 16.5t91.5 6.5 q9 12 9 22q0 12 -9 14q-170 0 -338 -11t-338 -11q-27 0 -49 14.5t-39 14.5q-4 0 -27.5 -30t-50 -68t-49 -71.5t-28.5 -39.5q-10 -16 -46 -69.5t-84 -125.5t-100.5 -152.5l-97.5 -149.5t-73.5 -117t-28.5 -54q0 -12 10 -26.5t25.5 -25.5t32 -19.5t28.5 -8.5q8 0 50 32 t104.5 70.5t140.5 70.5t160 32q94 0 138 -34t44 -116q0 -63 -53.5 -137t-139.5 -150.5t-191.5 -149.5t-208.5 -134t-194.5 -105t-146.5 -63z" />
<glyph unicode="6" horiz-adv-x="1212" d="M231 313q0 -74 22.5 -135t62.5 -105t92.5 -68.5t111.5 -24.5q66 0 144.5 28.5t158.5 76.5t156 111.5t134 136.5t93 148.5t35 147.5q0 29 -21.5 62.5t-53 62t-67.5 48t-65 19.5q-41 0 -99 -22.5t-126 -61.5t-137.5 -92t-131 -113.5t-109.5 -127t-71 -130.5q4 86 38 183.5 t97.5 202t158 210t220.5 205.5q131 104 253 191.5t229.5 156t196 115.5t149.5 70q10 6 9 16t-11 14q-68 -16 -186.5 -61t-258 -114.5t-284 -161t-262.5 -197.5q-236 -207 -357 -406.5t-121 -384.5zM383 117q2 10 2 18v8q0 70 37 142.5t96.5 140.5t133 129t147 106.5 t141.5 72t113 26.5q29 0 49 -12.5t20 -51.5q0 -57 -26.5 -126.5t-71.5 -142.5t-105.5 -142.5t-128 -124t-139 -87t-139.5 -32.5q-35 0 -70.5 13.5t-58.5 62.5z" />
<glyph unicode="7" horiz-adv-x="1056" d="M225 -51q6 -10 19 -12q37 78 91 175t121.5 201.5t144.5 211t161 202.5q55 63 122.5 133t138.5 138.5t141.5 133t134 119t114.5 94t84 62.5q41 29 67.5 44.5t26.5 31.5q0 8 -9 26.5t-24.5 35t-33 29.5t-35.5 13q-133 0 -249 -7t-217 -16.5t-187 -16.5t-156 -7 q-18 0 -26.5 -11t-8.5 -28q0 -10 10.5 -25.5t24.5 -30.5t29.5 -26.5t25.5 -11.5q16 0 80 15.5t153 35t192.5 34.5t199.5 15v-8q-147 -152 -304 -318.5t-306 -351.5q-170 -209 -309.5 -430t-215.5 -450z" />
<glyph unicode="8" horiz-adv-x="1183" d="M170 262q0 -53 34 -105.5t86 -92t113.5 -64.5t114.5 -25q98 0 209 40t204 114t154.5 177.5t61.5 230.5q0 61 -19.5 128.5t-48 137t-60.5 137.5t-58 129q20 16 38.5 28.5t34.5 24.5q104 70 220 138.5t221.5 127t189.5 99.5t123 57q10 12 2 15.5t-18 9.5q-37 -14 -112 -47 t-180.5 -86.5t-235.5 -127t-273 -169.5l-29 -21q-14 39 -22.5 72t-8.5 61q0 61 25 103.5t59.5 67t72.5 34.5t67 10q59 0 108 -7t82 -7t61.5 10.5t28.5 46.5q0 14 -20.5 26.5t-55 22t-78.5 15.5t-94 6q-76 0 -143.5 -20.5t-118.5 -60.5t-81.5 -96t-30.5 -126q0 -59 15 -113.5 t38 -109.5q-129 -96 -251 -205t-216 -215.5t-151.5 -203.5t-57.5 -167zM289 211q0 78 53 179.5t137 209t187.5 210.5t203.5 187q43 -98 84 -213.5t41 -267.5q0 -100 -50 -182t-129 -139.5t-175 -89t-188 -31.5q-80 0 -122 36.5t-42 100.5z" />
<glyph unicode="9" horiz-adv-x="1210" d="M13.5 -39q0.5 -10 13.5 -14q68 14 185.5 60t256.5 116t282.5 161t264.5 197q236 207 356.5 407t120.5 382q0 76 -22.5 137t-62.5 105t-92 69t-110 25q-66 0 -145.5 -29t-159.5 -77t-155.5 -112.5t-134 -136t-93.5 -147.5t-35 -148q0 -29 21.5 -62.5t53.5 -62t68 -48 t64 -19.5q41 0 100.5 22.5t127 61.5t137 92t131 113.5t108.5 127t70 130.5q-4 -86 -38 -184.5t-97.5 -202t-158.5 -209t-220 -205.5q-131 -104 -253 -191.5t-229.5 -156t-195.5 -115.5t-149 -70q-10 -6 -9.5 -16zM604 889q0 55 26.5 125.5t72 143.5t104.5 142.5t126.5 124 t139.5 87t139 32.5q35 0 70.5 -13.5t58.5 -64.5q-2 -8 -2 -18v-8q0 -70 -36.5 -141.5t-96 -140t-133.5 -129t-147.5 -105.5t-141 -72t-112.5 -27q-29 0 -48.5 12.5t-19.5 51.5z" />
<glyph unicode=":" horiz-adv-x="524" d="M98 74q0 -10 5.5 -39t9.5 -41q2 -10 17 -18.5t38 -8.5q14 0 28.5 10.5t24.5 23.5t17.5 29.5t7.5 28.5t-10.5 27.5t-24.5 28t-28.5 21.5t-22.5 9t-18.5 -9t-19.5 -20.5t-16.5 -23.5t-7.5 -18zM346 535q0 -10 5 -39t9 -41q4 -10 19.5 -18.5t36.5 -8.5q14 0 28.5 10.5 t24.5 23.5t17.5 29.5t7.5 28.5t-10.5 27.5t-25 28t-27.5 21.5t-21 9t-18.5 -9t-21 -20.5t-17.5 -23.5t-7 -18z" />
<glyph unicode=";" horiz-adv-x="530" d="M-68 -252q0 -8 7.5 -10t11.5 -2q43 0 90 39t89 89t70.5 97t35.5 64q4 10 7 17t3 17t-9.5 24.5t-23.5 29t-28.5 23.5t-24.5 9q-6 0 -17.5 -8t-20.5 -20.5t-16.5 -24.5t-7.5 -18q0 -10 6.5 -43t10.5 -43q-12 -35 -26.5 -73t-37.5 -69q-10 -16 -29.5 -30.5t-38 -26.5 t-34 -23.5t-17.5 -17.5zM346 535q0 -10 5 -39t9 -41q4 -10 19.5 -18.5t36.5 -8.5q14 0 28.5 10.5t24.5 23.5t17.5 29.5t7.5 28.5t-10.5 27.5t-25 28t-27.5 21.5t-21 9t-18.5 -9t-21 -20.5t-17.5 -23.5t-7 -18z" />
<glyph unicode="&#x3c;" horiz-adv-x="1130" d="M293 653l663 -479l45 100l-555 402l922 405l55 142l-1093 -486z" />
<glyph unicode="=" horiz-adv-x="724" d="M246 444q0 -27 26 -26q12 14 47 21t76 10.5t79 4.5t56 1q61 0 124 -5.5t126 -5.5q16 0 23 9l2 16q0 10 -1 21.5t-9 17.5q-6 4 -36 9t-71 10t-89 9.5t-91 6.5t-76 4t-45 2q-35 0 -60.5 -1t-44 -10.5t-27.5 -31t-9 -62.5zM246 657q0 -27 26 -26q12 14 47 21t76 10.5t79 4.5 t56 1q61 0 124 -5.5t126 -5.5q16 0 23 9l2 16q0 10 -1 21.5t-9 17.5q-6 4 -36 9t-71 10t-89 9.5t-91 6.5t-76 4t-45 2q-35 0 -60.5 -1t-44 -10.5t-27.5 -31t-9 -62.5z" />
<glyph unicode="&#x3e;" horiz-adv-x="1155" d="M152 158l1093 485l37 84l-664 479l-45 -100l555 -401l-921 -406z" />
<glyph unicode="?" horiz-adv-x="964" d="M262 74q0 -10 5 -39t9 -41q2 -10 17.5 -18.5t38.5 -8.5q14 0 28.5 10.5t24.5 23.5t17.5 29.5t7.5 28.5t-10.5 27.5t-25 28t-28.5 21.5t-22 9t-18.5 -9t-20 -20.5t-16.5 -23.5t-7 -18zM367 311q0 -41 19.5 -63.5t43.5 -22.5q-2 63 35 128t99.5 128.5t144.5 128t168 131.5 q94 72 188 146t170 151.5t124 158.5t48 167q0 88 -61.5 130t-161.5 42q-74 0 -156 -19.5t-163 -48t-153.5 -64.5t-129 -67.5t-89 -56.5t-32.5 -33q0 -16 9 -30.5t21.5 -25.5t23.5 -18.5t17 -7.5q8 0 46 24.5t92.5 61.5t123 79t139.5 79t140.5 61.5t128.5 24.5q41 0 79 -21.5 t38 -78.5q0 -86 -43 -168t-112.5 -159t-156.5 -149.5t-175.5 -140t-171 -130t-148.5 -121t-105.5 -113t-39.5 -103.5z" />
<glyph unicode="@" horiz-adv-x="1892" d="M143 524q0 -211 81 -362.5t211 -248.5t293 -143t327 -46q129 0 230 21.5t182 53t143.5 70.5t113.5 76l-32 30q-158 -117 -314.5 -160.5t-308.5 -43.5q-213 0 -367.5 63.5t-254 167.5t-146.5 235.5t-47 266.5q0 223 71.5 392t193.5 282.5t279.5 172t329.5 58.5 q168 0 299.5 -48t221.5 -134t137 -204t47 -255q0 -166 -49 -280.5t-118 -185.5t-141.5 -102.5t-117.5 -31.5q-70 0 -85 56.5t5 160.5l172 602h-131l-55 -178q-18 68 -45 106.5t-57.5 60t-61.5 28t-55 6.5q-84 0 -169 -50.5t-155 -130t-114 -179t-44 -197.5 q0 -80 22.5 -140.5t60.5 -102.5t87 -63.5t101 -21.5q86 0 164.5 55.5t144.5 159.5q6 -66 25.5 -108t47 -66.5t60.5 -33.5t68 -9q109 0 197.5 58.5t151 152.5t96.5 210.5t34 231.5q0 117 -41 237t-131 217t-236.5 158.5t-357.5 61.5q-219 0 -396.5 -78t-303 -207t-194.5 -296 t-69 -345zM737 393q0 33 11.5 89.5t33 120t51 129t67.5 118.5t81 86t90 33q53 0 91 -21.5t61.5 -55.5t34 -76t10.5 -85q-2 -72 -28 -169t-73 -184t-115.5 -147.5t-156.5 -60.5q-43 0 -73.5 21.5t-49 54.5t-27 72.5t-8.5 74.5z" />
<glyph unicode="A" horiz-adv-x="1613" d="M27 547q0 -23 27.5 -39t49.5 -16q20 0 56.5 12t76 28.5t76.5 33t60 24.5q63 20 140 40.5t149.5 36t135 25.5t99.5 10q-104 -94 -205.5 -199.5t-204.5 -201.5q-53 -51 -107 -105.5t-112 -101.5q-4 -4 -20.5 -15t-33.5 -25.5t-30.5 -26t-13.5 -15.5t7 -7t17.5 -5t18.5 -2 h14q33 0 60.5 18.5t50.5 36.5q61 47 117.5 107.5t109.5 113.5q109 109 220.5 216.5t222.5 211.5q117 10 249 12h71q92 0 173 -3q-20 -27 -64 -95.5t-98.5 -161t-112 -198.5t-105.5 -205.5t-78.5 -183.5t-30.5 -133q0 -14 3 -36t10 -42.5t19.5 -34.5t32.5 -14q12 0 21 14 q31 70 82 161t110 185q61 100 123 190.5t107 145.5q0 4 -3.5 9t-5.5 5q-55 -37 -103 -88t-85 -104h-6q76 147 143.5 293.5t155.5 286.5q35 -2 67.5 -3.5t67.5 -5.5l-20 37l-97 10q59 90 121 177.5t125 173.5q8 10 31.5 40.5t55.5 70.5t66.5 85t65.5 84t51.5 66.5t22.5 34.5 q8 20 12 38t4 41q0 12 -5 36t-23 24q-27 0 -97.5 -38t-168 -101.5t-209 -143.5t-220.5 -162q-78 -61 -152.5 -120.5t-139 -111.5t-115.5 -96t-84 -73q-59 -2 -105.5 -7t-103.5 -11q-25 -2 -89.5 -11.5t-146 -23t-171 -30.5t-163 -38.5t-121.5 -47.5t-48 -52zM1085 766 q25 20 95.5 76.5t164 130.5t199 152.5t200.5 146t166.5 114t96.5 50.5q-12 -16 -46 -62.5t-79 -109t-97 -135t-101.5 -143.5t-91.5 -132t-66 -100q-106 6 -220 9t-221 3z" />
<glyph unicode="B" horiz-adv-x="1345" d="M61 45q0 -16 7.5 -38.5t19.5 -44t27.5 -36t31.5 -14.5q14 0 44 44t62 99.5t57.5 104.5t31.5 59q0 16 -14 12q-6 -4 -21.5 -19t-33 -33.5t-32 -35t-20.5 -22.5l-6 4q0 6 34 56t94 131t141 185.5t178 221.5q113 137 220 255t189 206t132 141t50 61q0 14 -9 46t-19 49 q92 23 174 37t151 14q49 0 96.5 -10.5t84 -29t58 -46t21.5 -60.5q0 -72 -54 -154.5t-139 -165.5t-191.5 -159t-211 -135t-196.5 -94t-148 -35q-47 0 -98 -11.5t-94 -26.5t-70.5 -31.5t-27.5 -26.5q0 -23 16 -29t43 -6q14 0 37.5 10t54.5 22.5t65.5 22.5t69.5 10 q129 0 203 -40.5t74 -92.5q0 -57 -60.5 -118.5t-149.5 -111.5t-191.5 -83t-186.5 -33q-72 0 -96.5 17.5t-24.5 42.5q0 29 16.5 56.5t26.5 37.5q0 6 -4 11t-10 3q-6 -6 -19.5 -17.5t-27 -26.5t-23.5 -35.5t-10 -41.5q0 -23 18.5 -47t49 -46.5t70.5 -37t83 -14.5 q84 0 185.5 26.5t190.5 75.5t149.5 118t60.5 153q0 90 -41 148t-102 85q80 20 171 55t181 81t174 105.5t148.5 128t102.5 146.5t38 164q0 61 -16.5 118.5t-61.5 101.5t-125 69.5t-207 25.5q-139 0 -295 -39.5t-309.5 -102t-294.5 -136.5t-248.5 -143.5t-172 -125 t-64.5 -77.5q0 -33 20.5 -54.5t42.5 -21.5q20 0 55 11.5t77 32t90 46t98 53.5q59 35 116.5 72t103.5 69.5t77.5 57.5t39.5 35q-2 12 -12 14t-20 0q-12 -6 -44 -26.5t-78 -48t-99.5 -59.5t-108.5 -62q-86 -49 -159.5 -84t-102.5 -35q-14 0 -14 10t40.5 39t110.5 68.5t164 87 t202.5 95.5t225.5 93t229 80q-41 -45 -113.5 -127t-161.5 -185.5t-188.5 -222t-193.5 -237.5q-74 -92 -146.5 -192.5t-129 -188.5t-92.5 -154.5t-36 -93.5z" />
<glyph unicode="C" horiz-adv-x="1255" d="M33 113q0 -61 19.5 -106.5t50 -74t68.5 -42t77 -13.5q92 0 190.5 23.5t193.5 59.5t181 80t154.5 84t113.5 70.5t60 43.5q8 10 1 19t-22 9q-12 -10 -53 -37.5t-103.5 -63.5t-142.5 -76t-169 -72.5t-184 -54t-187 -21.5q-86 0 -126 50t-40 124q0 82 53 186.5t144 217 t213 230t259.5 226t280.5 205t279.5 168t256 113.5t207.5 42q92 0 93 -63q0 -43 -37 -94.5t-83 -96.5t-87 -75.5t-49 -30.5t-12.5 3t-8.5 8t-10 8t-19 3q-14 0 -55 -25.5t-93 -64.5t-109.5 -87t-105.5 -93t-79 -81t-31 -50q0 -29 19.5 -46.5t42.5 -17.5q18 0 81.5 40 t147.5 103.5t177 143.5t170 161t128 154.5t51 124.5q0 27 -7 56.5t-28.5 53.5t-61.5 39t-107 15q-100 0 -226.5 -40t-264.5 -111.5t-281.5 -167.5t-278.5 -208t-254 -234.5t-207 -246.5t-139 -244t-51 -226z" />
<glyph unicode="D" horiz-adv-x="1429" d="M61 45q0 -16 7.5 -38.5t19.5 -44t27.5 -36t31.5 -14.5q14 0 44 44t62 99.5t57.5 104.5t31.5 59q0 16 -14 12q-6 -4 -21.5 -19t-33 -33.5t-32 -35t-20.5 -22.5l-6 4q0 6 34 56t94 131t141 185.5t178 221.5q113 137 220 255t189 206t132 141t50 61q0 14 -9 46t-19 49 q92 23 174 37t151 14q141 0 203 -54.5t62 -146.5q0 -100 -62.5 -229t-166 -266.5t-236.5 -269.5t-273.5 -236.5t-276.5 -168t-245 -63.5q-72 0 -96.5 17.5t-24.5 42.5q0 29 16.5 56.5t26.5 37.5q0 6 -4 11t-10 3q-6 -6 -19.5 -17.5t-27 -26.5t-23.5 -35.5t-10 -41.5 q0 -23 18.5 -47t49 -46.5t70.5 -37t83 -14.5q131 0 275.5 62.5t285 166t267.5 237.5t224 276.5t154.5 282.5t57.5 257q0 70 -22.5 129t-73 101t-129 65.5t-191.5 23.5q-139 0 -295 -39.5t-309.5 -102t-294.5 -136.5t-248.5 -143.5t-172 -125t-64.5 -77.5q0 -33 20.5 -54.5 t42.5 -21.5q20 0 55 11.5t77 32t90 46t98 53.5q59 35 116.5 72t103.5 69.5t77.5 57.5t39.5 35q-2 12 -12 14t-20 0q-12 -6 -44 -26.5t-78 -48t-99.5 -59.5t-108.5 -62q-86 -49 -159.5 -84t-102.5 -35q-14 0 -14 10t40.5 39t110.5 68.5t164 87t202.5 95.5t225.5 93t229 80 q-41 -45 -113.5 -127t-161.5 -185.5t-188.5 -222t-193.5 -237.5q-74 -92 -146.5 -192.5t-129 -188.5t-92.5 -154.5t-36 -93.5z" />
<glyph unicode="E" horiz-adv-x="1243" d="M102 141q0 -16 10.5 -48t27 -62.5t37 -53t38.5 -22.5q76 0 185.5 14.5t232.5 37t247 53t232 61.5q6 8 6 20q0 35 -28 47q-45 -12 -116 -26.5t-155 -28.5t-173 -28.5t-170 -25.5t-146.5 -18.5t-100.5 -7.5q-27 0 -26 25q0 12 20.5 53t52 95.5t70.5 117t74 117.5t62.5 97 t37.5 58q176 18 355.5 39t357.5 21h22t17 4q0 20 -22.5 31.5t-52.5 16.5t-58 5h-41q-133 0 -265.5 -11t-263.5 -28q72 115 145.5 227.5t145.5 227.5q37 59 80 124.5t66 131.5q98 10 202.5 21.5t211 21.5t211 16t200.5 6h29q20 1 20 9q0 27 -28.5 40t-65.5 18t-74 5h-49 q-170 0 -338 -15.5t-334 -39.5l-47 8l-26 -18q-33 -6 -71 -11.5t-77 -11.5t-77 -13t-68 -18q-25 -6 -25 -28q0 -23 10.5 -31t34.5 -8q47 0 99.5 10t99.5 16q-27 -39 -81 -122.5t-119.5 -187t-134.5 -214t-124 -201.5q-10 -2 -30.5 -4t-42 -7t-37 -12t-15.5 -20q0 -18 8 -24 t27 -6q12 0 25.5 3t25.5 5q-6 -12 -26.5 -47t-48 -82t-57.5 -100.5t-54.5 -99.5t-41 -79.5t-16.5 -42.5z" />
<glyph unicode="F" horiz-adv-x="1062" d="M14 1157q0 -10 8.5 -21.5t20.5 -22.5t24.5 -18.5t22.5 -7.5q8 0 45 23t77 50.5t73.5 52t38.5 30.5q10 10 9 28.5t-1 28.5q0 6 32.5 29t90 50.5t134.5 58t164 57.5t180 43t181 16q68 0 116 -13t79.5 -34.5t46 -47t14.5 -52.5q0 -35 -36 -103.5t-94 -159.5t-134 -198.5 t-158 -216.5q-113 -8 -225.5 -24.5t-224.5 -32.5q-63 -8 -127 -14.5t-125 -16.5q-23 -6 -23 -27q0 -16 8.5 -21t24.5 -5q47 0 96 9t97 13q102 12 202.5 21.5t202.5 19.5l41 4q-84 -111 -163 -212t-142.5 -180t-103.5 -128t-44 -53q-18 -23 -36.5 -34t-18.5 -34 q0 -20 22.5 -44.5t51.5 -24.5q10 0 34.5 16t56.5 43t66.5 56.5t62.5 58t46 49t18 27.5q0 18 -6 34.5t-6 26.5q0 6 23.5 39t61.5 82t84 108.5t89 118.5q10 14 22.5 30.5t26.5 35.5q51 4 100.5 6t100.5 2h21q18 0 18 6q0 20 -21.5 31.5t-50 15.5t-57.5 4h-41h-20 q53 70 113.5 155t111.5 169t85 163t34 138q0 125 -79 186.5t-282 61.5q-106 0 -226 -29t-237.5 -74t-225.5 -99t-189.5 -104.5t-131 -90.5t-49.5 -54z" />
<glyph unicode="G" horiz-adv-x="1331" d="M-145 -623q0 -43 16 -72.5t41 -49t53.5 -27.5t54.5 -8q154 0 303.5 68.5t287 179t254 249t204.5 275.5q27 -10 41 -28.5t25 -35.5q12 -4 22 3.5t10 17.5q-10 20 -26.5 42.5t-46.5 39.5q29 41 64.5 97t70.5 118.5t67.5 125t57.5 115.5q4 8 14 14.5t21.5 14.5t19.5 18.5 t8 26.5q0 10 -30.5 20.5t-90.5 10.5q-16 0 -27.5 -8.5t-21.5 -20.5t-20 -26.5t-25 -24.5q-27 -20 -108.5 -73.5t-193.5 -109t-238.5 -97.5t-245.5 -42q-88 0 -127 50.5t-39 124.5q0 80 65.5 194.5t173 241.5t245.5 252t285.5 225t291 162.5t262.5 62.5q92 0 92 -63 q0 -43 -37 -94.5t-83 -96.5t-87 -75.5t-49 -30.5t-12 3t-8.5 8t-10.5 8t-18 3q-14 0 -55 -25.5t-93.5 -64.5t-110 -87t-105.5 -93t-78.5 -81t-30.5 -50q0 -29 19.5 -46.5t41.5 -17.5q18 0 82 40t148 103.5t177 143.5t170 161t128 154.5t51 124.5q0 27 -7 56.5t-28.5 53.5 t-61.5 39t-108 15q-133 0 -283.5 -63.5t-298 -167t-283.5 -235.5t-239.5 -268t-165 -266t-61.5 -229q0 -61 19.5 -106t50 -73.5t68.5 -42t77 -13.5q111 0 228.5 33t227 80t203 99t152.5 91q-14 -31 -43 -83t-62.5 -108.5t-66.5 -109.5t-55 -84q-25 3 -54 3q-57 0 -131 -12 q-110 -20 -234 -64t-248 -107.5t-222 -140t-160.5 -165.5t-62.5 -182zM-104 -639q0 80 57 160t149.5 152.5t208 134t230 105.5t219.5 67q85 19 146 19q16 0 30 -1q-47 -70 -110.5 -152t-139.5 -164.5t-161 -158.5t-174 -135.5t-177 -94t-170 -34.5q-70 0 -89 32.5t-19 69.5z " />
<glyph unicode="H" horiz-adv-x="1544" d="M23 -332q0 -23 21.5 -46t51.5 -23q14 0 60.5 35.5t96.5 79.5t89 84t39 50q0 18 -6 34t-6 28q0 4 22.5 34.5t58 78t80.5 106.5t90.5 118.5t87.5 115t70 94.5q29 41 73 97t93 124q117 27 236.5 45t236.5 18h43q23 0 45 -2l-47 -61q-74 -98 -136 -192.5t-107.5 -173.5 t-71 -138t-25.5 -90q0 -29 17.5 -40t33.5 -11q18 0 39 23.5t33 39.5q18 27 50 64t65 73.5t61.5 66.5t40.5 40q0 23 -22 22q-12 -10 -36 -29.5t-48.5 -42t-46 -42t-27.5 -25.5l-6 4q2 6 14 27.5t30.5 52.5t41 67t47.5 70q45 61 104.5 138t122.5 153q53 -2 94 -5t54 -7 q10 4 12 15.5t-4 15.5q-29 10 -125 18q39 47 75 90t64.5 77t48 56.5t25.5 30.5q27 29 43 67.5t16 63.5t-10 41t-27 16q-10 0 -44.5 -35.5t-84 -96t-110 -138.5t-123.5 -164q-35 2 -73 3t-83 1q-88 0 -188 -13t-205 -34q43 63 85 130t75 132.5t53.5 126t20.5 113.5 q0 98 -48.5 159.5t-158.5 61.5q-84 0 -182.5 -29.5t-200 -73.5t-195.5 -98.5t-166.5 -102.5t-116.5 -85t-44 -49q0 -10 8 -23.5t20.5 -27t24.5 -22.5t22 -9q8 0 45 22.5t77 50t74 52.5t38 31q10 12 9 30.5t-1 28.5q0 2 30.5 21.5t82 46t116 56.5t134 55.5t136 43t122.5 17.5 q49 0 79.5 -14.5t30.5 -49.5t-27.5 -99.5t-76.5 -148.5t-114 -183t-138 -204q-76 -18 -142.5 -35.5t-118 -32t-84 -22.5t-38.5 -8q-25 0 -39 4t-37 4q-47 0 -47 -33q0 -16 19.5 -26t66.5 -10q45 0 143.5 28.5t229.5 63.5q-113 -160 -230.5 -316.5t-215 -282.5t-161 -207 t-69.5 -87q-18 -23 -36.5 -35t-18.5 -33z" />
<glyph unicode="I" horiz-adv-x="743" d="M80 1169q0 -10 8 -23t20.5 -26.5t24.5 -23t23 -9.5q8 0 45 23t76.5 50.5t73.5 52t38 30.5q10 10 9 28.5t-1 28.5q0 2 31 21.5t82 46.5t115.5 57.5t134 56t136.5 43t122 17.5q49 0 79.5 -16.5t30.5 -69.5q0 -35 -38.5 -111.5t-102 -178t-145.5 -220.5t-168 -237.5 t-169 -229t-148.5 -197.5t-108.5 -141.5t-47 -58.5q-18 -23 -37 -34t-19 -34q0 -20 22.5 -44.5t51.5 -24.5q10 0 35 16t56.5 43t66.5 56.5t62.5 58t46 49t18.5 27.5q0 18 -6 34.5t-6 26.5q0 6 23.5 39t61 82t84 108.5t89.5 118.5q29 39 72.5 96.5t93 125t98.5 141t89 147.5 t64.5 143.5t24.5 128.5q0 98 -48 160t-159 62q-82 0 -181 -30t-199.5 -74t-195 -98t-168 -102.5t-117.5 -85t-44 -49.5z" />
<glyph unicode="J" horiz-adv-x="1470" d="M-104 -623q0 -43 15 -72.5t38.5 -49t51.5 -27.5t54 -8q72 0 159 34.5t181 96t193.5 144.5t197 179.5t189.5 201t172 206.5q49 63 99 136t102 151q25 -10 39 -28.5t26 -35.5q10 -4 21.5 3t9.5 18q-10 20 -26.5 42.5t-45.5 39.5q76 121 150.5 249.5t135 251.5t97.5 234.5 t37 197.5q0 39 -8 81t-27.5 76t-52.5 56.5t-84 22.5q-125 0 -240.5 -57.5t-215 -144.5t-181.5 -192.5t-139.5 -201.5t-89 -170t-31.5 -100q0 -14 17.5 -29.5t37.5 -15.5q23 0 53.5 27.5t65.5 69.5t68.5 93t61.5 100.5t44 89t16 60.5q0 20 -7 23.5t-17 0.5q-6 0 -12.5 1.5 t-6.5 13.5t24 46t65 77t95 89t116.5 84t127 62.5t127.5 24.5q35 0 57.5 -23.5t22.5 -66.5q0 -57 -23.5 -142.5t-62.5 -182.5t-87 -200.5t-96 -196.5t-92 -171t-75 -123q-283 -16 -518.5 -117.5t-413.5 -247.5q-98 -82 -175 -171t-131 -178t-81.5 -173t-27.5 -158zM-70 -639 q0 61 33 135t91.5 154t138 163t176.5 160q94 76 198.5 144.5t213 123t218 89.5t213.5 45q-18 -29 -37.5 -58.5t-39.5 -60.5q-82 -123 -180.5 -244t-203 -231.5t-209 -205.5t-198.5 -166t-173 -110.5t-132 -39.5q-70 0 -89.5 32.5t-19.5 69.5z" />
<glyph unicode="K" horiz-adv-x="1427" d="M33 1169q0 -10 8 -23t20.5 -26.5t24.5 -23t23 -9.5q8 0 44.5 23t76.5 50.5t74 52t38 30.5q10 10 9 28.5t-1 28.5q0 2 31 21.5t82 46.5t115.5 57.5t134 56t136 43t122.5 17.5q49 0 79.5 -16.5t30.5 -69.5q0 -35 -38.5 -111.5t-102 -178t-145.5 -220.5t-168 -237.5 t-169 -229t-148.5 -197.5t-108.5 -141.5t-47 -58.5q-18 -23 -37 -34t-19 -34q0 -20 22.5 -44.5t51.5 -24.5q10 0 34.5 16t56.5 43t67 56.5t62.5 58t46 49t18.5 27.5q0 18 -6.5 34.5t-6.5 26.5q0 4 15.5 26.5t42 56.5t59.5 78t70 91q20 -86 52 -179t79 -171t110.5 -128 t143.5 -50q39 0 74.5 17t63.5 40.5t47.5 48.5t29.5 41q-10 25 -33 14q-20 -27 -62 -59.5t-118 -32.5q-41 0 -72 30t-55.5 76t-42 104t-29.5 117.5t-19 113t-12 88.5q16 -4 35 -6.5t39 -2.5q147 0 290.5 44t271.5 118t236.5 169t188.5 198.5t124 208t44 194.5q0 18 -9 35.5 t-22.5 32t-27.5 22.5t-25 8q0 -102 -42 -213.5t-116.5 -220t-180 -207t-232.5 -174t-273.5 -119.5t-302.5 -44q-41 0 -67 6q33 43 78 101t92 125t93 137.5t82 140t58.5 135t22.5 120.5q0 98 -48 160t-159 62q-82 0 -181.5 -30t-199.5 -74t-194.5 -98t-168 -102.5t-117.5 -85 t-44 -49.5z" />
<glyph unicode="L" horiz-adv-x="2258" d="M35 -96q0 -59 27.5 -112.5t74.5 -93.5t109.5 -63.5t130.5 -23.5q131 0 251 48t222 119.5t185 153.5t139 152q20 27 51.5 65.5t69.5 86t80 101.5t87 109q154 -6 267.5 -30.5t192.5 -61.5t129 -79t79 -80.5t40 -68.5t13 -42q10 -8 27.5 1t17.5 21q-6 25 -35.5 84.5 t-107.5 124t-217 118.5t-363 69q63 80 127 158.5t117 146t95 118t63 72.5q8 10 18 19.5t21 21.5q123 20 238.5 52t204.5 71t142.5 83t53.5 91q0 14 -17.5 36t-42 41.5t-53.5 33.5t-53 14q-84 0 -166 -33.5t-158 -87t-143.5 -117t-120.5 -122.5q-8 -8 -16.5 -18.5 t-18.5 -20.5q-35 -4 -70 -4h-67q-162 0 -291 38t-222 87t-148.5 97t-69.5 69q-14 0 -23.5 -9.5t-7.5 -19.5q20 -29 82.5 -81t159 -103.5t224.5 -89t277 -37.5q29 0 57.5 1t57.5 3q-41 -51 -91 -114.5t-102.5 -131.5t-104.5 -135.5t-97 -126.5q-291 -6 -534.5 -58.5 t-419 -136.5t-273.5 -189.5t-98 -215.5zM96 -119q0 94 99.5 189.5t267.5 175.5t389 134t463 66q-14 -16 -26.5 -32.5t-24.5 -30.5q-37 -45 -90.5 -115.5t-121 -148.5t-148.5 -157t-171 -141.5t-187 -102.5t-202 -40q-123 0 -185.5 61.5t-62.5 141.5zM2009 1094 q51 45 114.5 95t127 90t120 66.5t95.5 26.5q22 0 22 -31q0 -25 -33.5 -58.5t-96 -67t-150.5 -66.5t-199 -55z" />
<glyph unicode="M" horiz-adv-x="2519" d="M20 1288q0 -23 19.5 -28t36.5 -5q20 0 65 21.5t100.5 53.5t115 70t108.5 70.5t81 56t32 27.5q0 8 -8.5 12.5t-8.5 14.5q0 4 40 29.5t104.5 60.5t149.5 74t175 72.5t179 55t163 21.5q154 0 220.5 -55t66.5 -133q0 -59 -21.5 -128t-60.5 -145.5t-93 -158.5t-118 -166 q-129 -76 -261 -172t-255 -201.5t-231.5 -215t-189.5 -210t-128 -186.5t-47 -146q0 -25 18.5 -40t44.5 -15q49 0 130 50.5t181.5 136.5t213 200.5t224.5 243.5t218.5 267t194.5 270q117 66 225 103.5t199 37.5q45 0 65.5 -26.5t20.5 -69.5q0 -51 -36 -134t-92.5 -181.5 t-126 -204t-139.5 -203.5q-82 -61 -154.5 -123t-126.5 -114t-86 -93t-32 -64q0 -25 38 -45t85 -20q14 0 67.5 45t124 121t152.5 176t156 213q76 51 150.5 96t138 79t111.5 53.5t75 19.5q25 0 33 -12.5t8 -28.5q0 -35 -24.5 -88.5t-61.5 -115.5t-80 -128t-80 -124 t-61.5 -106.5t-24.5 -76.5q0 -43 26.5 -63.5t55.5 -20.5q23 0 66.5 24.5t97 60.5t110 80t103.5 83t81 67.5t40 34.5q2 20 -25 25q-10 -6 -35.5 -24.5t-60.5 -42.5t-73 -49.5t-71.5 -47t-56.5 -35.5t-27 -14q-12 0 -14 5t-2 15q0 4 15.5 33t38 72t50 96t50 105t38 99.5 t15.5 79.5q0 57 -25.5 101.5t-97.5 44.5q-31 0 -75 -14.5t-98 -40t-116.5 -61.5t-128.5 -77q72 123 118 244t46 229q0 88 -45 145.5t-145 57.5q-66 0 -143 -21.5t-163 -60.5q82 135 130.5 249t48.5 192q0 152 -99.5 220t-259.5 68q-129 0 -279.5 -44t-300 -110.5 t-290 -146.5t-246.5 -151.5t-171 -124.5t-65 -70zM391 126q2 1 2 11q0 18 32 64.5t89 110t135 140t170 158.5t195 164t209 156q-133 -156 -273.5 -301.5t-259.5 -257t-198.5 -179t-92.5 -67.5q-10 0 -8 1z" />
<glyph unicode="N" horiz-adv-x="1966" d="M43 1288q0 -23 19.5 -28t33.5 -5q20 0 65.5 21.5t100.5 53.5t114.5 70t109 70.5t81 56t31.5 27.5q0 8 -8 12.5t-8 14.5q0 4 40 29.5t105.5 60.5t149.5 74t174 72.5t179 55t163 21.5q156 0 222 -55t66 -133q0 -59 -21.5 -128t-60 -145.5t-93 -158.5t-117.5 -166 q-129 -76 -261.5 -172t-256 -201.5t-232.5 -215t-189.5 -210t-128 -186.5t-47.5 -146q0 -25 19.5 -40t44.5 -15q49 0 131 50.5t181.5 136.5t212 200.5t225 243.5t218 267t193.5 270q119 66 226.5 103.5t199.5 37.5q47 0 66.5 -31t19.5 -65q0 -90 -43 -191.5t-106.5 -204 t-138 -203t-138 -188.5t-106.5 -158.5t-43 -113.5t31.5 -63.5t60.5 -20.5q23 0 66.5 24.5t97 60.5t110 80t104.5 83t81.5 67.5t40.5 34.5q0 20 -25 25q-14 -10 -64.5 -45t-105.5 -72t-101 -66.5t-53 -29.5q-31 0 -30 20q0 12 31.5 58.5t77.5 115t101.5 156.5t101.5 185 t78 198.5t32 197.5q0 88 -45.5 145.5t-147.5 57.5q-63 0 -141 -21.5t-164 -60.5q84 135 132 249t48 192q0 152 -99.5 220t-260.5 68q-129 0 -278.5 -44t-300 -110.5t-290 -146.5t-246 -151.5t-171 -124.5t-64.5 -70zM413 126q3 1 3 11q0 29 69.5 115t185 199.5t265 240.5 t309.5 238q-88 -104 -181 -203.5t-182 -190t-170 -165t-143.5 -130t-101.5 -86t-47 -30.5q-10 0 -7 1z" />
<glyph unicode="O" horiz-adv-x="1093" d="M-20 219q0 -61 20 -111.5t59 -86t91.5 -55t117.5 -19.5q135 0 276.5 63.5t274.5 169t251 244.5t205 291.5t138 308.5t51 295q0 147 -79.5 222t-227.5 75q-106 0 -217 -35t-214 -90t-192.5 -126t-154.5 -140q-4 -4 -16.5 -17.5t-25.5 -29t-23.5 -30.5t-10.5 -22 q0 -27 16.5 -44t45.5 -17q6 0 31.5 16.5t59 41t70.5 54t69 55t52.5 45t20.5 26.5q0 25 -10.5 28.5t-10.5 20.5q0 18 43 56t115 75t165 64.5t195 27.5q213 0 213 -211q0 -102 -52 -239.5t-138 -286t-198.5 -293t-235.5 -259t-246 -185t-232 -70.5q-104 0 -165.5 61.5 t-61.5 155.5q0 78 28.5 169t79 185t119 185.5t146.5 171t162 141t168 96.5q0 10 -6.5 26.5t-16.5 16.5q-2 0 -10 -4q-96 -39 -188.5 -107.5t-174.5 -154.5t-150.5 -184.5t-118.5 -199t-78.5 -195.5t-28.5 -175z" />
<glyph unicode="P" horiz-adv-x="1316" d="M61 45q0 -16 7.5 -38.5t19.5 -44t27.5 -36t31.5 -14.5q14 0 44 44t62 99.5t57.5 104.5t31.5 59q0 16 -14 12q-6 -4 -21.5 -19t-33 -33.5t-32 -35t-20.5 -22.5l-6 4q0 6 34 56t94 131t141 185.5t178 221.5q113 137 220 255t189 206t132 141t50 61q0 14 -9 46t-19 49 q92 23 174 37t151 14q139 0 198.5 -43t59.5 -113q0 -61 -38.5 -137t-106.5 -155t-157 -153.5t-189 -133t-206.5 -93t-205.5 -34.5q-72 0 -102.5 17t-30.5 42q0 29 17.5 56.5t27.5 37.5q-2 6 -6 11.5t-8 3.5q-8 -6 -21.5 -17.5t-27 -27t-22.5 -36t-9 -40.5q0 -31 18.5 -57.5 t48 -46t69.5 -30t83 -10.5q121 0 236.5 34t218 91.5t188.5 133t147.5 157.5t96.5 167t35 161q0 61 -23.5 112.5t-73 90t-127 60t-188.5 21.5q-139 0 -295 -39.5t-309.5 -102t-294.5 -136.5t-248.5 -143.5t-172 -125t-64.5 -77.5q0 -33 20.5 -54.5t42.5 -21.5q20 0 55 11.5 t77 32t90 46t98 53.5q59 35 116.5 72t103.5 69.5t77.5 57.5t39.5 35q-2 12 -12 14t-20 0q-12 -6 -44 -26.5t-78 -48t-99.5 -59.5t-108.5 -62q-86 -49 -159.5 -84t-102.5 -35q-14 0 -14 10t40.5 39t110.5 68.5t164 87t202.5 95.5t225.5 93t229 80q-41 -45 -113.5 -127 t-161.5 -185.5t-188.5 -222t-193.5 -237.5q-74 -92 -146.5 -192.5t-129 -188.5t-92.5 -154.5t-36 -93.5z" />
<glyph unicode="Q" horiz-adv-x="1126" d="M6 131q0 -29 17.5 -58.5t51.5 -53t83 -38t110 -14.5q96 0 193.5 31t195.5 86q94 -43 185.5 -94t171.5 -105.5t144.5 -107.5t107.5 -96q0 2 9 4t19.5 5t19.5 7t9 14q0 14 -18 33q-29 31 -88.5 76t-137.5 96t-172 103.5t-194 99.5q100 63 194 149t178 186.5t154 209 t120 221t77.5 223.5t27.5 211q0 84 -21.5 143.5t-56 96t-80.5 54t-98 17.5q-109 0 -225.5 -50t-230 -132t-216 -184.5t-179 -205t-123 -196.5t-46.5 -157q0 -10 9.5 -20.5t21.5 -18t25.5 -12.5t23.5 -5t36 33t52.5 74t47 77.5t20.5 45.5q0 12 -3 19t-6 11t-6 8.5t-3 12.5 q0 35 35.5 95t97 132t141.5 146.5t167 135t176 98.5t169 38q35 0 68.5 -11.5t59.5 -37t42 -65.5t16 -97q0 -78 -30.5 -177.5t-85 -211t-129 -226t-159.5 -222t-179.5 -202t-188.5 -161.5q-102 41 -200.5 65.5t-184.5 24.5q-113 0 -164 -37t-51 -86zM88 129q0 23 32 47.5 t109 24.5q72 0 155 -19.5t169 -52.5q-72 -47 -141.5 -72.5t-135.5 -25.5q-80 0 -134 30.5t-54 67.5z" />
<glyph unicode="R" horiz-adv-x="1263" d="M72 45q0 -16 7 -38.5t19.5 -44t27.5 -36t32 -14.5q14 0 43.5 44t61.5 99.5t57.5 104.5t31.5 59q0 16 -14 12q-6 -4 -21.5 -19t-33 -33.5t-31.5 -35t-21 -22.5l-6 4q0 4 22.5 38t63.5 90t97.5 132t123.5 162q18 -86 50 -185.5t80.5 -184.5t114 -141t151.5 -56 q39 0 74.5 17t63.5 40.5t47.5 48.5t29.5 41q-10 25 -33 14q-20 -27 -63 -59.5t-117 -32.5q-41 0 -73 30t-56.5 76t-42 104t-29.5 117.5t-19.5 113t-11.5 88.5q18 -4 37 -6.5t37 -2.5q133 0 266 34t256 91.5t228.5 133t183.5 157.5t123 167t45 161q0 61 -23.5 112.5t-72.5 90 t-127 60t-189 21.5q-139 0 -294.5 -39.5t-309 -102t-295 -136.5t-249 -143.5t-172 -125t-64.5 -77.5q0 -33 20.5 -54.5t42.5 -21.5q20 0 55 11.5t77 32t90.5 46t97.5 53.5q59 35 116.5 72t103.5 69.5t78 57.5t40 35q-2 12 -12.5 14t-20.5 0q-12 -6 -44 -26.5t-78 -48 t-99 -59.5t-109 -62q-86 -49 -159.5 -84t-102.5 -35q-14 0 -14 10t41 39t110.5 68.5t163.5 87t202.5 95.5t224.5 93t231 80q-41 -45 -114 -127t-162 -185.5t-188.5 -222t-193.5 -237.5q-74 -92 -146.5 -192.5t-129 -188.5t-92 -154.5t-35.5 -93.5zM612 647l60 72 q115 137 221 255t189 206t132.5 141t49.5 61q0 14 -9.5 46t-19.5 49q92 23 174 37t152 14q139 0 198.5 -43t59.5 -113q0 -61 -50.5 -140t-135.5 -161t-196.5 -161t-234.5 -140t-251 -99t-242 -38q-33 0 -56.5 4t-40.5 10z" />
<glyph unicode="S" horiz-adv-x="1372" d="M27 111q0 -47 27.5 -93.5t83 -81t136 -56t187.5 -21.5q119 0 218 26.5t171 69.5t111.5 96t39.5 107q0 63 -24.5 128.5t-61 130t-78.5 129t-79 125t-61.5 117t-24.5 105.5q0 53 68.5 118.5t179 133t249 132t276.5 115t263 81t209 30.5q74 0 99.5 -17.5t25.5 -45.5 q0 -43 -38 -94.5t-84 -96.5t-87 -75.5t-49 -30.5t-12.5 3t-8.5 8t-10 8t-18 3q-14 0 -54.5 -25.5t-92.5 -64.5t-109.5 -87t-105.5 -93t-78.5 -81t-30.5 -50q0 -29 19.5 -46.5t41.5 -17.5q18 0 84 41t152 107.5t182 149.5t176 166t132 159t52 127q0 59 -56 100t-173 41 q-121 0 -263.5 -26.5t-285.5 -73.5t-275 -111.5t-234.5 -141.5t-164 -162t-61.5 -173q0 -72 47 -152.5t103.5 -165.5t103.5 -168t47 -157q0 -78 -40 -136t-104.5 -98t-143.5 -60.5t-154 -20.5q-72 0 -137.5 12t-115 34.5t-78 54.5t-28.5 69t26.5 75.5t63.5 73.5t76 63.5 t63 45.5q-4 29 -36 20q-25 -12 -68 -41.5t-85 -69.5t-72.5 -85t-30.5 -86z" />
<glyph unicode="T" horiz-adv-x="1755" d="M82 1251q0 -16 18.5 -27.5t46.5 -11.5q6 0 63.5 12.5t152 32t221.5 46t274.5 55t309 57.5t325.5 53q-63 -72 -133 -156.5t-139.5 -170.5t-132 -168t-109.5 -144q-51 -66 -114.5 -151.5t-130 -177.5t-129 -182.5t-113 -166t-80 -128t-29.5 -68.5q0 -47 17.5 -81t54.5 -34 q18 0 29.5 11.5t19.5 28t14 33.5t14 28q4 6 32 36.5t66 72.5t82 89t81.5 89t66.5 73t35 39q2 10 -5 16t-16 6q-6 -6 -34.5 -27.5t-61.5 -47t-61.5 -49t-36.5 -29.5l-8 4q6 8 49 70.5t109.5 153.5t145.5 197.5t154 203.5q74 94 156 188t159 181t142.5 163t106.5 131 q168 20 324.5 33.5t291.5 13.5q55 0 106.5 -1t90.5 -5t62.5 -11t23.5 -20q0 -18 -41 -34.5t-90 -31.5t-90 -26.5t-41 -17.5q0 -12 13 -17.5t30 -5.5q8 0 56 9.5t103.5 26t100.5 37.5t45 44t-8.5 44.5t-30.5 37.5q-12 8 -40 16.5t-77 14.5t-124 9t-179 3q-111 0 -228.5 -7 t-240.5 -20q2 4 2 11q0 23 -9 37t-38 14q-16 0 -45 -21.5t-68 -60.5q-172 -23 -332.5 -48.5t-289.5 -49t-216 -41t-112 -23.5l-2 8q4 2 25.5 13.5t46 24.5t44 25.5t19.5 18.5q0 27 -28 27q-4 0 -55.5 -16.5t-125 -42t-158.5 -58.5t-158 -63.5t-121 -56t-48 -40.5z" />
<glyph unicode="U" horiz-adv-x="1665" d="M45 903q0 -20 13.5 -37.5t35.5 -17.5q10 0 49 22.5t90.5 56.5t108.5 74.5t105.5 77.5t80 64.5t31.5 36.5q0 18 -14.5 27.5t-14.5 19.5q0 12 40 40.5t103.5 64.5t142.5 75t155 70.5t142.5 52t105.5 20.5q20 0 33.5 -10t13.5 -33q0 -49 -41 -116.5t-105.5 -150.5 t-146.5 -177t-164 -197q-72 -90 -138.5 -182t-116.5 -186.5t-81 -187.5t-31 -183q0 -55 13.5 -102.5t41 -82t70.5 -55t103 -20.5q63 0 144 36t170 95t183.5 139t186.5 168q-57 -113 -92 -197q-31 -76 -31 -111v-7q2 -16 11 -37t23.5 -40t32 -31.5t33.5 -10.5q14 2 39 49 t49.5 105.5t44 109.5t25.5 62q-4 16 -16 12q-6 -6 -19.5 -23.5t-28 -37t-27 -38t-18.5 -24.5l-8 2q0 6 29 60.5t78 142.5t116.5 201.5t149.5 240.5q96 150 160.5 247t103.5 154.5t54.5 83t15.5 33.5q-4 33 -46 45q-22 7 -47 7q-21 0 -44 -5q-37 -49 -72 -106t-78 -131 t-100.5 -171t-137.5 -226q-23 -37 -45 -75t-45 -79q-43 -53 -104.5 -117.5t-132 -132t-147 -131t-150.5 -114t-139.5 -80t-114.5 -29.5q-72 0 -110 40t-38 109q0 84 32 173t85 181.5t121 184.5t141 182q74 92 146.5 180t134 172t105.5 162t61 148q2 6 2 22q0 61 -49.5 98 t-106.5 37q-61 0 -140 -23.5t-168 -63.5t-183.5 -92t-184.5 -109q-96 -61 -183 -125t-152.5 -119t-104.5 -97t-39 -63z" />
<glyph unicode="V" horiz-adv-x="1425" d="M92 903q0 -18 20.5 -36.5t39.5 -18.5q6 0 38.5 21.5t76.5 54t94.5 72.5t92.5 76t69.5 63.5t27.5 35.5q0 25 -19.5 35.5t-19.5 20.5t60.5 55t179.5 117q59 35 120.5 63.5t114.5 48t93 29.5t57 10q57 0 57 -63q0 -45 -37 -125t-93 -175t-123 -198.5t-126 -197.5 q-41 -63 -91 -143.5t-101.5 -164.5t-101.5 -165.5t-89 -148.5t-62.5 -112t-23.5 -53q0 -27 23.5 -44t40.5 -17q6 0 32.5 21.5t66.5 56t89 78.5t98 89t94.5 86t77.5 70q63 55 169 157.5t238 228.5t283.5 266.5t307.5 273.5q123 104 246.5 201.5t240.5 171t222.5 117.5 t193.5 44q109 0 174 -55q41 -35 53 -66q16 12 27.5 18.5t7.5 20.5q-37 72 -111.5 117t-156.5 45q-84 0 -190.5 -43t-226.5 -116.5t-251 -174t-264 -213.5q-119 -100 -236.5 -207.5t-230.5 -212t-216.5 -205t-192.5 -186.5t-159.5 -154.5t-115.5 -111.5l-23 6q8 12 46 74.5 t90.5 150t111 186.5t111.5 183q51 84 101 163t89 150.5t63.5 138t24.5 126.5q0 31 -15 59.5t-42 50t-59.5 34.5t-69.5 13q-94 0 -205.5 -48t-224.5 -121.5t-219.5 -159.5t-187.5 -164t-130 -133.5t-49 -65.5z" />
<glyph unicode="W" horiz-adv-x="2265" d="M59 903q0 -18 20.5 -36.5t39.5 -18.5q6 0 38.5 21.5t77 54t94.5 72.5t92 76t69.5 63.5t27.5 35.5q0 25 -19.5 35.5t-19.5 20.5t60.5 55t179.5 117q59 35 120.5 63.5t115 48t93 29.5t56.5 10q57 0 57 -63q0 -45 -37 -125t-93 -175t-122.5 -198.5t-126.5 -197.5 q-41 -63 -91 -143.5t-101 -164.5t-101.5 -165.5t-89.5 -148.5t-62.5 -112t-23.5 -53q0 -27 23.5 -44t40.5 -17q6 0 33.5 20.5t68.5 54t90 75.5t99.5 85t96.5 83t79 71q33 29 80 74t99 97t104.5 104t94.5 95t70.5 72t32.5 35l10 -6q-4 -8 -28.5 -66.5t-53 -141.5t-52 -178 t-23.5 -177q0 -166 77.5 -269.5t212.5 -103.5q66 0 162 37t204 103.5t213 158.5t190 202.5t138.5 235.5t53.5 256q0 78 -33 142.5t-85 110.5t-117.5 71.5t-133.5 25.5q-23 0 -50.5 -7t-41.5 -13q0 -8 2 -21.5t12 -17.5q27 14 84 14q43 0 92.5 -21.5t92.5 -63.5t70.5 -104.5 t27.5 -144.5q0 -106 -48 -216.5t-126 -213t-174 -192.5t-194.5 -157.5t-187.5 -106.5t-151 -39q-92 0 -137 60.5t-45 142.5q0 84 19.5 176t50 181t64.5 171t65 146.5t50 107.5t19 53q0 35 -30.5 57.5t-55.5 22.5q-12 0 -57 -41t-103.5 -99.5t-123 -125t-115.5 -115.5 t-118.5 -111.5t-131 -119t-112 -99.5t-60.5 -53l-22 6q8 12 46 74.5t90 150t110.5 186.5t111.5 183q51 84 101.5 163t89 150.5t63.5 138t25 126.5q0 31 -15.5 59.5t-42 50t-59.5 34.5t-70 13q-94 0 -205.5 -48t-224.5 -121.5t-219.5 -159.5t-187 -164t-130 -133.5 t-49.5 -65.5z" />
<glyph unicode="X" horiz-adv-x="1476" d="M-133 -63q4 -10 8 -17.5t12.5 -10.5t23.5 1t42 18q68 37 151.5 95.5t178 132t198 158.5t211.5 178q-53 -88 -88 -172t-35 -156q0 -96 48.5 -157.5t158.5 -61.5q82 0 181.5 28.5t201 73.5t195.5 98.5t166.5 102.5t116.5 86t44 47q0 18 -13 27.5t-32 9.5q-31 -29 -87 -71 t-128.5 -87t-157.5 -90t-174.5 -81t-178.5 -58.5t-167 -22.5q-47 0 -78.5 16.5t-31.5 69.5q0 33 33.5 101.5t90 159.5t129 200t150.5 223q150 123 296.5 235.5t278.5 198.5t246.5 137.5t200.5 51.5q53 0 98.5 -14.5t73.5 -40.5q45 -39 54 -66q18 12 29 18.5t5 20.5 q-37 72 -111.5 117t-154.5 45q-70 0 -165 -39t-208.5 -105.5t-240.5 -156.5t-262 -193q84 127 139 239.5t55 211.5q0 31 -15.5 59.5t-41 50t-59 34.5t-68.5 13q-94 0 -207 -48t-225.5 -121.5t-218 -159.5t-187.5 -164t-131 -133.5t-49 -65.5q0 -18 20.5 -36.5t40.5 -18.5 q6 0 38 21.5t76 54t94 72.5t92 76t70 63.5t28 35.5q0 25 -19.5 35.5t-19.5 20.5t60.5 55t178.5 117q59 35 121 63.5t115 48t93 29.5t56 10q57 0 58 -63q0 -45 -36 -125t-91.5 -177.5t-122 -199.5t-129.5 -194l-45 -68q-147 -121 -290.5 -239.5t-270.5 -224t-234.5 -189.5 t-183.5 -133z" />
<glyph unicode="Y" horiz-adv-x="1622" d="M66 -623q0 -43 15 -72.5t38.5 -49t51.5 -27.5t54 -8q72 0 159 34.5t181 96t193.5 144.5t197 179.5t189.5 201t172 206.5q49 63 99 136t102 151q25 -10 39 -28.5t26 -35.5q10 -4 21.5 3t9.5 18q-10 20 -26.5 42.5t-45.5 39.5q76 121 146.5 245.5t127 236t95.5 201 t51 142.5q55 33 63 33q4 10 -2 19t-18 13q-27 0 -82 -30.5t-129 -80.5t-163 -116.5t-181 -139.5t-184 -146.5t-172 -137.5q-119 -94 -256.5 -199.5t-262 -194.5t-222 -147.5t-136.5 -58.5q-12 0 -16 5t-4 9q0 33 39.5 93.5t104.5 142.5t147.5 178t168.5 198.5t169 205 t147.5 196.5t104.5 174t40 137q0 41 -6 78t-21.5 66t-44 45t-71.5 16q-68 0 -155 -36.5t-168 -86t-145.5 -97.5t-88.5 -68q-12 -10 -25.5 0t-27.5 10q-4 0 -26 -22.5t-51.5 -57.5t-62 -76t-60.5 -77t-46.5 -62.5t-18.5 -30.5q0 -16 20.5 -31.5t31.5 -15.5q6 0 47 44 t98 103.5t121.5 123t118.5 102.5q51 39 114.5 79t128 72.5t124 52t106.5 19.5q20 0 36.5 -9t16.5 -30q0 -72 -69.5 -179.5t-174 -234.5t-225.5 -265t-225.5 -269t-174 -246t-69.5 -194q0 -55 30.5 -87t69.5 -32t100.5 29.5t137.5 78.5t161 112.5t172 132.5t170 137.5 t152 127.5q63 53 145.5 118t170.5 131.5t176 131t166 117.5q-25 -66 -66 -152t-89 -178t-102.5 -183t-105.5 -171q-143 -10 -297.5 -64.5t-304 -140.5t-285 -192.5t-238 -219t-162.5 -224t-60 -204.5zM100 -639q0 80 56.5 182.5t151.5 210t222 213t269.5 191.5t293 144.5 t289.5 72.5q-18 -29 -37.5 -58.5t-39.5 -60.5q-82 -123 -180.5 -244t-203 -231.5t-209 -205.5t-198.5 -166t-173 -110.5t-132 -39.5q-70 0 -89.5 32.5t-19.5 69.5z" />
<glyph unicode="Z" horiz-adv-x="1632" d="M123 -23q0 -23 12 -37t35 -14q18 0 54 11.5t75 25.5t75 28.5t58 20.5q154 51 309.5 70.5t317.5 19.5q121 0 240.5 -9t238.5 -25q6 4 13.5 11t7.5 15q0 10 -7.5 15.5t-15.5 9.5q-80 25 -199.5 42t-255.5 17q-104 0 -211.5 -8t-207 -22.5t-186.5 -35t-148 -44.5 q86 82 190.5 175t214 186t216 182t198.5 165q209 172 421 334t435 320q14 -4 27.5 0t27.5 4q29 0 60.5 9t31.5 21q0 4 -10 7.5t-24.5 4.5t-29.5 2t-26 1q23 16 44.5 43.5t21.5 44.5q0 29 -19 28q-14 0 -42.5 -14t-59.5 -33.5t-57.5 -38t-38.5 -26.5q-39 0 -106.5 2t-149.5 4 t-173 5t-179.5 5t-167.5 1h-136v11q12 2 39 10.5t54.5 17.5t49 20.5t21.5 23.5q0 20 -20 21q-23 0 -87.5 -9.5t-146.5 -25t-172 -34.5t-164.5 -40.5t-124 -42t-49.5 -39.5q0 -23 19.5 -32t36.5 -9q119 0 236.5 12.5t236.5 20.5q227 14 462.5 23.5t464.5 11.5 q-51 -35 -145 -102.5t-214 -156.5t-258 -193.5t-278 -215.5q-150 -119 -290 -234.5t-252.5 -214t-186 -170t-90.5 -104.5q-8 -14 -12 -28.5t-4 -43.5z" />
<glyph unicode="[" horiz-adv-x="1024" d="M242 -307h356l25 59h-121q-84 0 -45 96l569 1420q23 55 49.5 73.5t75.5 18.5h117l24 59h-356z" />
<glyph unicode="\" horiz-adv-x="1122" d="M119 1628l792 -1687h95l-793 1687h-94z" />
<glyph unicode="]" horiz-adv-x="1024" d="M59 -307h357l694 1726h-356l-25 -59h121q84 0 45 -96l-569 -1420q-23 -55 -49.5 -73.5t-75.5 -18.5h-117z" />
<glyph unicode="^" horiz-adv-x="1361" d="M74 1069h133l475 451l473 -451h139l-528 567h-164z" />
<glyph unicode="_" horiz-adv-x="1003" d="M-86 -88v-94h1004v94h-1004z" />
<glyph unicode="`" horiz-adv-x="475" d="M96 1475q14 -4 46 -13.5t68 -27t66.5 -44t42.5 -65.5q8 -6 19 -2q10 2 6 14q-10 31 -29.5 59.5t-43 55.5t-48 52.5t-43.5 49.5q-10 10 -20 5t-15 -7q-8 -2 -16 -11t-15.5 -21.5t-12.5 -24.5t-5 -20z" />
<glyph unicode="a" horiz-adv-x="733" d="M-6 61q0 -31 13 -55t34 -24q14 0 45 21.5t67.5 51t74.5 63.5t64.5 58.5t58.5 52t59.5 51t47 40t21.5 16.5q4 0 7 -4t1 -10q-4 -8 -11 -47t-7 -66q0 -53 16.5 -90t53.5 -37q25 0 57.5 17.5t64 42t61.5 51t52 45.5q20 18 51 49.5t60.5 63.5t52.5 57.5t27 31.5q10 23 3 33 t-14 10q-8 -10 -26.5 -30.5t-45 -47t-57 -58.5t-61.5 -62q-57 -53 -108.5 -94t-73.5 -41q-16 0 -21.5 12t-5.5 28q0 20 8 47t18.5 54.5t18.5 53.5t8 44q0 29 -15 41t-40 12q-10 0 -31 -10q12 20 26.5 47t26 52.5t18.5 47t7 33.5q0 47 -27.5 70t-68.5 23q-49 0 -106.5 -34 t-114 -88.5t-108.5 -123t-92 -140t-64.5 -139t-24.5 -119.5zM57 72q0 33 33 94t92 139q45 59 98.5 118.5t104.5 105.5t92 75t62 29q18 -1 18 -19q0 -8 -14.5 -34.5t-31.5 -56t-33.5 -55.5t-20.5 -30q-8 -10 -16.5 -17t-8.5 -11t10.5 -10.5t24.5 -10.5q-31 -27 -65.5 -59.5 t-71.5 -65.5q-35 -31 -78 -68.5t-83 -69.5t-69.5 -53.5t-36.5 -21.5q-6 0 -6 21z" />
<glyph unicode="b" horiz-adv-x="636" d="M-12 96q0 -68 44 -102.5t109 -34.5q63 0 131 37t130.5 92t113.5 119.5t82 118.5q14 2 26.5 5t18.5 3q25 4 10 20q-4 4 -9 18.5t-11 30.5q0 4 1 7.5t1 7.5q0 29 -12.5 45t-51.5 16q-29 0 -40 -21.5t-11 -56.5q0 -27 7.5 -36t11.5 -13q0 -16 -21.5 -48t-55.5 -70.5 t-77 -79.5t-87 -74t-86 -54.5t-73 -21.5q-23 0 -36 15.5t-13 43.5q0 25 16.5 74t39 100.5t46 95.5t35.5 62q59 25 142.5 75t176.5 117.5t193.5 148.5t194.5 167q90 82 170 168t139.5 167t94 155t34.5 133q0 41 -16.5 64.5t-50.5 23.5q-55 0 -142.5 -51.5t-190 -138.5 t-216 -201.5t-223 -240.5t-208 -257t-174 -250t-119.5 -217t-44 -162zM281 473q84 121 180 242t182 225q31 37 84 94.5t114.5 120t128 125.5t126 113.5t106.5 82t72 31.5q18 0 27.5 -7t9.5 -30q0 -35 -35 -90t-94.5 -124.5t-136 -148.5t-162.5 -159q-90 -84 -181.5 -161.5 t-172 -142t-146.5 -110t-102 -61.5z" />
<glyph unicode="c" horiz-adv-x="532" d="M31 168q0 -84 47 -128t121 -44q35 0 75.5 17.5t86 46t91.5 67.5t91 80q72 66 131 130t94 107q10 16 5 34t-23 18q-29 -39 -92.5 -106.5t-137.5 -137.5q-43 -39 -87 -75t-85 -63.5t-76.5 -44t-62.5 -16.5q-33 0 -52.5 23.5t-19.5 64.5q0 76 37 155t89 144.5t106.5 107.5 t91.5 42q16 0 16 -10v-25q0 -12 -4 -26.5t-4 -24.5q0 -14 6 -15q16 0 41 18.5t25 59.5q0 12 -11.5 34t-28 42.5t-36 34.5t-35.5 14q-41 0 -107.5 -46t-132 -120.5t-112.5 -169t-47 -188.5z" />
<glyph unicode="d" horiz-adv-x="827" d="M-27 41q0 -41 15.5 -57.5t29.5 -16.5q29 0 85.5 29t131 79t164.5 119.5t187 149.5q-16 -74 -24.5 -143.5t-8.5 -134.5q0 -143 40 -218t103 -75q23 0 43.5 9t34.5 23q4 8 1 16.5t-13 6.5q-10 -8 -19.5 -13t-31.5 -5q-41 0 -60.5 63.5t-19.5 161.5t17.5 199.5t51.5 205.5 q147 127 290 262.5t256.5 257t183 218t69.5 145.5q0 109 -113 109q-76 0 -153.5 -41t-153 -112t-147.5 -167t-133.5 -206.5t-111.5 -230.5t-81 -239q-96 -84 -185 -155.5t-162 -124t-125 -83t-75 -30.5q-10 0 -10 18q0 29 28.5 81.5t74 113.5t100.5 123.5t108.5 114t97.5 84 t68 32.5q25 0 27 -11t2 -21q0 -8 9 -11.5t20 -3.5q10 0 22 3t12 24q0 47 -32.5 74.5t-77.5 27.5t-102.5 -33.5t-117 -88t-115.5 -124t-101 -142.5t-72 -141.5t-27 -121.5zM735 547q57 154 139 297t172.5 255.5t182.5 180.5t170 68q23 0 35 -9.5t10 -19.5q0 -43 -62.5 -125 t-162 -187.5t-226.5 -225t-258 -234.5z" />
<glyph unicode="e" horiz-adv-x="573" d="M31 168q0 -84 47 -128t121 -44q43 0 91 17.5t97 47t98.5 68.5t96.5 80q92 82 147 144t80 91q10 16 5 34t-23 18q-35 -47 -104 -119t-148 -141q-43 -37 -87 -70t-87 -58.5t-83 -40t-73 -14.5t-52.5 23.5t-19.5 64.5q0 37 14.5 80t36.5 86q47 12 116 41t131.5 66 t107.5 76.5t45 76.5q0 33 -26.5 47.5t-45 26.5t-38 31.5t-48.5 19.5q-41 0 -107.5 -46t-132 -120.5t-112.5 -169t-47 -188.5zM244 399q27 39 56.5 74t59 60.5t56 41t45.5 15.5q33 0 42 -10.5t9 -24.5q0 -10 -27.5 -32.5t-67.5 -47t-87 -46t-86 -30.5z" />
<glyph unicode="f" horiz-adv-x="505" d="M-465 -379v-24q0 -27 5 -55.5t19.5 -51t36 -38t54.5 -15.5q53 0 110.5 44t110.5 105.5t97 126t69 105.5q104 176 203.5 361.5t195.5 367.5l226 -23q10 -2 19 7.5t9 19.5q0 8 -10 8q-8 0 -12 2q-12 2 -37 7t-54.5 10.5t-60.5 9.5t-55 4q66 123 123 238.5t121 238.5 q12 25 44.5 82t72.5 114.5t82 101.5t73 44q23 0 29 -14.5t6 -32.5q0 -20 -8.5 -44t-19.5 -45.5t-19.5 -37.5t-8.5 -23q0 -10 18.5 -33.5t29.5 -23.5q6 0 16 21.5t12 25.5q18 16 47 39t54 25q6 27 -23 35q-16 -6 -29.5 -13.5t-27.5 -15.5q2 20 0 51t-11.5 59.5t-27 49 t-45.5 20.5q-47 0 -95.5 -30.5t-97.5 -83t-96 -121t-92 -142.5q-43 -72 -81 -142.5t-71 -133t-57.5 -114.5t-42.5 -89q-29 -2 -63.5 -6t-68.5 -10.5t-66 -13.5t-56 -13q-10 -2 -19.5 -8t-9.5 -17q0 -10 7.5 -19t17.5 -7q20 6 50 12t61.5 11t61.5 8.5t54 3.5 q-10 -23 -32.5 -69t-52.5 -107.5t-66.5 -135t-77.5 -149.5q-57 -109 -117.5 -215.5t-118 -191.5t-107.5 -138t-83 -53q-20 0 -32.5 12t-19 28.5t-8.5 36t-2 33.5q0 70 27 145t63 132q-4 18 -16 18q-20 0 -41.5 -34.5t-40 -80.5t-32 -89t-13.5 -60z" />
<glyph unicode="g" horiz-adv-x="614" d="M-1198 -1049q0 -57 39 -87.5t86 -30.5q92 0 208.5 45t247 123.5t267.5 186t268 232.5q129 123 245 253t210 264q12 2 23.5 3t21.5 1t23.5 -1t25.5 -1q33 0 33 16q0 29 -29 29q-10 0 -29.5 -1t-38.5 -3q51 78 94.5 156.5t73 151t46 138.5t16.5 115t-27 49q-2 0 -13 3 t-22 3q-10 0 -18 -2t-12 -12q-16 -35 -52 -87.5t-82.5 -111.5t-97.5 -118.5t-100 -106.5t-89 -77t-65 -30q-6 0 -6 21q0 20 14.5 55t39 77t58.5 88t72 93q41 51 86.5 98t87.5 83t80.5 57.5t67.5 21.5q43 0 68 -39q4 16 4 25q0 37 -30 55.5t-71 18.5q-57 0 -118.5 -34 t-122 -88.5t-114.5 -123t-95 -140t-65.5 -139t-24.5 -119.5q0 -31 13 -55t36 -24q31 0 84 37.5t114.5 98t125 133.5t116.5 142q-14 -41 -41.5 -101.5t-59.5 -123t-62.5 -116.5t-49.5 -81q-104 -23 -220 -60.5t-235.5 -89.5t-237.5 -114.5t-226 -132.5 q-115 -74 -213.5 -153.5t-171 -159.5t-114.5 -159t-42 -151zM-1137 -1040q0 61 39 131.5t107.5 144.5t161 147.5t198.5 143.5q104 70 219 132t227.5 113.5t219 89.5t198.5 58q-45 -63 -137 -164.5t-212 -217.5t-254 -233.5t-263 -211.5t-241.5 -153.5t-188.5 -59.5 q-35 0 -54.5 23.5t-19.5 56.5z" />
<glyph unicode="h" horiz-adv-x="983" d="M-70 6q0 -23 11.5 -33t27.5 -10q12 0 52 34t96.5 85t124 112.5t137.5 116.5q86 70 166 118t139 48q35 0 51.5 -23.5t16.5 -52.5q0 -25 -2 -61.5t-3.5 -80.5t-3.5 -92t-2 -93q0 -53 32 -79t63 -26q29 0 60.5 18.5t59 42t48 45t26.5 27.5q4 14 -8 23q-6 -6 -20.5 -18.5 t-32 -24.5t-36 -21.5t-34.5 -9.5q-20 0 -28.5 30t-9.5 75v31q0 32 1 67q2 53 2 98q0 92 -45 137.5t-123 45.5q-72 0 -158.5 -47.5t-172.5 -112.5q-61 -47 -119 -98.5t-102 -94.5t-71.5 -71.5t-31.5 -32.5l-4 6q27 53 76 133t114 178q59 25 142.5 75t176.5 117.5t193.5 148.5 t194.5 167q90 82 170 168t139.5 167t94 155t34.5 133q0 41 -16.5 64.5t-52.5 23.5q-84 0 -187.5 -64.5t-216.5 -171t-228.5 -244t-223 -281.5t-201.5 -287.5t-164 -260.5t-111 -197.5t-41 -101.5zM281 473q84 121 180 242t182 225q31 37 83 94.5t114.5 120t129 125.5 t126 113.5t106.5 82t72 31.5q18 0 27.5 -7t9.5 -30q0 -35 -35 -90t-94.5 -124.5t-136 -148.5t-162.5 -159q-90 -84 -181.5 -161.5t-172 -142t-146.5 -110t-102 -61.5z" />
<glyph unicode="i" d="M25 123q0 -45 22.5 -61.5t52.5 -16.5q47 0 97.5 25.5t85.5 46.5q16 10 40.5 28.5t48 37t43 35t25.5 22.5q2 12 -4 18t-12 6q-18 -16 -56 -41.5t-79 -52.5q-45 -27 -87 -46.5t-69 -19.5q-12 0 -18 9.5t-6 17.5q0 25 29.5 68t60.5 82q14 18 34.5 39.5t39 41t32.5 36 t21 22.5q10 14 16 47t6 49q0 14 -16.5 27.5t-40.5 13.5q-18 0 -35.5 -10t-32 -25.5t-24 -32t-9.5 -26.5q0 -20 -20 -45q-4 -6 -27.5 -38t-50 -76t-47 -93t-20.5 -88zM385 760q0 -10 8 -21.5t19.5 -21.5t22.5 -17.5t18 -7.5q6 0 14 7.5t16.5 16.5t13.5 18.5t5 13.5 q0 10 -4 31.5t-9 31.5q-4 20 -43 20q-23 0 -42 -25.5t-19 -45.5z" />
<glyph unicode="j" horiz-adv-x="296" d="M-1305 -895q0 -57 39 -88t86 -31q109 0 225.5 46t231.5 124t226.5 176.5t212 205t184.5 209.5t145 190q10 2 22.5 3t22.5 1t23.5 -1t25.5 -1q33 0 33 16q0 29 -29 29q-10 0 -29.5 -1t-37.5 -3q51 78 94 156.5t72.5 151t46 138.5t16.5 115t-26 49q-29 0 -49.5 -18.5 t-36 -47t-25.5 -63.5t-21 -68q-12 -41 -39.5 -102.5t-60.5 -123t-63.5 -115.5t-49.5 -81q-96 -20 -225 -66t-267 -111.5t-271.5 -147.5t-239 -171t-171 -183.5t-65.5 -186.5zM-1243 -887q0 70 61.5 152t160.5 165t224 163.5t253 147t247 114t203 65.5q-45 -63 -121 -153.5 t-171 -188.5t-200.5 -196.5t-210 -175t-201 -125t-171.5 -48.5q-35 0 -54.5 24.5t-19.5 55.5zM297 860q0 -10 8 -21.5t19.5 -21.5t22.5 -17t18 -7q6 0 14 7t16 16t13.5 18.5t5.5 13.5q0 10 -4 31.5t-9 31.5q-4 23 -43 23q-23 0 -42 -26.5t-19 -47.5z" />
<glyph unicode="k" horiz-adv-x="749" d="M-74 6q0 -16 10.5 -29.5t28.5 -13.5q41 76 87 148.5t93 144.5q37 0 78 4t84 10q27 -10 39 -22q37 -35 56.5 -82t39 -91t48 -75t81.5 -31q31 0 59.5 14.5t53.5 35t46.5 44t37.5 39.5v11q0 6 -10 12q-10 -10 -24.5 -23.5t-31 -24.5t-34 -18.5t-31.5 -7.5q-63 0 -99 27.5 t-60.5 64.5t-43 74t-49.5 57q-10 2 -14 9q76 14 148.5 36.5t130 50t92 58.5t34.5 64q0 18 -9 44.5t-25.5 51t-39 41t-47.5 16.5q-43 0 -103 -26.5t-119.5 -63.5t-109 -75t-67.5 -58q45 66 90 128t92 126q154 66 304.5 143.5t281.5 186.5q51 41 110.5 97t111.5 120.5t87 134 t35 141.5q0 16 -10 34.5t-25.5 35t-33 27t-33.5 10.5q-70 0 -151 -43t-167 -116t-175 -169t-174 -202.5t-164 -216t-146.5 -211t-120.5 -186.5t-86 -140q-10 -16 -36 -61.5t-52.5 -95.5t-47 -95t-20.5 -64zM195 315q20 14 79.5 50t130 74t135 67t93.5 29q61 -1 61 -58 q0 -25 -59.5 -52.5t-140 -52t-165.5 -41t-134 -16.5zM209.5 292q-8.5 1 7.5 1q11 0 19 -2q-18 0 -26.5 1zM489 754q23 33 60 81t83 104t99 118.5t109 124.5q59 63 119.5 122.5t117 104.5t106.5 71.5t87 26.5t37 -37q0 -51 -33 -110.5t-80 -115.5t-99.5 -105t-88.5 -80 q-117 -98 -247 -172t-270 -133z" />
<glyph unicode="l" horiz-adv-x="399" d="M61 113q0 -45 21.5 -83t81.5 -38q74 0 127 49q0 2 1 5t1 7t-1 8.5t-9 1.5q-32 -28 -79 -28h-3q-41 0 -55.5 21.5t-14.5 49.5q0 31 14.5 79t34 98.5t40 96.5t34.5 75q37 33 102.5 87t146.5 122.5t170 148.5t175 164q76 74 143.5 146.5t118.5 139t81 126t30 104.5 q0 33 -20.5 59.5t-61.5 26.5q-90 0 -196.5 -74.5t-216.5 -195.5t-216.5 -271.5t-194.5 -304t-151.5 -293t-89.5 -235.5q-12 -47 -13 -92zM313 571q23 43 62 105.5t89 133.5t108.5 146.5t120 149.5t123 139.5t117.5 114.5t105 77.5t84 28.5q16 0 19.5 -11.5t3.5 -27.5 q0 -18 -27.5 -61t-74 -99.5t-108 -123t-128.5 -129.5q-74 -72 -149.5 -141.5t-143.5 -129t-121 -104.5t-80 -68z" />
<glyph unicode="m" horiz-adv-x="1163" d="M-59 66q0 -8 10 -18.5t23.5 -20t24.5 -15.5t15 -6t43 41t98.5 101.5t133 131t146.5 131t137.5 101.5t105.5 41q29 0 29 -29q0 -12 -14.5 -43.5t-37 -75t-50 -91.5t-53.5 -94t-47.5 -84t-29.5 -58q-6 -12 5.5 -28.5t27.5 -29t32.5 -17.5t22.5 5q31 55 83 121t112 127 q70 72 133 123t94 51q20 0 21 -29q0 -41 -14.5 -91t-33 -100t-33 -99.5t-14.5 -85.5q0 -72 41 -72q14 0 41 10t52.5 23.5t44 29t18.5 27.5q0 6 -2 13t-8 7q-8 0 -21.5 -11t-19.5 -11t-6 12q0 2 11 42t25.5 94.5t25.5 110.5t11 91q0 53 -18.5 78t-63.5 25q-51 0 -110.5 -35 t-113.5 -81t-94 -89t-52 -60q10 16 32.5 55.5t44 83.5t38 84t16.5 62q0 43 -34 65.5t-69 22.5q-53 0 -121.5 -35t-140 -86t-140.5 -108.5t-124 -102.5q23 33 48.5 71t46 69.5t33.5 53t13 25.5q0 12 -28.5 20.5t-53.5 8.5q-10 0 -34.5 -31.5t-57 -79t-68.5 -103.5 t-64.5 -107.5t-48 -87t-19.5 -43.5z" />
<glyph unicode="n" horiz-adv-x="835" d="M-68 141q0 -8 10.5 -18t24 -19.5t24.5 -15.5t15 -6q2 0 27.5 21.5t68.5 55.5t97.5 78t115.5 89q57 43 117 84t115 72.5t103 51t83 19.5q29 0 29 -29q0 -12 -16.5 -47t-40 -82t-51 -101t-51 -105.5t-40 -95.5t-16.5 -68q0 -33 22.5 -59.5t34.5 -26.5t37 14t50.5 32.5 t44 35t18.5 22.5t-2 13t-11 7q-12 0 -30.5 -11t-28.5 -11t-10 12q0 2 13 30t34.5 71t45 96t45 103t35 93t13.5 68q0 43 -33.5 65.5t-68.5 22.5q-66 0 -147 -35t-164 -86t-159.5 -108.5t-131.5 -102.5q23 33 44 66t38.5 59.5t27.5 43t10 20.5q0 12 -12 27.5t-29 15.5 q-10 0 -35.5 -24.5t-58.5 -62.5t-69.5 -83t-67.5 -85t-50.5 -68.5t-19.5 -37.5z" />
<glyph unicode="o" horiz-adv-x="618" d="M10 166q0 -68 44 -101.5t110 -33.5q63 0 130.5 37.5t130 93t114 120t82.5 117.5q14 2 26 5.5t19 3.5q24 0 10 18q-4 4 -9 19.5t-12 31.5v12q0 68 -30.5 97.5t-69.5 29.5q-27 0 -59.5 -8t-46.5 -8q-6 0 -11.5 7t-11.5 16.5t-12 16.5t-17 7q-29 0 -67.5 -24.5t-81.5 -65.5 t-85 -92t-77 -104.5t-55.5 -104.5t-20.5 -90zM104 135q0 33 21.5 78t58.5 92t84 93t97.5 82t101.5 58.5t94 22.5q21 0 21 -8q0 -4 -19.5 -24.5t-19.5 -55.5q0 -27 7 -35t11 -12q0 -16 -21.5 -48t-57.5 -71t-80 -80t-88 -73.5t-84 -54t-68 -21.5q-57 0 -58 57z" />
<glyph unicode="p" horiz-adv-x="731" d="M-496 -739q0 -45 18.5 -78t39.5 -33q16 0 76.5 78t143.5 196.5t176 259t175 265.5q27 -4 60 -4h57q61 0 134 25.5t136.5 57t109.5 61.5t54 38q16 12 16 25q0 12 -10 12q-6 0 -14 -6q-10 -6 -28.5 -13.5t-39 -15.5t-39 -16.5t-26.5 -12.5l-4 13q10 6 38.5 39.5t58.5 81 t52.5 98.5t22.5 92q0 162 -170 162q-4 0 -6.5 -1t-6.5 -1q53 90 84 148.5t31 70.5t-14 12q-20 0 -39 -17.5t-35 -37.5q-10 -14 -49 -68.5t-94 -136.5q-98 -41 -204 -131t-206 -208t-190.5 -253t-159 -265t-108.5 -245t-40 -192zM-444 -705q0 53 34.5 147.5t96 210.5 t141.5 241.5t170 240.5t185.5 209t183.5 145q-70 -104 -150 -226t-156 -243q-51 -82 -107 -171t-109.5 -175t-102.5 -162.5t-87 -135t-61.5 -93.5t-25.5 -35q-10 0 -11 14.5t-1 32.5zM174 12q6 10 11 17.5t12 17.5q82 127 161.5 256t145.5 238q8 2 24 2q45 0 75 -26t30 -79 q0 -68 -29 -129t-66.5 -110t-75.5 -82t-59 -45q-14 -8 -42.5 -17.5t-61.5 -17.5t-66.5 -14.5t-58.5 -10.5z" />
<glyph unicode="q" horiz-adv-x="528" d="M-20 61q0 -31 13 -55t34 -24q31 0 85 37.5t115.5 98t125 133.5t114.5 142q-33 -70 -86 -165t-111 -203q-49 -96 -95 -195.5t-73.5 -191t-31.5 -168.5v-17q0 -67 28 -112q18 -29 43 -39.5t52 -10.5t54 10.5t50 26.5l18 15q14 8 44 41.5t60 73.5t47 77t7 53q-4 6 -11 7.5 t-11 -3.5q-29 -61 -79 -123.5t-110 -97.5q-12 -8 -29.5 -16t-36 -12.5t-35 0t-26.5 20.5q-16 25 -16 63q0 20 5 44q13 67 49 154t89 185.5t111 198.5q47 82 93 163t82 150.5t57.5 126t21.5 93.5q0 49 -27 49q-4 0 -15.5 3t-19.5 3q-10 0 -18 -2t-12 -12q-18 -35 -54.5 -87.5 t-82.5 -111.5t-97 -118.5t-99 -106.5t-89 -77t-64 -30q-6 0 -6 21q0 20 14.5 55t39 77t58 88t72.5 93q41 51 86 98t87 83t80 57.5t67 21.5q45 0 67 -39q4 6 4 12v13q0 37 -28.5 55.5t-69.5 18.5q-57 0 -118.5 -34t-122 -88.5t-114.5 -123t-95 -140t-65.5 -139t-24.5 -119.5z " />
<glyph unicode="r" horiz-adv-x="569" d="M137 516q0 -35 29 -53.5t74 -18.5q41 0 74.5 4.5t60.5 4.5q33 0 33 -15q0 -20 -34 -62t-74 -92.5t-73.5 -101.5t-33.5 -90q0 -47 29.5 -70.5t64.5 -23.5q55 0 118.5 36t120.5 85q76 63 121 113.5t51 60.5t7.5 23.5t-9.5 13.5l-25.5 -25.5t-47 -45.5t-59.5 -55.5 t-62 -53.5q-59 -47 -109.5 -72t-75.5 -25t-24 29q0 18 33.5 58t73.5 87t74 94.5t34 77.5q0 55 -39 79t-96 24q-35 0 -58.5 2t-23.5 12q0 4 22.5 30.5t51.5 59.5q33 35 54 68t21 43q0 35 -63 35q-33 0 -74 -29t-78 -67t-62.5 -77.5t-25.5 -62.5z" />
<glyph unicode="s" horiz-adv-x="456" d="M10 31q8 -33 42 -48.5t63 -15.5q39 0 80 15.5t74.5 43t55 63.5t21.5 79q0 35 -14.5 65.5t-31.5 61.5t-31.5 61.5t-14.5 65.5q0 37 15.5 70.5t42 59.5t61.5 42t73 16q37 0 54.5 -10t26 -22.5t12.5 -22.5t16 -10q10 0 15 8t5 16q0 14 -17 36t-41.5 42.5t-50.5 34.5t-40 14 q-59 0 -112.5 -21.5t-93.5 -59t-63.5 -90t-23.5 -111.5q0 -49 17.5 -84t39 -64.5t39 -57.5t17.5 -61q0 -51 -42 -92t-93 -41q-31 0 -50.5 12.5t-29.5 12.5q-12 0 -21 -8z" />
<glyph unicode="t" horiz-adv-x="413" d="M10 -4q0 -66 33 -102.5t84 -36.5q33 0 65.5 11t59.5 26.5t47 31t31 23.5q4 8 0 16t-13 12q-10 -8 -29.5 -22t-45 -27.5t-54 -23.5t-57.5 -10t-49.5 24.5t-20.5 67.5q0 63 37 147t90.5 173t116 176t115.5 157h57q4 0 4 -4t-1 -8t-1 -9q0 -8 3 -10t18 -2q8 0 33.5 3t51 9.5 t46 15.5t20.5 21q0 8 -12 15.5t-29 7.5h-55q-45 0 -111 -2q70 96 138.5 185t125 159t94.5 114t46 54q16 16 31.5 32.5t15.5 36.5q0 10 -10.5 19.5t-23.5 15.5t-28.5 10.5t-25.5 4.5q-8 0 -37 -32t-71 -82t-92 -114.5t-100 -130t-94 -126t-73 -103.5q-8 -10 -15.5 -21.5 t-17.5 -23.5q-49 0 -77.5 -1t-42 -2t-19.5 -1h-8q-12 0 -22.5 -6.5t-10.5 -16.5t14.5 -8t28.5 2h6h14t32 -1t63 -1q-45 -68 -93.5 -147.5t-88.5 -164.5t-66.5 -170t-26.5 -161z" />
<glyph unicode="u" horiz-adv-x="774" d="M43 66q0 -16 10 -32t26.5 -28t36 -20.5t36.5 -8.5q23 0 61.5 23t82.5 57.5t90 76.5t84 78t63.5 61.5l29.5 29.5l4 -4q-8 -14 -21.5 -51t-13.5 -96q0 -55 27 -97.5t62 -42.5q12 0 26.5 12.5t28.5 28t24.5 30.5t14.5 19q16 17 16 19q0 4 -8 4q-14 0 -41 5t-27 30 q0 49 18.5 90t18.5 90q0 33 -18.5 65.5t-44.5 32.5q-6 0 -14.5 -7t-20.5 -17q-29 -31 -73 -83t-97 -104q-35 -33 -68.5 -60.5t-63.5 -48t-53.5 -32.5t-35.5 -12q-16 0 -21.5 15t-5.5 30q0 29 20.5 81t48 107t55.5 104.5t44 71.5q2 2 2 11q0 16 -18.5 41.5t-32.5 25.5 q-16 0 -36.5 -17.5t-42 -46t-44 -67.5t-43.5 -82q-35 -78 -60.5 -156.5t-25.5 -125.5z" />
<glyph unicode="v" horiz-adv-x="550" d="M61 195q0 -31 11.5 -61t30 -54.5t41 -39.5t44.5 -15q33 0 71 28.5t73 68.5t64.5 80t45.5 64q14 25 32 53.5t33 54t26.5 44t13.5 22.5q4 6 26.5 7.5t36.5 5.5q12 4 15.5 8t1.5 14q-2 14 -4 33.5t-2 36.5q0 16 -12.5 31.5t-35.5 15.5q-29 0 -38 -16.5t-9 -26.5 q0 -41 -23.5 -91t-82.5 -139q-31 -45 -63.5 -82.5t-62.5 -65.5t-54.5 -43t-38.5 -15t-22.5 10t-8.5 39q0 25 22.5 82t48 118.5t48 113.5t22.5 67q0 14 -5 32.5t-13 35t-18.5 26.5t-20.5 10q-27 0 -59.5 -59.5t-62.5 -137t-50.5 -151.5t-20.5 -104z" />
<glyph unicode="w" horiz-adv-x="970" d="M18 125q0 -16 8.5 -30.5t19.5 -25t22.5 -17.5t17.5 -7q4 0 29.5 27.5t60.5 66.5t73 80t66.5 67.5t63.5 54.5t65.5 51.5t53 38.5t24.5 15q6 0 10.5 -4t4.5 -8q0 -2 -10.5 -35.5t-21.5 -80t-21.5 -95.5t-10.5 -80q0 -33 13.5 -63.5t35 -55t47 -39t49.5 -14.5 q20 0 55.5 19.5t75 52.5t80.5 77t75 91t55.5 96t21.5 94q0 35 -12.5 58.5t-28.5 39t-33.5 22.5t-27.5 7q-6 -2 -11.5 -11t-1.5 -17q29 -8 50.5 -31t21.5 -59q0 -37 -33 -95.5t-80 -113t-100 -93t-92 -38.5q-29 0 -35 25.5t-6 60.5q0 16 6 50t14.5 73.5t14.5 77.5t6 63 q0 23 -21.5 51.5t-60.5 28.5q-25 0 -76 -34t-107.5 -77t-104.5 -85t-64 -58l-11 8q4 8 23.5 51t40 93.5t37 93.5t16.5 53q0 12 -19.5 25.5t-29.5 13.5q-18 0 -42 -31t-50.5 -79t-52 -104.5t-47 -106.5t-34 -89t-12.5 -49z" />
<glyph unicode="x" horiz-adv-x="507" d="M-115 -109q0 -10 7.5 -13t15.5 -3q14 0 21.5 5t15.5 16q61 68 119.5 137t117.5 139q16 -66 57.5 -107.5t114.5 -41.5q53 0 108.5 40.5t104.5 99t86.5 122t53.5 108.5q-4 10 -10.5 17.5t-16.5 7.5q-23 -39 -56.5 -96.5t-76.5 -110.5t-92 -91t-101 -38q-35 0 -57.5 23.5 t-22.5 58.5t4.5 67.5t10.5 67.5q80 98 164 189.5t172 181.5q6 6 11 12t5 16q0 14 -11.5 21.5t-23.5 7.5q-20 0 -63 -41t-89 -94t-85 -102.5t-54 -67.5q6 35 10.5 70.5t4.5 70.5q0 49 -29 89t-82 40q-27 0 -40 -22.5t-13 -44.5q0 -14 6 -26.5t6 -27.5q0 -53 -6 -107t-6 -108 v-57q0 -27 4 -55q-6 -8 -29.5 -36t-55.5 -66t-66.5 -80t-64.5 -78.5t-49.5 -62t-19.5 -30.5z" />
<glyph unicode="y" horiz-adv-x="684" d="M-1151 -1049q0 -57 39 -87.5t86 -30.5q106 0 240.5 55t280 150.5t295 221.5t286.5 268t256 292.5t200 292.5q35 -2 53.5 -9.5t28 -16.5t14.5 -16.5t11 -7.5q27 0 27 33q0 31 -31 46.5t-76 19.5q57 106 89 202.5t32 176.5q0 49 -27 49q-10 0 -67.5 -61.5t-175.5 -153.5 q-31 -23 -70 -53.5t-78 -59.5t-70.5 -49t-48.5 -20q-14 0 -16 7t-2 15q0 4 23.5 41t51 81t51 82t23.5 44q0 10 -16 27.5t-31 17.5q-10 0 -43.5 -39t-70.5 -90t-66 -101.5t-29 -72.5q0 -45 27 -70.5t55 -25.5q18 0 54 19t80.5 48t89.5 62.5t83.5 64.5t64.5 52.5t30 25.5 q10 8 14 -6q-20 -53 -46 -107.5t-54 -109.5q-164 -49 -344.5 -131t-354.5 -185.5t-330.5 -219.5t-276.5 -233.5t-190.5 -230t-70.5 -207.5zM-1090 -1040q0 82 67 186t178.5 215t260 223.5t313.5 212t333.5 180t324.5 129.5q-88 -152 -197.5 -296t-224.5 -263 q-55 -57 -133 -127.5t-166 -145.5t-183 -145.5t-186.5 -126t-172 -89t-140.5 -33.5q-35 0 -54.5 23.5t-19.5 56.5z" />
<glyph unicode="z" horiz-adv-x="610" d="M-920 -895q0 -57 39 -88t86 -31q111 0 232 38t241.5 102.5t235.5 150.5t213 181.5t174 195.5t121 194h16q12 0 25.5 -1t25.5 -1q31 0 31 17q0 27 -26 26h-23q-14 0 -31 -2q33 88 33 154q0 31 -16.5 60.5t-46.5 45.5q10 6 52 47.5t89 104.5t84 141t37 162q0 41 -27 65.5 t-78 24.5q-39 0 -107.5 -28.5t-136 -68.5t-116.5 -81t-49 -65q0 -45 20.5 -62.5t30.5 -7.5q23 25 66.5 65.5t95 78.5t101.5 66.5t85 28.5q29 0 39 -12t10 -35q0 -66 -33.5 -133t-76.5 -124.5t-83 -97.5t-51 -48q-18 4 -48.5 7t-55.5 3q-106 0 -145 -22.5t-39 -55.5 q0 -29 25.5 -44t60.5 -15q59 0 106 18.5t70 34.5q14 -12 14 -43q0 -59 -14 -103t-23 -63q-92 -4 -220 -38.5t-264 -91t-270 -132.5t-240.5 -161t-172.5 -176t-66 -181zM-858 -887q0 66 55 142.5t146.5 154.5t210 150.5t246.5 132t257 99.5t238 50q-43 -90 -116 -185 t-164 -185t-194.5 -170t-209 -139.5t-206.5 -94.5t-189 -35q-35 0 -54.5 24.5t-19.5 55.5zM119 106q0 16 21.5 22.5t43.5 6.5q25 0 57.5 -4t55.5 -12q-23 -14 -53.5 -23.5t-58 -11.5t-47 3t-19.5 19z" />
<glyph unicode="{" horiz-adv-x="1024" d="M299 608q27 -4 62.5 -10t68.5 -20.5t54.5 -37t21.5 -59.5q0 -53 -32 -125.5t-70.5 -152.5t-70.5 -159t-32 -144q0 -55 30.5 -84t75 -41.5t94.5 -13.5t89 -1l20 47q-25 0 -56.5 2.5t-61 11.5t-50 27.5t-20.5 51.5q0 47 30.5 119.5t67.5 152.5t67.5 161t30.5 146 q0 41 -16 67.5t-43 44t-60.5 28t-66.5 18.5q51 10 99.5 23.5t95.5 35.5q80 37 133 95.5t92 127t66.5 143.5t58.5 142.5t67.5 123.5t92.5 89q47 29 103 38t110 13l20 48q-72 -2 -147.5 -11.5t-141.5 -38.5q-76 -33 -127 -95t-91 -138t-71.5 -158t-68.5 -155.5t-84 -131 t-115 -86.5q-47 -18 -98 -24t-102 -14z" />
<glyph unicode="|" horiz-adv-x="778" d="M438 -29h109v1657h-109v-1657z" />
<glyph unicode="}" horiz-adv-x="1024" d="M170 -240q162 0 258 36t158.5 106.5t108.5 175t108 241.5q35 80 71.5 132.5t84 83t108.5 47t147 26.5l25 56q-29 4 -64.5 8t-66.5 15t-51.5 32.5t-20.5 62.5q0 63 32 139t71 155t70.5 155.5t31.5 144.5q0 51 -31.5 79t-77 41t-94.5 16.5t-86 3.5l-22 -48q25 -2 57.5 -5 t60 -13t47 -29.5t19.5 -54.5q0 -49 -31.5 -124t-69.5 -154.5t-70 -155.5t-32 -131q0 -39 18.5 -66.5t48.5 -46t64.5 -31t65.5 -20.5q-53 -10 -103.5 -23.5t-97.5 -35.5q-76 -37 -128 -98.5t-92 -135.5t-71.5 -151.5t-64.5 -147.5t-73 -124t-93 -79q-45 -20 -95 -26t-100 -9z " />
<glyph unicode="~" horiz-adv-x="1325" d="M72 1319l55 -31q104 158 256 158q70 0 141.5 -19.5t145 -43t146.5 -43t145 -19.5q68 0 121 20.5t91.5 52t65.5 70.5t41 76l-51 33q-53 -76 -113.5 -108.5t-136.5 -32.5q-74 0 -143.5 19t-140 42t-141.5 42t-144 19q-109 0 -186 -54t-152 -181z" />
<glyph unicode="&#xa1;" horiz-adv-x="614" d="M-186 18q0 -2 5 -10t15 -17t22.5 -16.5t28.5 -7.5q10 0 52.5 51.5t97.5 130t118.5 172t121 179.5t99.5 150.5t54 84.5q12 18 40 62.5t61.5 101.5t70.5 119.5t67.5 120t50 100.5t19.5 59t-5 30.5t-23 14.5q-4 0 -7.5 -1t-7.5 -1q-29 -80 -77 -170t-104 -179t-113.5 -173 t-104.5 -153q-84 -125 -169 -240t-154.5 -202t-113.5 -139l-44 -52v-15zM700 1489q0 -12 10.5 -27.5t24 -28t27.5 -21.5t22 -9t18.5 9t19.5 20.5t16.5 24t7.5 18.5q0 10 -5 38.5t-10 38.5q-2 12 -17 20.5t-36 8.5q-31 0 -54.5 -34t-23.5 -58z" />
<glyph unicode="&#xa2;" horiz-adv-x="1116" d="M199 -10q0 -10 4 -18.5t16 -8.5h8q31 55 68 107.5t74 105.5q92 2 189 33t180 69.5t140.5 73.5t71.5 47q10 12 0 28.5t-20 16.5q-10 -10 -63.5 -42.5t-129 -68.5t-164 -66.5t-167.5 -37.5q104 147 209.5 287.5t218.5 280.5q8 8 40.5 47t79.5 94t104.5 122.5t112.5 133.5 q129 59 218 59q29 0 42 -10t13 -26q0 -27 -24.5 -61t-54.5 -62.5t-55.5 -49t-29.5 -20.5t-8 4l-2 2q-8 8 -23 8q-10 0 -37.5 -16t-62.5 -43t-74 -58.5t-71.5 -62.5t-53 -55.5t-20.5 -34.5q0 -23 15 -35t32 -12q12 0 55 26.5t99.5 68.5t118 96.5t113.5 108.5t86 103t34 84 q0 18 -5.5 39t-19.5 37t-43 26.5t-74 10.5q-33 0 -65 -6q63 76 105 126t42 52q4 10 12.5 36.5t8.5 35.5q0 6 1 12t-3 6q-8 0 -33 -23.5t-61.5 -63.5t-82.5 -93t-98 -115q-96 -33 -204.5 -94t-215 -139t-204 -170t-172 -186.5t-118.5 -187.5t-44 -173q0 -63 27.5 -100 t66.5 -52q-47 -68 -74.5 -120t-27.5 -76zM270 340q0 76 70 180.5t179.5 213t243.5 210.5t265 178q-55 -70 -108.5 -134t-96.5 -118.5t-72.5 -92.5t-41.5 -52q-18 -23 -61.5 -76t-95.5 -120.5t-110.5 -144.5t-107.5 -148q-33 10 -48.5 37.5t-15.5 66.5z" />
<glyph unicode="&#xa3;" horiz-adv-x="1052" d="M76 174q0 -16 6 -30.5t27 -14.5l-13 -18q4 -10 10.5 -19.5t16.5 -9.5q18 0 32.5 19.5t24.5 31.5q92 4 183.5 11.5t183.5 7.5q72 0 145.5 -8.5t145.5 -8.5q6 0 18 3t12 14q0 12 -12 18t-22 10q-51 18 -128 27.5t-159 14.5t-162 5q-78 0 -133 -2q76 100 149.5 202.5 t141.5 211.5l221 -23q10 -2 20.5 8.5t10.5 20.5q0 6 -29 14.5t-66.5 14.5t-74.5 10t-52 4q18 31 61.5 103.5l97.5 162.5t116.5 187.5t122 177.5t112 131t84.5 51q27 0 27 -33q0 -23 -11.5 -48t-23.5 -48.5t-23.5 -41t-11.5 -23.5t5.5 -15.5t11.5 -19.5t13 -17.5t13 -7.5 q12 0 24.5 28t22 62.5t15.5 67.5t6 43q0 37 -14.5 68.5t-57.5 31.5q-59 0 -126.5 -49t-138.5 -128t-139.5 -176t-128 -192.5t-108.5 -177.5t-78 -131q-14 0 -61 -5t-97 -14t-90 -21.5t-40 -28.5q0 -29 24 -29q10 0 26.5 5t26.5 9q41 8 81 14.5t81 6.5h13 q-61 -104 -122 -205.5t-122 -206.5q-10 0 -25.5 -2t-29 -6t-23.5 -13.5t-10 -23.5z" />
<glyph unicode="&#xa4;" horiz-adv-x="1234" d="M66 623q0 -14 8 -24.5t22 -8.5q37 4 60.5 8t45 7t45 6t60.5 5q-47 -74 -74.5 -144.5t-27.5 -133.5q0 -43 13 -74t33.5 -50t47.5 -28.5t53 -9.5q92 0 191.5 31t184.5 69.5t145.5 74.5t74.5 48q10 12 0 28.5t-20 16.5q-12 -10 -69.5 -44.5t-138.5 -72.5t-173 -68t-172 -30 q-55 0 -81 31t-26 80q0 57 40 130t106 151q104 4 193 2t155 -7q14 -2 25.5 8.5t11.5 24.5q0 12 -12.5 18.5t-16.5 6.5q-57 8 -134 11t-163 3q68 70 148 141q139 0 235 -6q12 -2 23.5 8.5t11.5 24.5q0 12 -11.5 17.5t-17.5 7.5q-68 8 -166 12q92 74 188.5 139.5t188.5 114.5 t173 77.5t140 28.5q29 0 42.5 -10t13.5 -26q0 -27 -24.5 -61t-54.5 -62.5t-55.5 -49t-29.5 -20.5t-8 4l-2 2q-8 8 -23 8q-10 0 -37.5 -16t-62.5 -43t-74 -58.5t-71.5 -62.5t-53 -55.5t-20.5 -34.5q0 -23 14 -35t33 -12q12 0 55 26.5t99.5 68.5t118 96.5t113.5 108.5t86 103 t34 84q0 18 -5.5 39t-19.5 37t-43 26.5t-74 10.5q-76 0 -172 -34t-201.5 -91t-213 -135t-201.5 -166q-57 0 -102.5 -3t-85 -6t-79.5 -9.5t-87 -12.5q-12 -4 -23.5 -12t-11.5 -23q0 -14 7 -25t23 -7q45 6 79 11t66 8t64.5 5t79.5 4q-70 -70 -121 -139q-47 -2 -78.5 -4t-59 -6 t-54.5 -8t-64 -11q-14 -2 -25 -11t-11 -23z" />
<glyph unicode="&#xa7;" horiz-adv-x="1126" d="M137 516q0 -35 29 -53.5t74 -18.5q41 0 74.5 4.5t60.5 4.5q33 0 33 -15q0 -20 -34 -62t-74 -92.5t-73.5 -101.5t-33.5 -90q0 -47 29.5 -70.5t64.5 -23.5q66 0 136.5 48t137 117.5t124.5 146.5t101 134h11q41 -2 74.5 3.5t60.5 5.5q33 0 33 -15q0 -20 -34 -62t-74 -92.5 t-73.5 -101.5t-33.5 -90q0 -47 29.5 -70.5t64.5 -23.5q55 0 118.5 36t120.5 85q76 63 121 113.5t51 60.5t7.5 23.5t-9.5 13.5l-25.5 -25.5t-47 -45.5t-59 -55.5t-62.5 -53.5q-59 -47 -109.5 -72t-75.5 -25t-24 29q0 18 34 58t73.5 87t73.5 94.5t34 77.5q0 55 -39 79t-96 24 q-35 0 -58.5 2t-23.5 12q0 4 22.5 30.5t51.5 59.5q33 35 54 68t21 43q0 35 -63 35q-33 0 -74 -29t-78 -67t-62.5 -77.5t-25.5 -62.5q0 -47 51 -63q-39 -53 -96 -122t-117.5 -130.5t-118 -104.5t-96.5 -43q-25 0 -24 29q0 18 33.5 58t73.5 87t74 94.5t34 77.5q0 55 -39 79 t-96 24q-35 0 -58.5 2t-23.5 12q0 4 22.5 30.5t51.5 59.5q33 35 54 68t21 43q0 35 -63 35q-33 0 -74 -29t-78 -67t-62.5 -77.5t-25.5 -62.5z" />
<glyph unicode="&#xa8;" horiz-adv-x="544" d="M86 1473q-16 -31 6.5 -46.5t57.5 -15.5t52 13.5t17 48.5q0 74 -67 73q-35 0 -44.5 -22.5t-21.5 -50.5zM311 1473q-14 -31 8.5 -46.5t57.5 -15.5t52 13.5t17 48.5q0 74 -67 73q-35 0 -45 -22.5t-23 -50.5z" />
<glyph unicode="&#xa9;" horiz-adv-x="1642" d="M121 700q0 -154 58.5 -290t159.5 -237t237.5 -159.5t289.5 -58.5q154 0 289 58.5t236.5 159.5t160 237t58.5 290t-58.5 289t-160 236.5t-236.5 160t-289 58.5t-290 -58.5t-237 -160t-159.5 -236.5t-58.5 -289zM221 700q0 133 51.5 251t139.5 205t205.5 138.5t250.5 51.5 t251 -51.5t205 -138.5t138 -205t51 -251t-51 -250.5t-138 -205.5t-205 -139.5t-251 -51.5t-250.5 51.5t-205.5 139.5t-139.5 205.5t-51.5 250.5zM397 690q0 -96 40 -179t107.5 -145.5t159 -98.5t193.5 -36q43 0 88 6.5t86 14.5q29 4 66 11t65 7q18 0 21.5 11.5t-0.5 19.5 q-4 12 -7.5 35.5t-5.5 48.5t-2 45v35q0 10 -9 14t-19.5 2t-18.5 -8t-8 -18q4 -35 -3 -59.5t-36 -49.5q-37 -29 -95 -44t-112 -15q-78 0 -143.5 31.5t-114.5 87t-76.5 129t-27.5 157.5t27.5 157t76.5 127t114.5 86t143.5 34q43 2 91.5 -10.5t82.5 -36.5q59 -43 52 -107 l-3 -14q0 -12 8.5 -18.5t18.5 -8.5t19.5 2t9.5 15q0 23 1 49t3 51q4 16 6 30.5t6 30.5q4 12 0 22.5t-16 10.5q-10 0 -23.5 1t-29.5 3q-59 10 -118 21.5t-118 11.5q-102 0 -193.5 -36t-159 -98.5t-107.5 -146.5t-40 -178z" />
<glyph unicode="&#xaa;" horiz-adv-x="1040" d="M393 1067q0 -27 11.5 -47.5t29.5 -20.5q12 0 39 17.5t57.5 43t62.5 54.5t54.5 49.5t50 45t51 45t40 33.5t18.5 13q10 0 6 -12q-2 -6 -8 -40t-6 -56q0 -47 13 -78t44 -31q23 0 50.5 14.5t55 35t52 44t43 40t45 43t51.5 54t44.5 49.5t23.5 28q10 18 3 26t-14 8 q-12 -16 -59 -65t-102 -103q-47 -47 -91.5 -81.5t-62.5 -34.5q-16 0 -19.5 10t-3.5 25q0 18 7.5 40.5t14.5 46t14 45t7 38.5q0 45 -45 45q-6 0 -12 -2.5t-14 -6.5q10 18 22.5 41t21.5 44.5t15 40t6 28.5q0 41 -23.5 59.5t-58.5 18.5q-41 0 -89 -29t-97 -75t-93 -104 t-79 -119.5t-55.5 -119t-20.5 -100.5zM446 1075q0 29 29 81t78 118q39 51 85 100t89 89t78 64.5t53 24.5q14 0 14 -14q0 -8 -11 -30.5t-26.5 -48t-28.5 -47t-18 -26.5l-14 -14t-6 -10q0 -2 9 -7t20 -9q-27 -23 -56.5 -50.5t-60.5 -56.5q-31 -27 -68 -58.5t-70.5 -58t-59 -45 t-29.5 -18.5q-6 0 -7 16z" />
<glyph unicode="&#xab;" horiz-adv-x="892" d="M305 543q0 -29 25.5 -60.5t58.5 -59.5t63.5 -49.5t43.5 -29.5q16 4 16 23q0 6 -4 14q-29 37 -54.5 70.5t-41.5 76.5q47 39 104 76t113 64q12 6 12 16q0 16 -14 21q-66 -18 -126.5 -51t-125.5 -60q-27 -10 -48.5 -21.5t-21.5 -29.5zM520 543q0 -29 25.5 -60.5t58.5 -59.5 t63.5 -49.5t43.5 -29.5q16 4 16 23q0 6 -4 14q-29 37 -54.5 70.5t-41.5 76.5q47 39 104 76t113 64q12 6 12 16q0 16 -14 21q-66 -18 -126.5 -51t-125.5 -60q-27 -10 -48.5 -21.5t-21.5 -29.5z" />
<glyph unicode="&#xad;" horiz-adv-x="780" d="M184 444q0 -27 27 -26q12 14 47 21t76 10.5t79 4.5t56 1q61 0 123.5 -5.5t126.5 -5.5q16 0 22 9l2 16q0 10 -1 21.5t-9 17.5q-6 4 -35.5 9t-70.5 10t-89.5 9.5t-91.5 6.5t-75.5 4t-44.5 2q-35 0 -60.5 -1t-44 -10.5t-28 -31t-9.5 -62.5z" />
<glyph unicode="&#xae;" horiz-adv-x="1288" d="M139 1032q0 -113 43 -211t117 -172t172 -117t211 -43t211 43t172 117t116 173t42 210q0 113 -43 211t-117 172t-172 117t-209 43q-113 0 -211 -43t-172 -117t-117 -172t-43 -211zM209 1032q0 98 37 184.5t101.5 151t150.5 101t184 36.5t184 -36.5t150.5 -101t101.5 -151 t37 -184.5t-37 -184t-101.5 -150.5t-150.5 -101.5t-184 -37t-184 37t-150.5 101.5t-101.5 150.5t-37 184zM406 729q0 -18 16 -24q31 0 61.5 3t61.5 3q29 0 59.5 -3t61.5 -3q8 0 13 9t5 15q0 20 -13.5 22.5t-29.5 3.5t-29.5 9t-13.5 43v219q70 0 103.5 -24.5t51 -60.5t29 -78 t32 -77.5t61 -60.5t120.5 -25q8 0 16.5 4.5t8.5 14.5t-14 14q-61 29 -82 73t-33 89t-34.5 87t-88.5 67q53 23 90 64.5t37 100.5q0 39 -15.5 72t-41 56.5t-59.5 37t-72 13.5q-20 0 -41 -2t-43 -2q-51 0 -100.5 2t-100.5 2q-16 -6 -16 -25q0 -20 12 -21t26 -1t26.5 -9.5 t12.5 -46.5v-483q0 -39 -13 -46t-48 -7q-16 -6 -16 -25zM598 1069v221q0 33 21.5 39t48.5 6q66 0 88 -29t22 -92q0 -43 -14 -71.5t-39 -45t-57.5 -22.5t-69.5 -6z" />
<glyph unicode="&#xaf;" horiz-adv-x="569" d="M68 1470h426l20 68h-426z" />
<glyph unicode="&#xb0;" horiz-adv-x="1650" d="M68 -45q0 -47 14 -81t51 -34q18 0 29.5 11.5t19.5 28t14.5 33.5t14.5 28q4 6 31.5 36.5t65.5 72.5t82 89t82 89t66.5 73t34.5 39q0 23 -20 22q-6 -6 -35 -27.5t-61.5 -47t-62 -49t-36.5 -29.5l-10 4q25 39 61.5 92t79.5 112.5t88.5 122t89.5 120t84 106.5t68 84 q66 12 144.5 24.5t142.5 18.5q53 6 116.5 10t120 8t97.5 6.5t51 2.5q41 0 41 4q0 20 -29 39q-33 14 -141 14q-20 0 -72.5 -2t-120 -7t-140.5 -11.5t-132 -12.5q61 74 125.5 147.5t124 141t111 127t90.5 108.5q162 18 331.5 29.5t343.5 11.5q63 0 122 -1t103 -5t70.5 -12 t26.5 -23q0 -14 -22.5 -26t-55.5 -24.5t-71.5 -24t-71.5 -21.5t-55.5 -17t-22.5 -12q0 -14 16.5 -20t32.5 -6q8 0 63.5 11t119 29.5t114.5 42t51 50.5q0 25 -10 49.5t-37 44.5q-12 10 -43 19.5t-87 15.5t-141 10t-204 4q-123 0 -251 -6t-251 -16q12 20 13 33q0 23 -6.5 37 t-34.5 14q-18 0 -52 -28t-82 -75q-176 -18 -305 -37.5t-174 -31.5l-4 8q6 2 30.5 14.5t52.5 27.5t50.5 29.5t22.5 20.5q0 31 -35 31q-4 0 -62.5 -18.5t-142.5 -48t-180 -66.5t-179 -72t-137.5 -63.5t-54.5 -45.5q0 -20 20.5 -32.5t55.5 -12.5q12 0 87 18.5t199 46.5 t290.5 59.5t361.5 60.5q-51 -57 -105.5 -123t-108.5 -133.5t-105.5 -134t-96.5 -123.5q-23 -4 -60.5 -11.5t-74.5 -14.5t-66.5 -13t-37.5 -6q-23 -2 -23 -17v-20q0 -6 8.5 -12.5t24.5 -4.5q6 0 22.5 2t40 4.5t50 4.5t51.5 4q-18 -25 -70.5 -94.5t-120 -161.5t-140.5 -194.5 t-133.5 -194t-100 -158t-39.5 -84.5zM1231 63q0 -37 22.5 -74.5t75.5 -37.5q63 0 109 39q0 2 1 4t1 6t-1 14.5t-7 8.5q-31 -25 -72 -25q-35 0 -47.5 18.5t-12.5 40.5q0 27 12.5 65t29 79t35 77.5t30.5 61.5q33 27 90 70t128 98t149.5 118.5t152.5 131.5q66 59 123 119.5 t100 115t69 98t26 68.5q0 10 -9.5 28.5t-22.5 36t-27.5 30t-24.5 12.5q-90 0 -193.5 -66.5t-207 -173t-199 -240t-169 -266.5t-117.5 -254t-44 -203zM1456 434q20 37 54 87t78 107.5t94.5 119t103.5 121t107.5 112.5t103.5 93t90 63.5t72 23.5q16 0 18 -8.5t2 -22.5 t-23.5 -48.5t-64.5 -82t-94 -101.5t-111 -105q-66 -57 -131 -112.5t-123.5 -104t-104.5 -86t-71 -56.5z" />
<glyph unicode="&#xb4;" horiz-adv-x="376" d="M63 1327q-4 -14 9 -16q6 0 16 6q4 14 30.5 41.5t61.5 54.5t69 44.5t50 12.5l6 5q-2 16 -20.5 44.5t-34.5 32.5q-6 2 -14.5 6.5t-18.5 -6.5q-14 -12 -37.5 -42.5t-48.5 -65.5t-44 -68t-24 -49z" />
<glyph unicode="&#xb7;" horiz-adv-x="458" d="M219 430q0 -10 5 -39t9 -39q2 -12 17.5 -20t38.5 -8q14 0 28.5 10t24.5 23.5t17.5 30t7.5 28.5t-10.5 27.5t-25 27.5t-28.5 21.5t-22 9.5t-18.5 -9.5t-20 -20.5t-16.5 -23.5t-7 -18.5z" />
<glyph unicode="&#xb8;" horiz-adv-x="606" d="M111 -272q0 -16 20.5 -27.5t48 -19t55 -10.5t39.5 -3q31 0 61 15.5t54.5 39t39.5 54t15 61.5q0 35 -22.5 60.5t-59.5 25.5q23 23 42.5 47.5t37.5 48.5h-65q-25 -41 -56.5 -75.5t-64.5 -69.5h23q16 0 30.5 -3t24.5 -10t10 -20q0 -31 -12.5 -52t-30.5 -33.5t-38.5 -18.5 t-39.5 -6q-25 0 -47 11t-47 11q-8 0 -13 -10t-5 -16z" />
<glyph unicode="&#xba;" horiz-adv-x="927" d="M442 1200q0 -59 39 -88t97 -29q55 0 114.5 33t114.5 81t100 104.5t72 103.5q12 4 23.5 6t17.5 2q20 5 8 17q-8 14 -18 45q0 4 1 6t1 6q0 59 -28 84.5t-62 25.5q-23 0 -52.5 -7t-42.5 -7q-10 0 -18 20.5t-27 20.5q-37 0 -94 -46t-111.5 -112.5t-94.5 -139.5t-40 -126z M524 1176q0 43 41 106.5t102.5 123.5t131 102t127.5 42q18 0 18 -8q0 -4 -16.5 -21.5t-16.5 -47.5q0 -23 5.5 -31t9.5 -12q0 -23 -41 -73t-97.5 -102.5t-116 -92.5t-96.5 -40q-51 0 -51 54z" />
<glyph unicode="&#xbb;" horiz-adv-x="868" d="M252 362q0 -16 14 -18q66 16 126.5 50t123.5 59q29 10 50.5 21.5t21.5 31.5q0 27 -25.5 58.5t-58.5 59t-63.5 49t-43.5 32.5q-16 -6 -16 -25q0 -8 4 -12q29 -37 54.5 -71t41.5 -79q-47 -39 -104.5 -75.5t-112.5 -63.5q-6 -4 -9 -5t-3 -12zM465 362q0 -16 14 -18 q66 16 126.5 50t123.5 59q29 10 50.5 21.5t21.5 31.5q0 27 -25.5 58.5t-58.5 59t-63.5 49t-43.5 32.5q-16 -6 -16 -25q0 -8 4 -12q29 -37 54.5 -71t41.5 -79q-47 -39 -104.5 -75.5t-112.5 -63.5q-6 -4 -9 -5t-3 -12z" />
<glyph unicode="&#xbf;" horiz-adv-x="1144" d="M20 139q0 -88 61.5 -130t162.5 -42q74 0 155.5 19.5t162.5 48t153.5 64.5t129 68t89.5 56.5t33 32.5q0 16 -9.5 30.5t-21.5 26t-23.5 18.5t-17.5 7q-10 0 -47 -24.5t-91.5 -61.5t-123 -80t-139 -80t-141 -61.5t-128.5 -24.5q-41 0 -78.5 22.5t-37.5 77.5q0 88 43 170 t112.5 159t156.5 149.5t175 140.5t171 129t148.5 119.5t105.5 113t40 105.5q0 41 -19.5 63.5t-44.5 22.5q2 -66 -34.5 -129.5t-99 -128t-144.5 -129t-168 -129.5q-94 -72 -188.5 -146.5t-170 -151.5t-124 -158t-48.5 -167zM1020 1444q0 -12 10 -27.5t23.5 -28t28 -21.5 t22.5 -9t18.5 9t19.5 20.5t16 24t7 18.5q0 10 -5 38.5t-9 38.5q-2 12 -17.5 20.5t-35.5 8.5q-31 0 -54.5 -34t-23.5 -58z" />
<glyph unicode="&#xc0;" horiz-adv-x="1613" d="M27 547q0 -23 27.5 -39t49.5 -16q20 0 56.5 12t76 28.5t76.5 33t60 24.5q63 20 140 40.5t149.5 36t135 25.5t99.5 10q-104 -94 -205.5 -199.5t-204.5 -201.5q-53 -51 -107 -105.5t-112 -101.5q-4 -4 -20.5 -15t-33.5 -25.5t-30.5 -26t-13.5 -15.5t7 -7t17.5 -5t18.5 -2 h14q33 0 60.5 18.5t50.5 36.5q61 47 117.5 107.5t109.5 113.5q109 109 220.5 216.5t222.5 211.5q117 10 249 11.5t244 -2.5q-20 -27 -64 -95.5t-98.5 -161t-112 -198.5t-105.5 -205.5t-78.5 -183.5t-30.5 -133q0 -14 3 -36t10 -42.5t19.5 -34.5t32.5 -14q12 0 21 14 q31 70 82 161t110 185q61 100 123 190.5t107 145.5q0 4 -3.5 9t-5.5 5q-55 -37 -103 -88t-85 -104h-6q76 147 143.5 293.5t155.5 286.5q35 -2 67.5 -3.5t67.5 -5.5l-20 37l-97 10q59 90 121 177.5t125 173.5q8 10 31.5 40.5t55.5 70.5t66.5 85t65.5 84t51.5 66.5t22.5 34.5 q8 20 12 38t4 41q0 12 -5 36t-23 24q-27 0 -97.5 -38t-168 -101.5t-209 -143.5t-220.5 -162q-78 -61 -152.5 -120.5t-139 -111.5t-115.5 -96t-84 -73q-59 -2 -105.5 -7t-103.5 -11q-25 -2 -89.5 -11.5t-146 -23t-171 -30.5t-163 -38.5t-121.5 -47.5t-48 -52zM1085 766 q25 20 95.5 76.5t164 130.5t199 152.5t200.5 146t166.5 114t96.5 50.5q-12 -16 -46 -62.5t-79 -109t-97 -135t-101.5 -143.5t-91.5 -132t-66 -100q-106 6 -220 9t-221 3zM1978 1851q12 -4 45 -13t68 -26.5t66.5 -44t44.5 -65.5q6 -6 18 -2q6 2 6 14q-10 31 -29.5 59.5 t-43 55t-49 52.5t-44.5 50q-10 10 -19 5t-13 -7q-8 -2 -17.5 -11t-16.5 -21.5t-11.5 -24.5t-4.5 -21z" />
<glyph unicode="&#xc1;" horiz-adv-x="1613" d="M27 547q0 -23 27.5 -39t49.5 -16q20 0 56.5 12t76 28.5t76.5 33t60 24.5q63 20 140 40.5t149.5 36t135 25.5t99.5 10q-104 -94 -205.5 -199.5t-204.5 -201.5q-53 -51 -107 -105.5t-112 -101.5q-4 -4 -20.5 -15t-33.5 -25.5t-30.5 -26t-13.5 -15.5t7 -7t17.5 -5t18.5 -2 h14q33 0 60.5 18.5t50.5 36.5q61 47 117.5 107.5t109.5 113.5q109 109 220.5 216.5t222.5 211.5q117 10 249 11.5t244 -2.5q-20 -27 -64 -95.5t-98.5 -161t-112 -198.5t-105.5 -205.5t-78.5 -183.5t-30.5 -133q0 -14 3 -36t10 -42.5t19.5 -34.5t32.5 -14q12 0 21 14 q31 70 82 161t110 185q61 100 123 190.5t107 145.5q0 4 -3.5 9t-5.5 5q-55 -37 -103 -88t-85 -104h-6q76 147 143.5 293.5t155.5 286.5q35 -2 67.5 -3.5t67.5 -5.5l-20 37l-97 10q59 90 121 177.5t125 173.5q8 10 31.5 40.5t55.5 70.5t66.5 85t65.5 84t51.5 66.5t22.5 34.5 q8 20 12 38t4 41q0 12 -5 36t-23 24q-27 0 -97.5 -38t-168 -101.5t-209 -143.5t-220.5 -162q-78 -61 -152.5 -120.5t-139 -111.5t-115.5 -96t-84 -73q-59 -2 -105.5 -7t-103.5 -11q-25 -2 -89.5 -11.5t-146 -23t-171 -30.5t-163 -38.5t-121.5 -47.5t-48 -52zM1085 766 q25 20 95.5 76.5t164 130.5t199 152.5t200.5 146t166.5 114t96.5 50.5q-12 -16 -46 -62.5t-79 -109t-97 -135t-101.5 -143.5t-91.5 -132t-66 -100q-106 6 -220 9t-221 3zM2191 1718q-4 -14 9 -16q4 0 16 4q4 16 30.5 44t61.5 53.5t68.5 44t50.5 14.5l6 4q0 8 -6 20 t-14.5 24.5t-17.5 22t-17 11.5q-6 2 -15.5 6t-19.5 -6q-14 -12 -38 -43t-48.5 -66t-43 -67.5t-22.5 -49.5z" />
<glyph unicode="&#xc2;" horiz-adv-x="1613" d="M27 547q0 -23 27.5 -39t49.5 -16q20 0 56.5 12t76 28.5t76.5 33t60 24.5q63 20 140 40.5t149.5 36t135 25.5t99.5 10q-104 -94 -205.5 -199.5t-204.5 -201.5q-53 -51 -107 -105.5t-112 -101.5q-4 -4 -20.5 -15t-33.5 -25.5t-30.5 -26t-13.5 -15.5t7 -7t17.5 -5t18.5 -2 h14q33 0 60.5 18.5t50.5 36.5q61 47 117.5 107.5t109.5 113.5q109 109 220.5 216.5t222.5 211.5q117 10 249 11.5t244 -2.5q-20 -27 -64 -95.5t-98.5 -161t-112 -198.5t-105.5 -205.5t-78.5 -183.5t-30.5 -133q0 -14 3 -36t10 -42.5t19.5 -34.5t32.5 -14q12 0 21 14 q31 70 82 161t110 185q61 100 123 190.5t107 145.5q0 4 -3.5 9t-5.5 5q-55 -37 -103 -88t-85 -104h-6q76 147 143.5 293.5t155.5 286.5q35 -2 67.5 -3.5t67.5 -5.5l-20 37l-97 10q59 90 121 177.5t125 173.5q8 10 31.5 40.5t55.5 70.5t66.5 85t65.5 84t51.5 66.5t22.5 34.5 q8 20 12 38t4 41q0 12 -5 36t-23 24q-27 0 -97.5 -38t-168 -101.5t-209 -143.5t-220.5 -162q-78 -61 -152.5 -120.5t-139 -111.5t-115.5 -96t-84 -73q-59 -2 -105.5 -7t-103.5 -11q-25 -2 -89.5 -11.5t-146 -23t-171 -30.5t-163 -38.5t-121.5 -47.5t-48 -52zM1085 766 q25 20 95.5 76.5t164 130.5t199 152.5t200.5 146t166.5 114t96.5 50.5q-12 -16 -46 -62.5t-79 -109t-97 -135t-101.5 -143.5t-91.5 -132t-66 -100q-106 6 -220 9t-221 3zM1999 1675l14 -6l23 8q2 14 29.5 37t61.5 44.5t67.5 40t50.5 28.5q33 -23 57.5 -50.5t32.5 -62.5 q4 -10 3 -19t1 -18q2 -4 8 -6t10 -2q12 0 14.5 18.5t2.5 24.5q0 14 -6.5 50t-19.5 73t-32.5 65.5t-44.5 28.5q-35 0 -46 -13t-27 -32q-14 -14 -47 -38.5t-67 -53.5t-59.5 -59.5t-25.5 -57.5z" />
<glyph unicode="&#xc3;" horiz-adv-x="1613" d="M27 547q0 -23 27.5 -39t49.5 -16q20 0 56.5 12t76 28.5t76.5 33t60 24.5q63 20 140 40.5t149.5 36t135 25.5t99.5 10q-104 -94 -205.5 -199.5t-204.5 -201.5q-53 -51 -107 -105.5t-112 -101.5q-4 -4 -20.5 -15t-33.5 -25.5t-30.5 -26t-13.5 -15.5t7 -7t17.5 -5t18.5 -2 h14q33 0 60.5 18.5t50.5 36.5q61 47 117.5 107.5t109.5 113.5q109 109 220.5 216.5t222.5 211.5q117 10 249 11.5t244 -2.5q-20 -27 -64 -95.5t-98.5 -161t-112 -198.5t-105.5 -205.5t-78.5 -183.5t-30.5 -133q0 -14 3 -36t10 -42.5t19.5 -34.5t32.5 -14q12 0 21 14 q31 70 82 161t110 185q61 100 123 190.5t107 145.5q0 4 -3.5 9t-5.5 5q-55 -37 -103 -88t-85 -104h-6q76 147 143.5 293.5t155.5 286.5q35 -2 67.5 -3.5t67.5 -5.5l-20 37l-97 10q59 90 121 177.5t125 173.5q8 10 31.5 40.5t55.5 70.5t66.5 85t65.5 84t51.5 66.5t22.5 34.5 q8 20 12 38t4 41q0 12 -5 36t-23 24q-27 0 -97.5 -38t-168 -101.5t-209 -143.5t-220.5 -162q-78 -61 -152.5 -120.5t-139 -111.5t-115.5 -96t-84 -73q-59 -2 -105.5 -7t-103.5 -11q-25 -2 -89.5 -11.5t-146 -23t-171 -30.5t-163 -38.5t-121.5 -47.5t-48 -52zM1085 766 q25 20 95.5 76.5t164 130.5t199 152.5t200.5 146t166.5 114t96.5 50.5q-12 -16 -46 -62.5t-79 -109t-97 -135t-101.5 -143.5t-91.5 -132t-66 -100q-106 6 -220 9t-221 3zM2001 1769l16 -28q41 29 61.5 36t45.5 7q16 0 38.5 -11.5t45 -23.5t42 -23.5t29.5 -11.5q8 0 32 13.5 t52.5 30t55.5 32.5t39 22q-8 27 -23 35q-29 -6 -55.5 -25.5t-55.5 -19.5q-12 0 -31.5 10.5t-40 23.5t-39 23.5t-30.5 10.5q-18 0 -43.5 -11.5t-52.5 -26.5t-50.5 -32.5t-35.5 -30.5z" />
<glyph unicode="&#xc4;" horiz-adv-x="1613" d="M27 547q0 -23 27.5 -39t49.5 -16q20 0 56.5 12t76 28.5t76.5 33t60 24.5q63 20 140 40.5t149.5 36t135 25.5t99.5 10q-104 -94 -205.5 -199.5t-204.5 -201.5q-53 -51 -107 -105.5t-112 -101.5q-4 -4 -20.5 -15t-33.5 -25.5t-30.5 -26t-13.5 -15.5t7 -7t17.5 -5t18.5 -2 h14q33 0 60.5 18.5t50.5 36.5q61 47 117.5 107.5t109.5 113.5q109 109 220.5 216.5t222.5 211.5q117 10 249 11.5t244 -2.5q-20 -27 -64 -95.5t-98.5 -161t-112 -198.5t-105.5 -205.5t-78.5 -183.5t-30.5 -133q0 -14 3 -36t10 -42.5t19.5 -34.5t32.5 -14q12 0 21 14 q31 70 82 161t110 185q61 100 123 190.5t107 145.5q0 4 -3.5 9t-5.5 5q-55 -37 -103 -88t-85 -104h-6q76 147 143.5 293.5t155.5 286.5q35 -2 67.5 -3.5t67.5 -5.5l-20 37l-97 10q59 90 121 177.5t125 173.5q8 10 31.5 40.5t55.5 70.5t66.5 85t65.5 84t51.5 66.5t22.5 34.5 q8 20 12 38t4 41q0 12 -5 36t-23 24q-27 0 -97.5 -38t-168 -101.5t-209 -143.5t-220.5 -162q-78 -61 -152.5 -120.5t-139 -111.5t-115.5 -96t-84 -73q-59 -2 -105.5 -7t-103.5 -11q-25 -2 -89.5 -11.5t-146 -23t-171 -30.5t-163 -38.5t-121.5 -47.5t-48 -52zM1085 766 q25 20 95.5 76.5t164 130.5t199 152.5t200.5 146t166.5 114t96.5 50.5q-12 -16 -46 -62.5t-79 -109t-97 -135t-101.5 -143.5t-91.5 -132t-66 -100q-106 6 -220 9t-221 3zM2021 1757q-16 -31 6.5 -46t57.5 -15t53.5 13t18.5 48q0 74 -68 74q-35 0 -45 -22.5t-23 -51.5z M2249 1757q-16 -31 6 -46t57 -15t52.5 13t17.5 48q0 74 -68 74q-35 0 -44 -22.5t-21 -51.5z" />
<glyph unicode="&#xc5;" horiz-adv-x="1613" d="M27 547q0 -23 27.5 -39t49.5 -16q20 0 56.5 12t76 28.5t76.5 33t60 24.5q63 20 140 40.5t149.5 36t135 25.5t99.5 10q-104 -94 -205.5 -199.5t-204.5 -201.5q-53 -51 -107 -105.5t-112 -101.5q-4 -4 -20.5 -15t-33.5 -25.5t-30.5 -26t-13.5 -15.5t7 -7t17.5 -5t18.5 -2 h14q33 0 60.5 18.5t50.5 36.5q61 47 117.5 107.5t109.5 113.5q109 109 220.5 216.5t222.5 211.5q117 10 249 11.5t244 -2.5q-20 -27 -64 -95.5t-98.5 -161t-112 -198.5t-105.5 -205.5t-78.5 -183.5t-30.5 -133q0 -14 3 -36t10 -42.5t19.5 -34.5t32.5 -14q12 0 21 14 q31 70 82 161t110 185q61 100 123 190.5t107 145.5q0 4 -3.5 9t-5.5 5q-55 -37 -103 -88t-85 -104h-6q76 147 143.5 293.5t155.5 286.5q35 -2 67.5 -3.5t67.5 -5.5l-20 37l-97 10q59 90 121 177.5t125 173.5q8 10 31.5 40.5t55.5 70.5t66.5 85t65.5 84t51.5 66.5t22.5 34.5 q8 20 12 38t4 41q0 12 -5 36t-23 24q-27 0 -97.5 -38t-168 -101.5t-209 -143.5t-220.5 -162q-78 -61 -152.5 -120.5t-139 -111.5t-115.5 -96t-84 -73q-59 -2 -105.5 -7t-103.5 -11q-25 -2 -89.5 -11.5t-146 -23t-171 -30.5t-163 -38.5t-121.5 -47.5t-48 -52zM1085 766 q25 20 95.5 76.5t164 130.5t199 152.5t200.5 146t166.5 114t96.5 50.5q-12 -16 -46 -62.5t-79 -109t-97 -135t-101.5 -143.5t-91.5 -132t-66 -100q-106 6 -220 9t-221 3zM2148 1808q0 -47 32 -75.5t79 -28.5q37 0 75 16.5t67.5 44t48 63.5t18.5 75q0 49 -32 77.5t-79 28.5 q-37 0 -74.5 -17.5t-67.5 -45t-48.5 -63.5t-18.5 -75zM2218 1831q0 43 38 78t81 35q27 0 45 -15.5t18 -44.5q0 -23 -11 -43t-27.5 -36.5t-38 -26t-42.5 -9.5q-29 0 -46 16.5t-17 45.5z" />
<glyph unicode="&#xc6;" horiz-adv-x="2369" d="M27 547q0 -23 27.5 -39t49.5 -16q20 0 56.5 12t76 28.5t76.5 33t60 24.5q63 20 140 40.5t149.5 36t135 25.5t99.5 10q-104 -94 -205.5 -199.5t-204.5 -201.5q-53 -51 -107 -105.5t-112 -101.5q-4 -4 -20.5 -15t-33.5 -25.5t-30.5 -26t-13.5 -15.5t7 -7t17.5 -5t18.5 -2 h14q33 0 60.5 18.5t50.5 36.5q61 47 117.5 107.5t109.5 113.5q109 109 220.5 216.5t222.5 211.5q117 10 247.5 11.5t245.5 -2.5q-10 -14 -18 -26.5t-17 -27.5q-27 -4 -52 -9t-50 -9q-20 -4 -21 -18q0 -12 3 -19q0 -8 9 -14t25 -4l45 6q-10 -20 -22 -42t-25 -44 q-86 -143 -147.5 -235.5t-61.5 -106.5q4 -43 24.5 -81t48.5 -65.5t54.5 -44t42.5 -16.5q86 0 181.5 11t190.5 28.5t184.5 38t160 39t118.5 33t60 16.5q10 16 3 38.5t-25 28.5q-18 -6 -76.5 -18t-139.5 -26.5t-176.5 -31t-184.5 -29.5t-164.5 -21.5t-116.5 -8.5 q-18 0 -22.5 7.5t-4.5 17.5q-2 12 23.5 61t68.5 122t101.5 164t121.5 191q84 10 166 17.5t164 15.5q53 6 115.5 10.5t119 8.5t97.5 6t51 2q41 0 39 4q0 25 -31 39q-33 14 -141 14q-131 0 -266 -11t-264 -28q74 117 147.5 231.5t135 212t103.5 168t52 99.5q86 8 172 16.5 t170 16.5q68 6 146.5 12t149.5 11t123 7t64 2q49 1 49 9q-4 27 -41 47q-16 8 -63 12t-115 4q-147 0 -301.5 -11t-302.5 -30q4 12 6 25.5t2 27.5q0 12 -5 36t-23 24q-29 0 -110 -45t-189 -117q-41 -6 -79 -13t-73 -16q-27 -4 -27 -20t3 -25q0 -8 9 -15t25 -7 q-63 -45 -126.5 -92t-127.5 -95q-78 -61 -152.5 -120.5t-139 -111.5t-115.5 -96t-84 -73q-59 -2 -105.5 -7t-103.5 -11q-25 -2 -89.5 -11.5t-146 -23t-171 -30.5t-163 -38.5t-121.5 -47.5t-48 -52zM1085 766q18 16 70.5 58t123.5 98.5t156 121t169 126t161.5 116.5t135.5 92 l26 4q-37 -53 -85 -124.5t-100 -153.5t-107.5 -172t-108.5 -178q-106 6 -220 9t-221 3z" />
<glyph unicode="&#xc7;" horiz-adv-x="1255" d="M-131 -356q0 -16 20.5 -27.5t48 -18t55 -9.5t40.5 -3q31 0 60.5 15.5t54 39t40 53.5t15.5 60q0 37 -22.5 61.5t-59.5 24.5q10 14 22.5 26.5t22.5 24.5q37 -14 82 -14q92 0 190.5 23.5t192.5 59.5t180 80t154.5 84t114.5 70.5t61 43.5q8 10 0 19t-21 9q-12 -10 -53 -37.5 t-103.5 -63.5t-142.5 -76t-169 -72.5t-184 -54t-187 -21.5q-88 0 -127 50t-39 124q0 82 53 186.5t144 217t213 230t258.5 226t280.5 205t279.5 168t255 113.5t209.5 42q43 0 68 -17.5t25 -45.5q0 -43 -38 -94.5t-84 -96.5t-87 -75.5t-50 -30.5q-8 0 -12 3t-8 8t-10 8t-19 3 q-14 0 -54 -25.5t-92 -64.5t-109.5 -87t-105.5 -93t-79 -81t-31 -50q0 -29 19.5 -46.5t42.5 -17.5q18 0 81.5 40t147.5 103.5t176 143.5t170 161t128 154.5t50 124.5q0 27 -7 56.5t-28.5 53.5t-61.5 39t-107 15q-100 0 -226.5 -40t-264.5 -111.5t-281.5 -167.5t-277.5 -208 t-253 -234.5t-207 -246.5t-139 -244t-51 -226q0 -72 24.5 -120t63.5 -77q-23 -35 -50.5 -65.5t-56.5 -59.5q8 2 23 2q16 0 30.5 -3t24.5 -10t10 -20q0 -31 -12 -52t-30.5 -34.5t-39 -19.5t-38.5 -6q-25 0 -47.5 11t-47.5 11q-8 0 -13 -9t-5 -17z" />
<glyph unicode="&#xc8;" horiz-adv-x="1243" d="M102 141q0 -16 10.5 -48t27 -62.5t37 -53t38.5 -22.5q76 0 185.5 14.5t232.5 37t247 53t232 61.5q6 8 6 20q0 35 -28 47q-45 -12 -116 -26.5t-155 -28.5t-173 -28.5t-170 -25.5t-146.5 -18.5t-100.5 -7.5q-27 0 -26 25q0 12 20.5 53t52 95.5t70.5 117t74 117.5t62.5 97 t37.5 58q176 18 355.5 39t357.5 21h22t17 4q0 20 -22.5 31.5t-52.5 16.5t-58 5h-41q-133 0 -265.5 -11t-263.5 -28q72 115 145.5 227.5t145.5 227.5q37 59 80 124.5t66 131.5q98 10 202.5 21.5t211 21.5t211 16t200.5 6h29q20 1 20 9q0 27 -28.5 40t-65.5 18t-74 5h-49 q-170 0 -338 -15.5t-334 -39.5l-47 8l-26 -18q-33 -6 -71 -11.5t-77 -11.5t-77 -13t-68 -18q-25 -6 -25 -28q0 -23 10.5 -31t34.5 -8q47 0 99.5 10t99.5 16q-27 -39 -81 -122.5t-119.5 -187t-134.5 -214t-124 -201.5q-10 -2 -30.5 -4t-42 -7t-37 -12t-15.5 -20q0 -18 8 -24 t27 -6q12 0 25.5 3t25.5 5q-6 -12 -26.5 -47t-48 -82t-57.5 -100.5t-54.5 -99.5t-41 -79.5t-16.5 -42.5zM1153 1808q12 -4 45 -13t67.5 -26.5t66.5 -44t44 -65.5q6 -6 17 -2q10 2 6 14q-8 31 -27.5 59.5t-43 55t-49.5 52.5t-44 50q-10 10 -20.5 5t-14.5 -7q-8 -2 -16 -11 t-15.5 -21.5t-11.5 -24.5t-4 -21z" />
<glyph unicode="&#xc9;" horiz-adv-x="1243" d="M102 141q0 -16 10.5 -48t27 -62.5t37 -53t38.5 -22.5q76 0 185.5 14.5t232.5 37t247 53t232 61.5q6 8 6 20q0 35 -28 47q-45 -12 -116 -26.5t-155 -28.5t-173 -28.5t-170 -25.5t-146.5 -18.5t-100.5 -7.5q-27 0 -26 25q0 12 20.5 53t52 95.5t70.5 117t74 117.5t62.5 97 t37.5 58q176 18 355.5 39t357.5 21h22t17 4q0 20 -22.5 31.5t-52.5 16.5t-58 5h-41q-133 0 -265.5 -11t-263.5 -28q72 115 145.5 227.5t145.5 227.5q37 59 80 124.5t66 131.5q98 10 202.5 21.5t211 21.5t211 16t200.5 6h29q20 1 20 9q0 27 -28.5 40t-65.5 18t-74 5h-49 q-170 0 -338 -15.5t-334 -39.5l-47 8l-26 -18q-33 -6 -71 -11.5t-77 -11.5t-77 -13t-68 -18q-25 -6 -25 -28q0 -23 10.5 -31t34.5 -8q47 0 99.5 10t99.5 16q-27 -39 -81 -122.5t-119.5 -187t-134.5 -214t-124 -201.5q-10 -2 -30.5 -4t-42 -7t-37 -12t-15.5 -20q0 -18 8 -24 t27 -6q12 0 25.5 3t25.5 5q-6 -12 -26.5 -47t-48 -82t-57.5 -100.5t-54.5 -99.5t-41 -79.5t-16.5 -42.5zM1282 1649q-4 -12 8 -15q4 -2 8.5 0t8.5 4q4 16 30.5 44t61.5 53.5t68.5 44t50.5 14.5l6 4q0 6 -6.5 18.5t-14.5 24.5t-17 22.5t-18 12.5q-6 2 -14 6t-18 -6 q-14 -12 -38 -43t-48.5 -66.5t-44 -68.5t-23.5 -49z" />
<glyph unicode="&#xca;" horiz-adv-x="1243" d="M102 141q0 -16 10.5 -48t27 -62.5t37 -53t38.5 -22.5q76 0 185.5 14.5t232.5 37t247 53t232 61.5q6 8 6 20q0 35 -28 47q-45 -12 -116 -26.5t-155 -28.5t-173 -28.5t-170 -25.5t-146.5 -18.5t-100.5 -7.5q-27 0 -26 25q0 12 20.5 53t52 95.5t70.5 117t74 117.5t62.5 97 t37.5 58q176 18 355.5 39t357.5 21h22t17 4q0 20 -22.5 31.5t-52.5 16.5t-58 5h-41q-133 0 -265.5 -11t-263.5 -28q72 115 145.5 227.5t145.5 227.5q37 59 80 124.5t66 131.5q98 10 202.5 21.5t211 21.5t211 16t200.5 6h29q20 1 20 9q0 27 -28.5 40t-65.5 18t-74 5h-49 q-170 0 -338 -15.5t-334 -39.5l-47 8l-26 -18q-33 -6 -71 -11.5t-77 -11.5t-77 -13t-68 -18q-25 -6 -25 -28q0 -23 10.5 -31t34.5 -8q47 0 99.5 10t99.5 16q-27 -39 -81 -122.5t-119.5 -187t-134.5 -214t-124 -201.5q-10 -2 -30.5 -4t-42 -7t-37 -12t-15.5 -20q0 -18 8 -24 t27 -6q12 0 25.5 3t25.5 5q-6 -12 -26.5 -47t-48 -82t-57.5 -100.5t-54.5 -99.5t-41 -79.5t-16.5 -42.5zM1139 1653l14 -6l23 8q2 14 29.5 36.5t61 44t67.5 40t50 28.5q33 -23 57.5 -50.5t33.5 -61.5q4 -10 3 -19.5t1 -17.5q2 -4 8 -6t10 -2q12 0 14 18.5t2 24.5q0 14 -6 50 t-19 72.5t-32.5 65.5t-44.5 29q-35 0 -46 -13.5t-28 -31.5q-14 -14 -47 -39t-66.5 -53.5t-59 -59.5t-25.5 -57z" />
<glyph unicode="&#xcb;" horiz-adv-x="1243" d="M102 141q0 -16 10.5 -48t27 -62.5t37 -53t38.5 -22.5q76 0 185.5 14.5t232.5 37t247 53t232 61.5q6 8 6 20q0 35 -28 47q-45 -12 -116 -26.5t-155 -28.5t-173 -28.5t-170 -25.5t-146.5 -18.5t-100.5 -7.5q-27 0 -26 25q0 12 20.5 53t52 95.5t70.5 117t74 117.5t62.5 97 t37.5 58q176 18 355.5 39t357.5 21h22t17 4q0 20 -22.5 31.5t-52.5 16.5t-58 5h-41q-133 0 -265.5 -11t-263.5 -28q72 115 145.5 227.5t145.5 227.5q37 59 80 124.5t66 131.5q98 10 202.5 21.5t211 21.5t211 16t200.5 6h29q20 1 20 9q0 27 -28.5 40t-65.5 18t-74 5h-49 q-170 0 -338 -15.5t-334 -39.5l-47 8l-26 -18q-33 -6 -71 -11.5t-77 -11.5t-77 -13t-68 -18q-25 -6 -25 -28q0 -23 10.5 -31t34.5 -8q47 0 99.5 10t99.5 16q-27 -39 -81 -122.5t-119.5 -187t-134.5 -214t-124 -201.5q-10 -2 -30.5 -4t-42 -7t-37 -12t-15.5 -20q0 -18 8 -24 t27 -6q12 0 25.5 3t25.5 5q-6 -12 -26.5 -47t-48 -82t-57.5 -100.5t-54.5 -99.5t-41 -79.5t-16.5 -42.5zM1145 1731q-16 -31 6.5 -46.5t56.5 -15.5q35 0 53.5 13.5t18.5 48.5q0 74 -68 73q-35 0 -45 -22.5t-22 -50.5zM1372 1731q-16 -31 6.5 -46.5t57.5 -15.5t52 13.5 t17 48.5q0 74 -67 73q-35 0 -44.5 -22.5t-21.5 -50.5z" />
<glyph unicode="&#xcc;" horiz-adv-x="743" d="M80 1169q0 -10 8 -23t20.5 -26.5t24.5 -23t23 -9.5q8 0 45 23t76.5 50.5t73.5 52t38 30.5q10 10 9 28.5t-1 28.5q0 2 31 21.5t82 46.5t115.5 57.5t134 56t136.5 43t122 17.5q49 0 79.5 -16.5t30.5 -69.5q0 -35 -38.5 -111.5t-102 -178t-145.5 -220.5t-168 -237.5 t-169 -229t-148.5 -197.5t-108.5 -141.5t-47 -58.5q-18 -23 -37 -34t-19 -34q0 -20 22.5 -44.5t51.5 -24.5q10 0 35 16t56.5 43t66.5 56.5t62.5 58t46 49t18.5 27.5q0 18 -6 34.5t-6 26.5q0 6 23.5 39t61 82t84 108.5t89.5 118.5q29 39 72.5 96.5t93 125t98.5 141t89 147.5 t64.5 143.5t24.5 128.5q0 98 -48 160t-159 62q-82 0 -181 -30t-199.5 -74t-195 -98t-168 -102.5t-117.5 -85t-44 -49.5zM866 1831q12 -4 45 -12.5t68 -25.5t66.5 -44t44.5 -66q6 -6 18 -2q6 3 6 15q-10 29 -29.5 57.5t-43 56t-49 53t-44.5 50.5q-10 10 -19 5t-14 -7 q-16 -4 -32.5 -34t-16.5 -46z" />
<glyph unicode="&#xcd;" horiz-adv-x="743" d="M80 1169q0 -10 8 -23t20.5 -26.5t24.5 -23t23 -9.5q8 0 45 23t76.5 50.5t73.5 52t38 30.5q10 10 9 28.5t-1 28.5q0 2 31 21.5t82 46.5t115.5 57.5t134 56t136.5 43t122 17.5q49 0 79.5 -16.5t30.5 -69.5q0 -35 -38.5 -111.5t-102 -178t-145.5 -220.5t-168 -237.5 t-169 -229t-148.5 -197.5t-108.5 -141.5t-47 -58.5q-18 -23 -37 -34t-19 -34q0 -20 22.5 -44.5t51.5 -24.5q10 0 35 16t56.5 43t66.5 56.5t62.5 58t46 49t18.5 27.5q0 18 -6 34.5t-6 26.5q0 6 23.5 39t61 82t84 108.5t89.5 118.5q29 39 72.5 96.5t93 125t98.5 141t89 147.5 t64.5 143.5t24.5 128.5q0 98 -48 160t-159 62q-82 0 -181 -30t-199.5 -74t-195 -98t-168 -102.5t-117.5 -85t-44 -49.5zM1055 1702q-4 -12 8 -14q4 -2 8 0l8 4q4 16 31 43.5t61.5 53.5t68.5 44t50 14l6 4q0 6 -6 18.5t-14 25t-17.5 22.5t-17.5 12q-6 2 -14 6t-19 -6 q-14 -12 -37.5 -43t-48 -66.5t-44 -68.5t-23.5 -49z" />
<glyph unicode="&#xce;" horiz-adv-x="743" d="M80 1169q0 -10 8 -23t20.5 -26.5t24.5 -23t23 -9.5q8 0 45 23t76.5 50.5t73.5 52t38 30.5q10 10 9 28.5t-1 28.5q0 2 31 21.5t82 46.5t115.5 57.5t134 56t136.5 43t122 17.5q49 0 79.5 -16.5t30.5 -69.5q0 -35 -38.5 -111.5t-102 -178t-145.5 -220.5t-168 -237.5 t-169 -229t-148.5 -197.5t-108.5 -141.5t-47 -58.5q-18 -23 -37 -34t-19 -34q0 -20 22.5 -44.5t51.5 -24.5q10 0 35 16t56.5 43t66.5 56.5t62.5 58t46 49t18.5 27.5q0 18 -6 34.5t-6 26.5q0 6 23.5 39t61 82t84 108.5t89.5 118.5q29 39 72.5 96.5t93 125t98.5 141t89 147.5 t64.5 143.5t24.5 128.5q0 98 -48 160t-159 62q-82 0 -181 -30t-199.5 -74t-195 -98t-168 -102.5t-117.5 -85t-44 -49.5zM856 1655l14 -6l23 8q2 14 29.5 36.5t61.5 44t67.5 40t50.5 28.5q33 -23 57.5 -50t32.5 -62q4 -10 3 -19.5t1 -17.5q2 -4 8 -6t10 -2q12 0 14.5 18.5 t2.5 24.5q0 14 -6 50t-19.5 72.5t-33 65.5t-44.5 29q-35 0 -46 -13.5t-27 -31.5q-14 -14 -47 -39t-67 -53.5t-59.5 -59.5t-25.5 -57z" />
<glyph unicode="&#xcf;" horiz-adv-x="743" d="M80 1169q0 -10 8 -23t20.5 -26.5t24.5 -23t23 -9.5q8 0 45 23t76.5 50.5t73.5 52t38 30.5q10 10 9 28.5t-1 28.5q0 2 31 21.5t82 46.5t115.5 57.5t134 56t136.5 43t122 17.5q49 0 79.5 -16.5t30.5 -69.5q0 -35 -38.5 -111.5t-102 -178t-145.5 -220.5t-168 -237.5 t-169 -229t-148.5 -197.5t-108.5 -141.5t-47 -58.5q-18 -23 -37 -34t-19 -34q0 -20 22.5 -44.5t51.5 -24.5q10 0 35 16t56.5 43t66.5 56.5t62.5 58t46 49t18.5 27.5q0 18 -6 34.5t-6 26.5q0 6 23.5 39t61 82t84 108.5t89.5 118.5q29 39 72.5 96.5t93 125t98.5 141t89 147.5 t64.5 143.5t24.5 128.5q0 98 -48 160t-159 62q-82 0 -181 -30t-199.5 -74t-195 -98t-168 -102.5t-117.5 -85t-44 -49.5zM885 1749q-16 -31 6 -46t57 -15t53.5 13t18.5 48q0 74 -68 74q-35 0 -45 -22.5t-22 -51.5zM1112 1749q-16 -31 6.5 -46t57.5 -15t52 13t17 48 q0 74 -67 74q-35 0 -44.5 -22.5t-21.5 -51.5z" />
<glyph unicode="&#xd0;" horiz-adv-x="1429" d="M61 45q0 -16 7.5 -38.5t19.5 -44t27.5 -36t31.5 -14.5q14 0 44 44t62 99.5t57.5 104.5t31.5 59q0 16 -14 12q-6 -4 -21.5 -19t-33 -33.5t-32 -35t-20.5 -22.5l-6 4q0 6 29.5 49t81 113.5t123 164t155.5 197.5q59 2 112.5 3t94.5 3q29 2 55 2q29 0 58 5q2 0 18 1t16 5v8 q0 25 -19 38t-47 18t-56.5 6t-44.5 1h-113q113 133 216 248t183 200l128 136t48 59q0 14 -9 46t-19 49q92 23 174 37t151 14q141 0 203 -54.5t62 -146.5q0 -100 -62.5 -229t-166 -266.5t-236.5 -269.5t-273.5 -236.5t-276.5 -168t-245 -63.5q-72 0 -96.5 17.5t-24.5 42.5 q0 29 16.5 56.5t26.5 37.5q0 6 -4 11t-10 3q-6 -6 -19.5 -17.5t-27 -26.5t-23.5 -35.5t-10 -41.5q0 -23 18.5 -47t49 -46.5t70.5 -37t83 -14.5q131 0 275.5 62.5t285 166t267.5 237.5t224 276.5t154.5 282.5t57.5 257q0 70 -22.5 129t-73 101t-129 65.5t-191.5 23.5 q-139 0 -295 -39.5t-309.5 -102t-294.5 -136.5t-248.5 -143.5t-172 -125t-64.5 -77.5q0 -33 20.5 -54.5t42.5 -21.5q20 0 55 11.5t77 32t90 46t98 53.5q59 35 116.5 72t103.5 69.5t77.5 57.5t39.5 35q-2 12 -12 14t-20 0q-10 -6 -43 -26.5t-78 -48t-99.5 -59.5t-109.5 -62 q-84 -49 -158.5 -84t-103.5 -35q-14 0 -14 10t40.5 39t110.5 68.5t164 87t202.5 95.5t225.5 93t229 80q-39 -43 -105.5 -117t-147.5 -169t-173 -203.5t-182 -221.5q-66 -2 -125 -4t-102 -6q-25 -2 -49.5 -3t-49.5 -5q-2 0 -13 -2t-11 -4q0 -25 24.5 -45.5t47.5 -20.5h96 t112 2q-72 -92 -140 -187t-122.5 -179t-87.5 -146.5t-33 -89.5z" />
<glyph unicode="&#xd1;" horiz-adv-x="1966" d="M43 1288q0 -23 19.5 -28t33.5 -5q20 0 65.5 21.5t100.5 53.5t114.5 70t109 70.5t81 56t31.5 27.5q0 8 -8 12.5t-8 14.5q0 4 40 29.5t105.5 60.5t149.5 74t174 72.5t179 55t163 21.5q156 0 222 -55t66 -133q0 -59 -21.5 -128t-60 -145.5t-93 -158.5t-117.5 -166 q-129 -76 -261.5 -172t-256 -201.5t-232.5 -215t-189.5 -210t-128 -186.5t-47.5 -146q0 -25 19.5 -40t44.5 -15q49 0 131 50.5t181.5 136.5t212 200.5t225 243.5t218 267t193.5 270q119 66 226.5 103.5t199.5 37.5q47 0 66.5 -31t19.5 -65q0 -90 -43 -191.5t-106.5 -204 t-138 -203t-138 -188.5t-106.5 -158.5t-43 -113.5t31.5 -63.5t60.5 -20.5q23 0 66.5 24.5t97 60.5t110 80t104.5 83t81.5 67.5t40.5 34.5q0 20 -25 25q-14 -10 -64.5 -45t-105.5 -72t-101 -66.5t-53 -29.5q-31 0 -30 20q0 12 31.5 58.5t77.5 115t101.5 156.5t101.5 185 t78 198.5t32 197.5q0 88 -45.5 145.5t-147.5 57.5q-63 0 -141 -21.5t-164 -60.5q84 135 132 249t48 192q0 152 -99.5 220t-260.5 68q-129 0 -278.5 -44t-300 -110.5t-290 -146.5t-246 -151.5t-171 -124.5t-64.5 -70zM413 126q3 1 3 11q0 29 69.5 115t185 199.5t265 240.5 t309.5 238q-88 -104 -181 -203.5t-182 -190t-170 -165t-143.5 -130t-101.5 -86t-47 -30.5q-10 0 -7 1zM1837 1532l16 -31q41 29 60.5 37t46.5 8q16 0 38.5 -11t45 -23.5t42 -23.5t30.5 -11q8 0 31.5 13t52 29.5t55.5 33t39 22.5q-8 27 -25 35q-29 -8 -54.5 -26.5 t-53.5 -18.5q-14 0 -34 10t-39.5 22.5t-37.5 22.5t-31 10q-18 0 -43.5 -11t-52.5 -26.5t-50.5 -32t-35.5 -28.5z" />
<glyph unicode="&#xd2;" horiz-adv-x="1093" d="M-20 219q0 -61 20 -111.5t59 -86t91.5 -55t117.5 -19.5q135 0 276.5 63.5t274.5 169t251 244.5t205 291.5t138 308.5t51 295q0 147 -79.5 222t-227.5 75q-106 0 -217 -35t-214 -90t-192.5 -126t-154.5 -140q-4 -4 -16.5 -17.5t-25.5 -29t-23.5 -30.5t-10.5 -22 q0 -27 16.5 -44t45.5 -17q6 0 31.5 16.5t59 41t70.5 54t69 55t52.5 45t20.5 26.5q0 25 -10.5 28.5t-10.5 20.5q0 18 43 56t115 75t165 64.5t195 27.5q213 0 213 -211q0 -102 -52 -239.5t-138 -286t-198.5 -293t-235.5 -259t-246 -185t-232 -70.5q-104 0 -165.5 61.5 t-61.5 155.5q0 78 28.5 169t79 185t119 185.5t146.5 171t162 141t168 96.5q0 10 -6.5 26.5t-16.5 16.5q-2 0 -10 -4q-96 -39 -188.5 -107.5t-174.5 -154.5t-150.5 -184.5t-118.5 -199t-78.5 -195.5t-28.5 -175zM1042 1847q12 -4 45 -12t69 -25.5t66.5 -44t43.5 -65.5 q8 -6 18 -2q10 2 6 14q-10 29 -29.5 57.5t-43 56t-48 53.5t-45.5 50q-10 10 -19 5t-13 -7q-16 -4 -33 -33.5t-17 -46.5z" />
<glyph unicode="&#xd3;" horiz-adv-x="1093" d="M-20 219q0 -61 20 -111.5t59 -86t91.5 -55t117.5 -19.5q135 0 276.5 63.5t274.5 169t251 244.5t205 291.5t138 308.5t51 295q0 147 -79.5 222t-227.5 75q-106 0 -217 -35t-214 -90t-192.5 -126t-154.5 -140q-4 -4 -16.5 -17.5t-25.5 -29t-23.5 -30.5t-10.5 -22 q0 -27 16.5 -44t45.5 -17q6 0 31.5 16.5t59 41t70.5 54t69 55t52.5 45t20.5 26.5q0 25 -10.5 28.5t-10.5 20.5q0 18 43 56t115 75t165 64.5t195 27.5q213 0 213 -211q0 -102 -52 -239.5t-138 -286t-198.5 -293t-235.5 -259t-246 -185t-232 -70.5q-104 0 -165.5 61.5 t-61.5 155.5q0 78 28.5 169t79 185t119 185.5t146.5 171t162 141t168 96.5q0 10 -6.5 26.5t-16.5 16.5q-2 0 -10 -4q-96 -39 -188.5 -107.5t-174.5 -154.5t-150.5 -184.5t-118.5 -199t-78.5 -195.5t-28.5 -175zM1208 1698q-2 -12 9 -15q6 -2 16 5q4 14 30.5 41.5t61.5 54 t68.5 44t50.5 13.5l6 4q-2 16 -20.5 45t-34.5 33q-6 2 -15.5 6t-19.5 -6q-14 -12 -38 -43t-48.5 -65.5t-43 -67.5t-22.5 -49z" />
<glyph unicode="&#xd4;" horiz-adv-x="1093" d="M-20 219q0 -61 20 -111.5t59 -86t91.5 -55t117.5 -19.5q135 0 276.5 63.5t274.5 169t251 244.5t205 291.5t138 308.5t51 295q0 147 -79.5 222t-227.5 75q-106 0 -217 -35t-214 -90t-192.5 -126t-154.5 -140q-4 -4 -16.5 -17.5t-25.5 -29t-23.5 -30.5t-10.5 -22 q0 -27 16.5 -44t45.5 -17q6 0 31.5 16.5t59 41t70.5 54t69 55t52.5 45t20.5 26.5q0 25 -10.5 28.5t-10.5 20.5q0 18 43 56t115 75t165 64.5t195 27.5q213 0 213 -211q0 -102 -52 -239.5t-138 -286t-198.5 -293t-235.5 -259t-246 -185t-232 -70.5q-104 0 -165.5 61.5 t-61.5 155.5q0 78 28.5 169t79 185t119 185.5t146.5 171t162 141t168 96.5q0 10 -6.5 26.5t-16.5 16.5q-2 0 -10 -4q-96 -39 -188.5 -107.5t-174.5 -154.5t-150.5 -184.5t-118.5 -199t-78.5 -195.5t-28.5 -175zM1012 1683l14 -6l23 9q2 14 29.5 36.5t61.5 44t67.5 40 t49.5 28.5q33 -23 57.5 -50.5t33.5 -62.5q4 -10 3 -19t1 -17q2 -4 8 -6.5t10 -2.5q12 0 14 18.5t2 24.5q0 14 -6 50t-19 73t-32.5 65.5t-44.5 28.5q-35 0 -46 -13t-28 -32q-14 -14 -47 -38.5t-66.5 -53t-59 -59.5t-25.5 -58z" />
<glyph unicode="&#xd5;" horiz-adv-x="1093" d="M-20 219q0 -61 20 -111.5t59 -86t91.5 -55t117.5 -19.5q135 0 276.5 63.5t274.5 169t251 244.5t205 291.5t138 308.5t51 295q0 147 -79.5 222t-227.5 75q-106 0 -217 -35t-214 -90t-192.5 -126t-154.5 -140q-4 -4 -16.5 -17.5t-25.5 -29t-23.5 -30.5t-10.5 -22 q0 -27 16.5 -44t45.5 -17q6 0 31.5 16.5t59 41t70.5 54t69 55t52.5 45t20.5 26.5q0 25 -10.5 28.5t-10.5 20.5q0 18 43 56t115 75t165 64.5t195 27.5q213 0 213 -211q0 -102 -52 -239.5t-138 -286t-198.5 -293t-235.5 -259t-246 -185t-232 -70.5q-104 0 -165.5 61.5 t-61.5 155.5q0 78 28.5 169t79 185t119 185.5t146.5 171t162 141t168 96.5q0 10 -6.5 26.5t-16.5 16.5q-2 0 -10 -4q-96 -39 -188.5 -107.5t-174.5 -154.5t-150.5 -184.5t-118.5 -199t-78.5 -195.5t-28.5 -175zM1028 1778l16 -29q41 29 61.5 36t45.5 7q16 0 38.5 -11.5 t45 -23.5t42 -23.5t30.5 -11.5q8 0 31.5 13.5t52 30t55.5 33t39 22.5q-8 27 -23 34q-29 -6 -55.5 -25.5t-54.5 -19.5q-12 0 -32 10.5t-40 24t-38.5 23.5t-31.5 10q-18 0 -43.5 -11.5t-52.5 -26.5t-50.5 -32.5t-35.5 -29.5z" />
<glyph unicode="&#xd6;" horiz-adv-x="1093" d="M-20 219q0 -61 20 -111.5t59 -86t91.5 -55t117.5 -19.5q135 0 276.5 63.5t274.5 169t251 244.5t205 291.5t138 308.5t51 295q0 147 -79.5 222t-227.5 75q-106 0 -217 -35t-214 -90t-192.5 -126t-154.5 -140q-4 -4 -16.5 -17.5t-25.5 -29t-23.5 -30.5t-10.5 -22 q0 -27 16.5 -44t45.5 -17q6 0 31.5 16.5t59 41t70.5 54t69 55t52.5 45t20.5 26.5q0 25 -10.5 28.5t-10.5 20.5q0 18 43 56t115 75t165 64.5t195 27.5q213 0 213 -211q0 -102 -52 -239.5t-138 -286t-198.5 -293t-235.5 -259t-246 -185t-232 -70.5q-104 0 -165.5 61.5 t-61.5 155.5q0 78 28.5 169t79 185t119 185.5t146.5 171t162 141t168 96.5q0 10 -6.5 26.5t-16.5 16.5q-2 0 -10 -4q-96 -39 -188.5 -107.5t-174.5 -154.5t-150.5 -184.5t-118.5 -199t-78.5 -195.5t-28.5 -175zM1042 1776q-16 -31 6.5 -46.5t57.5 -15.5t53.5 13.5t18.5 48.5 q0 74 -68 73q-35 0 -45 -22.5t-23 -50.5zM1270 1776q-16 -31 6 -46.5t57 -15.5t52.5 13.5t17.5 48.5q0 74 -68 73q-35 0 -44 -22.5t-21 -50.5z" />
<glyph unicode="&#xd8;" horiz-adv-x="1093" d="M-114.5 -141q-2.5 -17 5 -24t24.5 -3t42 29q4 4 24.5 26.5t43 48t42 47t23.5 25.5q31 -29 74 -45t102 -16q135 0 276.5 63.5t273.5 169t250 244.5t205 291.5t138 308.5t51 295q0 113 -47 184q6 8 21.5 25.5t33 37t33 38t21.5 26.5t8 26.5t-2 31t-17.5 13.5t-35.5 -24 l-109 -125q-78 61 -211 62q-106 0 -213.5 -33t-209 -87t-192.5 -124t-163 -145q-4 -4 -16.5 -17.5t-25.5 -29t-23.5 -30.5t-10.5 -22q0 -27 15.5 -44t43.5 -17q8 0 34 16.5t59.5 41t70.5 54t69 55t52.5 45t20.5 26.5q0 25 -10.5 28.5t-10.5 20.5q0 33 56.5 72.5t138.5 72.5 t170 55.5t153 22.5q113 0 168 -62q-307 -350 -610 -694t-610 -692q-20 49 -21 121q0 143 57.5 289.5t149.5 275.5t210 230.5t241 152.5q2 10 -4.5 26.5t-16.5 16.5q-4 0 -12 -4q-139 -57 -265 -165.5t-221.5 -247t-152 -295t-56.5 -308.5q0 -94 33 -158l-149 -167 q-16 -18 -18.5 -35zM150 72q111 117 214 237.5t206.5 243.5t207 245t211.5 238q96 102 190.5 203.5t186.5 208.5q4 -18 7 -38.5t3 -45.5q0 -102 -52 -239.5t-138 -286t-199 -293t-235.5 -259t-246.5 -185t-231 -70.5q-80 0 -124 41z" />
<glyph unicode="&#xd9;" horiz-adv-x="1665" d="M45 903q0 -20 13.5 -37.5t35.5 -17.5q10 0 49 22.5t90.5 56.5t108.5 74.5t105.5 77.5t80 64.5t31.5 36.5q0 18 -14.5 27.5t-14.5 19.5q0 12 40 40.5t103.5 64.5t142.5 75t155 70.5t142.5 52t105.5 20.5q20 0 33.5 -10t13.5 -33q0 -49 -41 -116.5t-105.5 -150.5 t-146.5 -177t-164 -197q-72 -90 -138.5 -182t-116.5 -186.5t-81 -187.5t-31 -183q0 -55 13.5 -102.5t41 -82t70.5 -55t103 -20.5q63 0 144 36t170 95t183.5 139t186.5 168q-57 -113 -92 -197.5t-31 -117.5q2 -16 11 -37t23.5 -40t32 -31.5t33.5 -10.5q14 2 39 49t49.5 105.5 t44 109.5t25.5 62q-4 16 -16 12q-6 -6 -19.5 -23.5t-28 -37t-27 -38t-18.5 -24.5l-8 2q0 6 29 60.5t78 142.5t116.5 201.5t149.5 240.5q96 150 160.5 247t103.5 154.5t54.5 83t15.5 33.5q-4 33 -46 45.5t-91 1.5q-37 -49 -72 -106t-78 -131t-100.5 -171t-137.5 -226 q-23 -37 -45 -75t-45 -79q-43 -53 -104.5 -117.5t-132 -132t-147 -131t-150.5 -114t-139.5 -80t-114.5 -29.5q-72 0 -110 40t-38 109q0 84 32 173t85 181.5t121 184.5t141 182q74 92 146.5 180t134 172t105.5 162t61 148q2 6 2 22q0 61 -49.5 98t-106.5 37q-61 0 -140 -23.5 t-168 -63.5t-183.5 -92t-184.5 -109q-96 -61 -183 -125t-152.5 -119t-104.5 -97t-39 -63zM1524 1675q12 -4 45 -13t68.5 -26.5t66.5 -44t43 -65.5q8 -6 18 -2q11 2 7 14q-10 31 -30 59.5t-43.5 55t-48 52.5t-44.5 50q-8 10 -18.5 5t-14.5 -7q-8 -2 -17.5 -11t-16.5 -21.5 t-11 -25t-4 -20.5z" />
<glyph unicode="&#xda;" horiz-adv-x="1665" d="M45 903q0 -20 13.5 -37.5t35.5 -17.5q10 0 49 22.5t90.5 56.5t108.5 74.5t105.5 77.5t80 64.5t31.5 36.5q0 18 -14.5 27.5t-14.5 19.5q0 12 40 40.5t103.5 64.5t142.5 75t155 70.5t142.5 52t105.5 20.5q20 0 33.5 -10t13.5 -33q0 -49 -41 -116.5t-105.5 -150.5 t-146.5 -177t-164 -197q-72 -90 -138.5 -182t-116.5 -186.5t-81 -187.5t-31 -183q0 -55 13.5 -102.5t41 -82t70.5 -55t103 -20.5q63 0 144 36t170 95t183.5 139t186.5 168q-57 -113 -92 -197.5t-31 -117.5q2 -16 11 -37t23.5 -40t32 -31.5t33.5 -10.5q14 2 39 49t49.5 105.5 t44 109.5t25.5 62q-4 16 -16 12q-6 -6 -19.5 -23.5t-28 -37t-27 -38t-18.5 -24.5l-8 2q0 6 29 60.5t78 142.5t116.5 201.5t149.5 240.5q96 150 160.5 247t103.5 154.5t54.5 83t15.5 33.5q-4 33 -46 45.5t-91 1.5q-37 -49 -72 -106t-78 -131t-100.5 -171t-137.5 -226 q-23 -37 -45 -75t-45 -79q-43 -53 -104.5 -117.5t-132 -132t-147 -131t-150.5 -114t-139.5 -80t-114.5 -29.5q-72 0 -110 40t-38 109q0 84 32 173t85 181.5t121 184.5t141 182q74 92 146.5 180t134 172t105.5 162t61 148q2 6 2 22q0 61 -49.5 98t-106.5 37q-61 0 -140 -23.5 t-168 -63.5t-183.5 -92t-184.5 -109q-96 -61 -183 -125t-152.5 -119t-104.5 -97t-39 -63zM1661 1448q-2 -12 8 -14q8 -4 17 4q4 14 30.5 41.5t61 54.5t68.5 44t50 13l7 6q-2 14 -20.5 43t-35.5 33q-6 2 -14 6t-18 -6q-14 -12 -38 -43t-48.5 -65.5t-44 -67.5t-23.5 -49z" />
<glyph unicode="&#xdb;" horiz-adv-x="1665" d="M45 903q0 -20 13.5 -37.5t35.5 -17.5q10 0 49 22.5t90.5 56.5t108.5 74.5t105.5 77.5t80 64.5t31.5 36.5q0 18 -14.5 27.5t-14.5 19.5q0 12 40 40.5t103.5 64.5t142.5 75t155 70.5t142.5 52t105.5 20.5q20 0 33.5 -10t13.5 -33q0 -49 -41 -116.5t-105.5 -150.5 t-146.5 -177t-164 -197q-72 -90 -138.5 -182t-116.5 -186.5t-81 -187.5t-31 -183q0 -55 13.5 -102.5t41 -82t70.5 -55t103 -20.5q63 0 144 36t170 95t183.5 139t186.5 168q-57 -113 -92 -197.5t-31 -117.5q2 -16 11 -37t23.5 -40t32 -31.5t33.5 -10.5q14 2 39 49t49.5 105.5 t44 109.5t25.5 62q-4 16 -16 12q-6 -6 -19.5 -23.5t-28 -37t-27 -38t-18.5 -24.5l-8 2q0 6 29 60.5t78 142.5t116.5 201.5t149.5 240.5q96 150 160.5 247t103.5 154.5t54.5 83t15.5 33.5q-4 33 -46 45.5t-91 1.5q-37 -49 -72 -106t-78 -131t-100.5 -171t-137.5 -226 q-23 -37 -45 -75t-45 -79q-43 -53 -104.5 -117.5t-132 -132t-147 -131t-150.5 -114t-139.5 -80t-114.5 -29.5q-72 0 -110 40t-38 109q0 84 32 173t85 181.5t121 184.5t141 182q74 92 146.5 180t134 172t105.5 162t61 148q2 6 2 22q0 61 -49.5 98t-106.5 37q-61 0 -140 -23.5 t-168 -63.5t-183.5 -92t-184.5 -109q-96 -61 -183 -125t-152.5 -119t-104.5 -97t-39 -63zM1534 1534l14 -6l23 8q2 14 29.5 36.5t61.5 44t67.5 40t50.5 29.5q33 -23 57.5 -50.5t32.5 -62.5q4 -10 3 -19.5t1 -17.5q2 -4 8 -6t10 -2q12 0 14.5 18.5t2.5 24.5q0 14 -6.5 50 t-19.5 73t-32.5 65.5t-44.5 28.5q-35 0 -46 -13.5t-27 -31.5q-14 -14 -47 -39t-67 -53.5t-59.5 -59t-25.5 -57.5z" />
<glyph unicode="&#xdc;" horiz-adv-x="1665" d="M45 903q0 -20 13.5 -37.5t35.5 -17.5q10 0 49 22.5t90.5 56.5t108.5 74.5t105.5 77.5t80 64.5t31.5 36.5q0 18 -14.5 27.5t-14.5 19.5q0 12 40 40.5t103.5 64.5t142.5 75t155 70.5t142.5 52t105.5 20.5q20 0 33.5 -10t13.5 -33q0 -49 -41 -116.5t-105.5 -150.5 t-146.5 -177t-164 -197q-72 -90 -138.5 -182t-116.5 -186.5t-81 -187.5t-31 -183q0 -55 13.5 -102.5t41 -82t70.5 -55t103 -20.5q63 0 144 36t170 95t183.5 139t186.5 168q-57 -113 -92 -197.5t-31 -117.5q2 -16 11 -37t23.5 -40t32 -31.5t33.5 -10.5q14 2 39 49t49.5 105.5 t44 109.5t25.5 62q-4 16 -16 12q-6 -6 -19.5 -23.5t-28 -37t-27 -38t-18.5 -24.5l-8 2q0 6 29 60.5t78 142.5t116.5 201.5t149.5 240.5q96 150 160.5 247t103.5 154.5t54.5 83t15.5 33.5q-4 33 -46 45.5t-91 1.5q-37 -49 -72 -106t-78 -131t-100.5 -171t-137.5 -226 q-23 -37 -45 -75t-45 -79q-43 -53 -104.5 -117.5t-132 -132t-147 -131t-150.5 -114t-139.5 -80t-114.5 -29.5q-72 0 -110 40t-38 109q0 84 32 173t85 181.5t121 184.5t141 182q74 92 146.5 180t134 172t105.5 162t61 148q2 6 2 22q0 61 -49.5 98t-106.5 37q-61 0 -140 -23.5 t-168 -63.5t-183.5 -92t-184.5 -109q-96 -61 -183 -125t-152.5 -119t-104.5 -97t-39 -63zM1559 1552q-16 -31 6 -46t57 -15t53.5 13t18.5 48q0 74 -68 74q-35 0 -45 -22.5t-22 -51.5zM1786 1552q-16 -31 6.5 -46t56.5 -15q35 0 52.5 13t17.5 48q0 74 -68 74q-35 0 -44 -22.5 t-21 -51.5z" />
<glyph unicode="&#xdd;" horiz-adv-x="1622" d="M66 -623q0 -43 15 -72.5t38.5 -49t51.5 -27.5t54 -8q72 0 159 34.5t181 96t193.5 144.5t197 179.5t189.5 201t172 206.5q49 63 99 136t102 151q25 -10 39 -28.5t26 -35.5q10 -4 21.5 3t9.5 18q-10 20 -26.5 42.5t-45.5 39.5q76 121 146.5 245.5t127 236t95.5 201 t51 142.5q55 33 63 33q4 10 -2 19t-18 13q-27 0 -82 -30.5t-129 -80.5t-163 -116.5t-181 -139.5t-184 -146.5t-172 -137.5q-119 -94 -256.5 -199.5t-262 -194.5t-222 -147.5t-136.5 -58.5q-12 0 -16 5t-4 9q0 33 39.5 93.5t104.5 142.5t147.5 178t168.5 198.5t169 205 t147.5 196.5t104.5 174t40 137q0 41 -6 78t-21.5 66t-44 45t-71.5 16q-68 0 -155 -36.5t-168 -86t-145.5 -97.5t-88.5 -68q-12 -10 -25.5 0t-27.5 10q-4 0 -26 -22.5t-51.5 -57.5t-62 -76t-60.5 -77t-46.5 -62.5t-18.5 -30.5q0 -16 20.5 -31.5t31.5 -15.5q6 0 47 44 t98 103.5t121.5 123t118.5 102.5q51 39 114.5 79t128 72.5t124 52t106.5 19.5q20 0 36.5 -9t16.5 -30q0 -72 -69.5 -179.5t-174 -234.5t-225.5 -265t-225.5 -269t-174 -246t-69.5 -194q0 -55 30.5 -87t69.5 -32t100.5 29.5t137.5 78.5t161 112.5t172 132.5t170 137.5 t152 127.5q63 53 145.5 118t170.5 131.5t176 131t166 117.5q-25 -66 -66 -152t-89 -178t-102.5 -183t-105.5 -171q-143 -10 -297.5 -64.5t-304 -140.5t-285 -192.5t-238 -219t-162.5 -224t-60 -204.5zM100 -639q0 80 56.5 182.5t151.5 210t222 213t269.5 191.5t293 144.5 t289.5 72.5q-18 -29 -37.5 -58.5t-39.5 -60.5q-82 -123 -180.5 -244t-203 -231.5t-209 -205.5t-198.5 -166t-173 -110.5t-132 -39.5q-70 0 -89.5 32.5t-19.5 69.5zM1444 1372q-4 -14 8 -16q6 0 16 6q4 14 31 42t61.5 54.5t68.5 44t50 13.5l7 4q0 8 -6.5 20t-14.5 24.5 t-17.5 21.5t-17.5 11q-6 2 -15 6.5t-20 -6.5q-14 -12 -37.5 -42.5t-48 -65.5t-43 -67.5t-22.5 -49.5z" />
<glyph unicode="&#xde;" horiz-adv-x="1316" d="M-193 604q0 -31 20.5 -53.5t43.5 -22.5q20 0 55 11.5t77 32t90 46t97 54.5q59 35 117 71.5t104 69.5t77.5 57.5t39.5 36.5q-2 10 -12 12.5t-20 0.5q-10 -6 -43 -27t-78 -48.5t-99.5 -59t-109.5 -62.5q-84 -49 -159 -84t-103 -35q-14 0 -15 10q0 20 37 52t100.5 72 t150.5 83t187.5 87t210 85t220.5 74q-90 -102 -174 -203.5t-156 -189.5q-74 -92 -146.5 -192.5t-129 -188.5t-92.5 -154.5t-36 -93.5q0 -16 7.5 -38.5t19.5 -44t27.5 -36t31.5 -14.5q14 0 44 44t62 99.5t57.5 104.5t31.5 59q0 16 -14 12q-6 -4 -21.5 -19t-33 -33.5t-32 -35 t-20.5 -22.5l-6 4q0 6 34 56t94 131t141 185.5t178 221.5q86 102 175 205.5t175 199.5q158 35 278 35q139 0 199.5 -43t60.5 -112q0 -68 -40 -146t-106.5 -156.5t-156.5 -151.5t-190.5 -129t-207 -90t-204.5 -34q-72 0 -102.5 17.5t-30.5 41.5q0 29 17.5 56.5t27.5 38.5 q-2 6 -6 11t-8 3q-6 -6 -19.5 -17.5t-27 -26.5t-23.5 -35.5t-10 -41.5q0 -31 18.5 -57.5t49 -45t70.5 -28.5t83 -10q121 0 236.5 33.5t218 91t187.5 132.5t146.5 157.5t96.5 167.5t35 161q0 59 -24 111.5t-73 90.5t-126.5 59.5t-188.5 21.5q-23 0 -45.5 -1t-44.5 -3 q57 63 106 118.5t85 96.5t56.5 65.5t20.5 28.5q0 6 -1 17.5t-10 22.5t-31.5 18t-63.5 7q-23 -25 -60 -65.5t-84 -94t-103 -118t-118 -133.5q-129 -31 -259 -81t-252 -108.5t-227.5 -121t-184 -116.5t-124 -96t-45.5 -61z" />
<glyph unicode="&#xdf;" horiz-adv-x="626" d="M-575 -379v-24q-2 -27 3 -55.5t19 -51t35.5 -38t54.5 -15.5q53 0 111.5 44t112 105.5t96.5 126t67 105.5q184 305 346 619.5t322 631.5q12 25 45 82t74 114.5t82 101.5t71 44q31 0 44.5 -21.5t13.5 -58.5q0 -45 -16.5 -100t-43 -113.5t-60.5 -115t-71 -103.5 q-55 -72 -117.5 -128t-116 -110.5t-89 -113t-35.5 -133.5q0 -49 17.5 -84t39 -64.5t38.5 -57.5t17 -61q0 -51 -42 -92t-93 -41q-33 0 -52 12.5t-30 12.5q-8 0 -20 -8q8 -33 42 -48.5t62 -15.5q39 0 81 15.5t76 43t55.5 63.5t21.5 79q0 35 -14.5 65.5t-32 61.5t-31.5 61.5 t-14 65.5q0 57 25.5 105t65.5 96.5t91 99.5t100 115q33 43 67 99t60.5 119.5t44 129.5t17.5 125q0 63 -23.5 103t-85.5 40q-39 0 -87 -30.5t-99.5 -82t-101.5 -120t-93 -144.5q-129 -236 -255 -493.5t-257 -505.5q-57 -109 -117.5 -215.5t-118 -191.5t-106.5 -138t-82 -53 q-20 0 -32.5 12t-18.5 28.5t-8 36t-2 33.5q0 70 26.5 145t61.5 132q0 18 -15 18q-20 0 -41.5 -34.5t-40 -80.5t-31.5 -89t-13 -60z" />
<glyph unicode="&#xe0;" horiz-adv-x="733" d="M-6 61q0 -31 13 -55t34 -24q14 0 45 21.5t67.5 51t74.5 63.5t64.5 58.5t58.5 52t59.5 51t47 40t21.5 16.5q4 0 7 -4t1 -10q-4 -8 -11 -47t-7 -66q0 -53 16.5 -90t53.5 -37q25 0 57.5 17.5t64 42t61.5 51t52 45.5q20 18 51 49.5t60.5 63.5t52.5 57.5t27 31.5q10 23 3 33 t-14 10q-8 -10 -26.5 -30.5t-45 -47t-57 -58.5t-61.5 -62q-57 -53 -108.5 -94t-73.5 -41q-16 0 -21.5 12t-5.5 28q0 20 8 47t18.5 54.5t18.5 53.5t8 44q0 29 -15 41t-40 12q-10 0 -31 -10q12 20 26.5 47t26 52.5t18.5 47t7 33.5q0 47 -27.5 70t-68.5 23q-49 0 -106.5 -34 t-114 -88.5t-108.5 -123t-92 -140t-64.5 -139t-24.5 -119.5zM57 72q0 33 33 94t92 139q45 59 98.5 118.5t104.5 105.5t92 75t62 29q18 -1 18 -19q0 -8 -14.5 -34.5t-31.5 -56t-33.5 -55.5t-20.5 -30q-8 -10 -16.5 -17t-8.5 -11t10.5 -10.5t24.5 -10.5q-31 -27 -65.5 -59.5 t-71.5 -65.5q-35 -31 -78 -68.5t-83 -69.5t-69.5 -53.5t-36.5 -21.5q-6 0 -6 21zM332 915q12 -4 45 -13t67.5 -26.5t66.5 -44t44 -65.5q6 -6 18 -2q7 2 7 14q-10 31 -30 59.5t-43.5 55.5t-49 52.5t-43.5 49.5q-10 10 -19.5 5t-13.5 -7q-8 -2 -17.5 -11t-16.5 -21.5 t-11 -24.5t-4 -21z" />
<glyph unicode="&#xe1;" horiz-adv-x="733" d="M-6 61q0 -31 13 -55t34 -24q14 0 45 21.5t67.5 51t74.5 63.5t64.5 58.5t58.5 52t59.5 51t47 40t21.5 16.5q4 0 7 -4t1 -10q-4 -8 -11 -47t-7 -66q0 -53 16.5 -90t53.5 -37q25 0 57.5 17.5t64 42t61.5 51t52 45.5q20 18 51 49.5t60.5 63.5t52.5 57.5t27 31.5q10 23 3 33 t-14 10q-8 -10 -26.5 -30.5t-45 -47t-57 -58.5t-61.5 -62q-57 -53 -108.5 -94t-73.5 -41q-16 0 -21.5 12t-5.5 28q0 20 8 47t18.5 54.5t18.5 53.5t8 44q0 29 -15 41t-40 12q-10 0 -31 -10q12 20 26.5 47t26 52.5t18.5 47t7 33.5q0 47 -27.5 70t-68.5 23q-49 0 -106.5 -34 t-114 -88.5t-108.5 -123t-92 -140t-64.5 -139t-24.5 -119.5zM57 72q0 33 33 94t92 139q45 59 98.5 118.5t104.5 105.5t92 75t62 29q18 -1 18 -19q0 -8 -14.5 -34.5t-31.5 -56t-33.5 -55.5t-20.5 -30q-8 -10 -16.5 -17t-8.5 -11t10.5 -10.5t24.5 -10.5q-31 -27 -65.5 -59.5 t-71.5 -65.5q-35 -31 -78 -68.5t-83 -69.5t-69.5 -53.5t-36.5 -21.5q-6 0 -6 21zM492 780q-2 -10 10 -14q4 -2 7 0t7 4q4 16 30.5 44t61.5 53.5t69 43t52 13.5l4 6q-2 14 -20.5 42.5t-32.5 33.5q-6 2 -15.5 6t-19.5 -6q-14 -12 -37.5 -43t-48 -66t-44 -67.5t-23.5 -49.5z " />
<glyph unicode="&#xe2;" horiz-adv-x="733" d="M-6 61q0 -31 13 -55t34 -24q14 0 45 21.5t67.5 51t74.5 63.5t64.5 58.5t58.5 52t59.5 51t47 40t21.5 16.5q4 0 7 -4t1 -10q-4 -8 -11 -47t-7 -66q0 -53 16.5 -90t53.5 -37q25 0 57.5 17.5t64 42t61.5 51t52 45.5q20 18 51 49.5t60.5 63.5t52.5 57.5t27 31.5q10 23 3 33 t-14 10q-8 -10 -26.5 -30.5t-45 -47t-57 -58.5t-61.5 -62q-57 -53 -108.5 -94t-73.5 -41q-16 0 -21.5 12t-5.5 28q0 20 8 47t18.5 54.5t18.5 53.5t8 44q0 29 -15 41t-40 12q-10 0 -31 -10q12 20 26.5 47t26 52.5t18.5 47t7 33.5q0 47 -27.5 70t-68.5 23q-49 0 -106.5 -34 t-114 -88.5t-108.5 -123t-92 -140t-64.5 -139t-24.5 -119.5zM57 72q0 33 33 94t92 139q45 59 98.5 118.5t104.5 105.5t92 75t62 29q18 -1 18 -19q0 -8 -14.5 -34.5t-31.5 -56t-33.5 -55.5t-20.5 -30q-8 -10 -16.5 -17t-8.5 -11t10.5 -10.5t24.5 -10.5q-31 -27 -65.5 -59.5 t-71.5 -65.5q-35 -31 -78 -68.5t-83 -69.5t-69.5 -53.5t-36.5 -21.5q-6 0 -6 21zM330 770l14 -6l23 8q2 14 29.5 36.5t61.5 44t67.5 40t49.5 29.5q33 -23 57.5 -50.5t33.5 -62.5q4 -10 3 -19.5t1 -17.5q2 -4 8 -6t10 -2q12 0 14.5 18.5t2.5 24.5q0 14 -6.5 50t-19.5 73 t-32.5 65.5t-44.5 28.5q-35 0 -46 -13.5t-28 -31.5q-14 -14 -46.5 -39t-66.5 -53.5t-59.5 -59t-25.5 -57.5z" />
<glyph unicode="&#xe3;" horiz-adv-x="733" d="M-6 61q0 -31 13 -55t34 -24q14 0 45 21.5t67.5 51t74.5 63.5t64.5 58.5t58.5 52t59.5 51t47 40t21.5 16.5q4 0 7 -4t1 -10q-4 -8 -11 -47t-7 -66q0 -53 16.5 -90t53.5 -37q25 0 57.5 17.5t64 42t61.5 51t52 45.5q20 18 51 49.5t60.5 63.5t52.5 57.5t27 31.5q10 23 3 33 t-14 10q-8 -10 -26.5 -30.5t-45 -47t-57 -58.5t-61.5 -62q-57 -53 -108.5 -94t-73.5 -41q-16 0 -21.5 12t-5.5 28q0 20 8 47t18.5 54.5t18.5 53.5t8 44q0 29 -15 41t-40 12q-10 0 -31 -10q12 20 26.5 47t26 52.5t18.5 47t7 33.5q0 47 -27.5 70t-68.5 23q-49 0 -106.5 -34 t-114 -88.5t-108.5 -123t-92 -140t-64.5 -139t-24.5 -119.5zM57 72q0 33 33 94t92 139q45 59 98.5 118.5t104.5 105.5t92 75t62 29q18 -1 18 -19q0 -8 -14.5 -34.5t-31.5 -56t-33.5 -55.5t-20.5 -30q-8 -10 -16.5 -17t-8.5 -11t10.5 -10.5t24.5 -10.5q-31 -27 -65.5 -59.5 t-71.5 -65.5q-35 -31 -78 -68.5t-83 -69.5t-69.5 -53.5t-36.5 -21.5q-6 0 -6 21zM356 831l17 -28q41 29 61.5 36t44.5 7q16 0 39 -11.5t45.5 -23.5t42 -23.5t29.5 -11.5q8 0 31.5 13.5t52.5 30t55.5 32.5t38.5 22q-8 27 -22 35q-29 -6 -55.5 -25.5t-55.5 -19.5 q-12 0 -31.5 10.5t-40 23.5t-39 23.5t-30.5 10.5q-18 0 -44 -11.5t-52.5 -26.5t-50 -32.5t-36.5 -30.5z" />
<glyph unicode="&#xe4;" horiz-adv-x="733" d="M-6 61q0 -31 13 -55t34 -24q14 0 45 21.5t67.5 51t74.5 63.5t64.5 58.5t58.5 52t59.5 51t47 40t21.5 16.5q4 0 7 -4t1 -10q-4 -8 -11 -47t-7 -66q0 -53 16.5 -90t53.5 -37q25 0 57.5 17.5t64 42t61.5 51t52 45.5q20 18 51 49.5t60.5 63.5t52.5 57.5t27 31.5q10 23 3 33 t-14 10q-8 -10 -26.5 -30.5t-45 -47t-57 -58.5t-61.5 -62q-57 -53 -108.5 -94t-73.5 -41q-16 0 -21.5 12t-5.5 28q0 20 8 47t18.5 54.5t18.5 53.5t8 44q0 29 -15 41t-40 12q-10 0 -31 -10q12 20 26.5 47t26 52.5t18.5 47t7 33.5q0 47 -27.5 70t-68.5 23q-49 0 -106.5 -34 t-114 -88.5t-108.5 -123t-92 -140t-64.5 -139t-24.5 -119.5zM57 72q0 33 33 94t92 139q45 59 98.5 118.5t104.5 105.5t92 75t62 29q18 -1 18 -19q0 -8 -14.5 -34.5t-31.5 -56t-33.5 -55.5t-20.5 -30q-8 -10 -16.5 -17t-8.5 -11t10.5 -10.5t24.5 -10.5q-31 -27 -65.5 -59.5 t-71.5 -65.5q-35 -31 -78 -68.5t-83 -69.5t-69.5 -53.5t-36.5 -21.5q-6 0 -6 21zM387 838q-16 -31 6.5 -46.5t57.5 -15.5t53 13.5t18 48.5q0 74 -67 73q-35 0 -45.5 -22.5t-22.5 -50.5zM614 838q-16 -31 6.5 -46.5t57.5 -15.5t52.5 13.5t17.5 48.5q0 74 -68 73 q-35 0 -44 -22.5t-22 -50.5z" />
<glyph unicode="&#xe5;" horiz-adv-x="733" d="M-6 61q0 -31 13 -55t34 -24q14 0 45 21.5t67.5 51t74.5 63.5t64.5 58.5t58.5 52t59.5 51t47 40t21.5 16.5q4 0 7 -4t1 -10q-4 -8 -11 -47t-7 -66q0 -53 16.5 -90t53.5 -37q25 0 57.5 17.5t64 42t61.5 51t52 45.5q20 18 51 49.5t60.5 63.5t52.5 57.5t27 31.5q10 23 3 33 t-14 10q-8 -10 -26.5 -30.5t-45 -47t-57 -58.5t-61.5 -62q-57 -53 -108.5 -94t-73.5 -41q-16 0 -21.5 12t-5.5 28q0 20 8 47t18.5 54.5t18.5 53.5t8 44q0 29 -15 41t-40 12q-10 0 -31 -10q12 20 26.5 47t26 52.5t18.5 47t7 33.5q0 47 -27.5 70t-68.5 23q-49 0 -106.5 -34 t-114 -88.5t-108.5 -123t-92 -140t-64.5 -139t-24.5 -119.5zM57 72q0 33 33 94t92 139q45 59 98.5 118.5t104.5 105.5t92 75t62 29q18 -1 18 -19q0 -8 -14.5 -34.5t-31.5 -56t-33.5 -55.5t-20.5 -30q-8 -10 -16.5 -17t-8.5 -11t10.5 -10.5t24.5 -10.5q-31 -27 -65.5 -59.5 t-71.5 -65.5q-35 -31 -78 -68.5t-83 -69.5t-69.5 -53.5t-36.5 -21.5q-6 0 -6 21zM446 897q0 -49 32 -77.5t79 -28.5q37 0 75 17t68.5 45t49 63.5t18.5 74.5q0 49 -33 78t-80 29q-37 0 -74.5 -17.5t-67.5 -45t-48.5 -63.5t-18.5 -75zM516 920q0 43 38 77.5t81 34.5 q29 0 46 -16t17 -45q0 -43 -37.5 -78t-80.5 -35q-29 0 -46.5 16.5t-17.5 45.5z" />
<glyph unicode="&#xe6;" horiz-adv-x="1007" d="M-6 61q0 -31 13 -55t34 -24q14 0 45 21.5t67.5 51t74.5 63.5t64.5 58.5t58.5 52t59.5 51t47 40t21.5 16.5q4 0 7 -4t1 -10q-10 -27 -16 -75t-6 -79q0 -84 47 -128t121 -44q43 0 92 17.5t98 47t98.5 68.5t96.5 80q92 82 147 144t78 91q10 16 5 34t-21 18 q-37 -47 -104.5 -119t-149.5 -141q-86 -74 -174 -128.5t-154 -54.5q-35 0 -54.5 23.5t-19.5 64.5q0 37 14.5 80t37.5 86q47 12 115.5 41t132 66t108.5 76.5t45 76.5q0 33 -27.5 47.5t-46.5 26.5q-16 12 -35.5 31.5t-48.5 19.5q-25 0 -62.5 -19.5t-79.5 -53t-84 -78.5 t-79 -99q-20 0 -39 -10q12 20 26.5 47t26 52.5t18.5 47t7 33.5q0 47 -27.5 70t-68.5 23q-49 0 -106.5 -34t-114 -88.5t-108.5 -123t-92 -140t-64.5 -139t-24.5 -119.5zM57 72q0 33 33 94t92 139q45 59 98.5 118.5t104.5 105.5t92 75t62 29q18 -1 18 -19q0 -8 -14.5 -34.5 t-31.5 -56t-33.5 -55.5t-20.5 -30q-8 -10 -16.5 -17t-8.5 -11t10.5 -10.5t24.5 -10.5q-31 -27 -65.5 -59.5t-71.5 -65.5q-35 -31 -78 -68.5t-83 -69.5t-69.5 -53.5t-36.5 -21.5q-6 0 -6 21zM678 399q27 39 57.5 74t60 60.5t56.5 41t45 15.5q31 0 40 -10.5t9 -24.5 q0 -10 -26.5 -32.5t-67.5 -47t-88 -46t-86 -30.5z" />
<glyph unicode="&#xe7;" horiz-adv-x="532" d="M-145 -272q0 -16 21.5 -27.5t49 -19t54 -10.5t38.5 -3q31 0 62 15.5t55.5 39t39.5 54t15 61.5q0 35 -22.5 60.5t-58.5 25.5q16 18 31.5 35.5t29.5 38.5q10 -2 29 -2q35 0 75.5 17.5t86 46t91.5 67.5t91 80q72 66 131 130t94 107q10 16 5 34t-21 18q-31 -39 -93.5 -106.5 t-138.5 -137.5q-43 -39 -86 -75t-84 -63.5t-76.5 -44t-62.5 -16.5q-35 0 -54.5 23.5t-19.5 64.5q0 76 37 155t89 144.5t107.5 107.5t92.5 42q16 0 16 -10v-25q0 -12 -4 -26.5t-4 -24.5q0 -14 6 -15q14 0 39 18.5t25 59.5q0 12 -11.5 34t-28 42.5t-34.5 34.5t-35 14 q-27 0 -66.5 -21.5t-84.5 -58.5t-89.5 -88t-80 -108.5t-58 -121t-22.5 -126.5q0 -57 23.5 -96t64.5 -60q-27 -37 -56.5 -70.5t-62.5 -66.5h23q16 0 30.5 -3t25.5 -10t11 -20q0 -31 -12 -52t-30.5 -33.5t-40 -18.5t-38.5 -6q-25 0 -47 11t-47 11q-8 0 -14 -10t-6 -16z" />
<glyph unicode="&#xe8;" horiz-adv-x="573" d="M31 168q0 -84 47 -128t121 -44q43 0 91 17.5t97 47t98.5 68.5t96.5 80q92 82 147 144t80 91q10 16 5 34t-23 18q-35 -47 -104 -119t-148 -141q-43 -37 -87 -70t-87 -58.5t-83 -40t-73 -14.5t-52.5 23.5t-19.5 64.5q0 37 14.5 80t36.5 86q47 12 116 41t131.5 66 t107.5 76.5t45 76.5q0 33 -26.5 47.5t-45 26.5t-38 31.5t-48.5 19.5q-41 0 -107.5 -46t-132 -120.5t-112.5 -169t-47 -188.5zM244 399q27 39 56.5 74t59 60.5t56 41t45.5 15.5q33 0 42 -10.5t9 -24.5q0 -10 -27.5 -32.5t-67.5 -47t-87 -46t-86 -30.5zM293 887 q12 -4 45 -13.5t67.5 -27t66.5 -44t44 -65.5q6 -6 19 -2q6 3 6 15q-10 31 -29.5 59.5t-43.5 55t-49.5 52t-43.5 50.5q-10 10 -19.5 5t-13.5 -7q-8 -2 -17.5 -11.5t-16.5 -21.5t-11 -24.5t-4 -20.5z" />
<glyph unicode="&#xe9;" horiz-adv-x="573" d="M31 168q0 -84 47 -128t121 -44q43 0 91 17.5t97 47t98.5 68.5t96.5 80q92 82 147 144t80 91q10 16 5 34t-23 18q-35 -47 -104 -119t-148 -141q-43 -37 -87 -70t-87 -58.5t-83 -40t-73 -14.5t-52.5 23.5t-19.5 64.5q0 37 14.5 80t36.5 86q47 12 116 41t131.5 66 t107.5 76.5t45 76.5q0 33 -26.5 47.5t-45 26.5t-38 31.5t-48.5 19.5q-41 0 -107.5 -46t-132 -120.5t-112.5 -169t-47 -188.5zM244 399q27 39 56.5 74t59 60.5t56 41t45.5 15.5q33 0 42 -10.5t9 -24.5q0 -10 -27.5 -32.5t-67.5 -47t-87 -46t-86 -30.5zM461 758q-2 -12 8 -15 q4 -2 8 0t8 5q4 14 31 41.5t61.5 54t68.5 44t50 13.5l6 6q-2 14 -20 43t-35 33q-6 2 -15 6t-20 -6q-14 -12 -37.5 -43t-48 -65.5t-43 -67.5t-22.5 -49z" />
<glyph unicode="&#xea;" horiz-adv-x="573" d="M31 168q0 -84 47 -128t121 -44q43 0 91 17.5t97 47t98.5 68.5t96.5 80q92 82 147 144t80 91q10 16 5 34t-23 18q-35 -47 -104 -119t-148 -141q-43 -37 -87 -70t-87 -58.5t-83 -40t-73 -14.5t-52.5 23.5t-19.5 64.5q0 37 14.5 80t36.5 86q47 12 116 41t131.5 66 t107.5 76.5t45 76.5q0 33 -26.5 47.5t-45 26.5t-38 31.5t-48.5 19.5q-41 0 -107.5 -46t-132 -120.5t-112.5 -169t-47 -188.5zM244 399q27 39 56.5 74t59 60.5t56 41t45.5 15.5q33 0 42 -10.5t9 -24.5q0 -10 -27.5 -32.5t-67.5 -47t-87 -46t-86 -30.5zM262 758l14 -6l23 8 q2 14 29.5 36.5t61.5 44t68 40t50 28.5q33 -23 57.5 -50.5t32.5 -61.5q4 -10 3 -19.5t1 -17.5q2 -4 8 -6t11 -2q12 0 14 18.5t2 24.5q0 14 -6 50t-19.5 72.5t-33 65.5t-43.5 29q-35 0 -46.5 -13.5t-27.5 -31.5q-14 -14 -47 -39t-67 -53.5t-59.5 -59.5t-25.5 -57z" />
<glyph unicode="&#xeb;" horiz-adv-x="573" d="M31 168q0 -84 47 -128t121 -44q43 0 91 17.5t97 47t98.5 68.5t96.5 80q92 82 147 144t80 91q10 16 5 34t-23 18q-35 -47 -104 -119t-148 -141q-43 -37 -87 -70t-87 -58.5t-83 -40t-73 -14.5t-52.5 23.5t-19.5 64.5q0 37 14.5 80t36.5 86q47 12 116 41t131.5 66 t107.5 76.5t45 76.5q0 33 -26.5 47.5t-45 26.5t-38 31.5t-48.5 19.5q-41 0 -107.5 -46t-132 -120.5t-112.5 -169t-47 -188.5zM244 399q27 39 56.5 74t59 60.5t56 41t45.5 15.5q33 0 42 -10.5t9 -24.5q0 -10 -27.5 -32.5t-67.5 -47t-87 -46t-86 -30.5zM326 825q-16 -31 6 -46 t57 -15t53.5 13t18.5 48q0 74 -68 74q-35 0 -45 -22.5t-22 -51.5zM553 825q-16 -31 6.5 -46t56.5 -15q35 0 52.5 13t17.5 48q0 74 -68 74q-35 0 -44 -22.5t-21 -51.5z" />
<glyph unicode="&#xec;" d="M25 123q0 -45 23.5 -61.5t51.5 -16.5q47 0 98.5 25.5t84.5 46.5q16 10 40.5 28.5t48 37t43 35t25.5 22.5q2 25 -14 24q-20 -16 -57 -41.5t-80 -52.5q-45 -27 -87 -46.5t-67 -19.5q-14 0 -20 9.5t-6 17.5q0 25 29.5 68t60.5 82q14 18 34.5 39.5t39 41t32.5 36t21 22.5 q10 14 16 47t6 49q0 14 -16.5 27.5t-40.5 13.5q-18 0 -35.5 -10t-32 -25.5t-24 -32t-9.5 -26.5q0 -20 -20 -45q-4 -6 -27.5 -38t-50 -76t-47 -93t-20.5 -88zM168 741q12 -4 45 -13t67.5 -26.5t66.5 -44t44 -65.5q6 -6 19 -2q6 2 6 14q-10 31 -29.5 59.5t-43.5 55t-49.5 52.5 t-43.5 50q-10 10 -19.5 5t-13.5 -7q-8 -2 -17.5 -11t-16.5 -21.5t-11 -24.5t-4 -21z" />
<glyph unicode="&#xed;" d="M25 123q0 -45 23.5 -61.5t51.5 -16.5q47 0 98.5 25.5t84.5 46.5q16 10 40.5 28.5t48 37t43 35t25.5 22.5q2 25 -14 24q-20 -16 -57 -41.5t-80 -52.5q-45 -27 -87 -46.5t-67 -19.5q-14 0 -20 9.5t-6 17.5q0 25 29.5 68t60.5 82q14 18 34.5 39.5t39 41t32.5 36t21 22.5 q10 14 16 47t6 49q0 14 -16.5 27.5t-40.5 13.5q-18 0 -35.5 -10t-32 -25.5t-24 -32t-9.5 -26.5q0 -20 -20 -45q-4 -6 -27.5 -38t-50 -76t-47 -93t-20.5 -88zM330 635q-2 -12 8 -14q4 -2 8 0l8 4q4 14 31 41.5t61.5 54.5t68.5 44t50 13l6 6q-2 14 -20.5 43t-34.5 33 q-6 2 -14 6t-19 -6q-14 -12 -37.5 -43t-48 -65.5t-44 -67.5t-23.5 -49z" />
<glyph unicode="&#xee;" d="M25 123q0 -45 23.5 -61.5t51.5 -16.5q47 0 98.5 25.5t84.5 46.5q16 10 40.5 28.5t48 37t43 35t25.5 22.5q2 25 -14 24q-20 -16 -57 -41.5t-80 -52.5q-45 -27 -87 -46.5t-67 -19.5q-14 0 -20 9.5t-6 17.5q0 25 29.5 68t60.5 82q14 18 34.5 39.5t39 41t32.5 36t21 22.5 q10 14 16 47t6 49q0 14 -16.5 27.5t-40.5 13.5q-18 0 -35.5 -10t-32 -25.5t-24 -32t-9.5 -26.5q0 -20 -20 -45q-4 -6 -27.5 -38t-50 -76t-47 -93t-20.5 -88zM139 588l15 -6l22 8q2 14 29.5 36.5t61.5 44t68 40t50 28.5q33 -23 57.5 -50t32.5 -62q4 -10 3 -19.5t1 -17.5 q2 -4 8.5 -6t10.5 -2q12 0 14 18.5t2 24.5q0 14 -6 50t-19.5 72.5t-33 65.5t-43.5 29q-35 0 -46.5 -13.5t-27.5 -31.5q-14 -14 -47 -39t-67 -53.5t-59.5 -59.5t-25.5 -57z" />
<glyph unicode="&#xef;" d="M25 123q0 -45 22.5 -61.5t52.5 -16.5q47 0 97.5 25.5t85.5 46.5q16 10 40.5 28.5t48 37t43 35t25.5 22.5q2 12 -4 18t-12 6q-18 -16 -56 -41.5t-79 -52.5q-45 -27 -87 -46.5t-69 -19.5q-12 0 -18 9.5t-6 17.5q0 25 29.5 68t60.5 82q14 18 34.5 39.5t39 41t32.5 36 t21 22.5q10 14 16 47t6 49q0 14 -16.5 27.5t-40.5 13.5q-18 0 -35.5 -10t-32 -25.5t-24 -32t-9.5 -26.5q0 -20 -20 -45q-4 -6 -27.5 -38t-50 -76t-47 -93t-20.5 -88zM190 733q-16 -31 6.5 -46t57.5 -15t52.5 13t17.5 48q0 74 -68 74q-35 0 -44 -22.5t-22 -51.5zM416 733 q-14 -31 8 -46t57 -15t52.5 13t17.5 48q0 74 -68 74q-35 0 -44 -22.5t-23 -51.5z" />
<glyph unicode="&#xf0;" horiz-adv-x="618" d="M10 166q0 -68 44 -101.5t110 -33.5q63 0 130.5 37.5t130 93t114 120t82.5 117.5q14 2 26 5.5t19 3.5q25 0 10 18q-4 4 -9 19.5t-12 31.5v12q16 37 23.5 95.5t7.5 124.5q0 106 -17.5 210.5t-56.5 170.5q29 14 54.5 26.5t48.5 22.5q16 8 10 17t-12 23.5t-16.5 30t-20.5 0.5 q-31 -37 -90 -69q-47 80 -112.5 126t-119.5 46q-31 0 -61.5 -9.5t-55 -22.5t-39 -27.5t-14.5 -26.5q0 -14 13.5 -35t35.5 -21q10 0 30 4.5t39.5 12.5t33.5 16t14 19q0 10 1 24.5t16 14.5q14 0 35.5 -13.5t45 -36t46 -50t38.5 -54.5q-37 -18 -69.5 -33.5t-42.5 -19.5 q-20 -10 -19.5 -15.5t5.5 -21.5q6 -16 12 -26.5t20 -0.5q18 14 49 33.5t66 36.5q35 -68 49 -143.5t14 -141.5q0 -53 -5 -97t-11 -73q-18 10 -45 10t-59.5 -8t-46.5 -8q-6 0 -11.5 7t-11.5 16.5t-12 16.5t-17 7q-29 0 -67.5 -24.5t-81.5 -65.5t-85 -92t-77 -104.5 t-55.5 -104.5t-20.5 -90zM104 135q0 33 21.5 78t58.5 92t84 93t97.5 82t101.5 58.5t94 22.5q21 0 21 -8q0 -4 -19.5 -24.5t-19.5 -55.5q0 -27 7 -35t11 -12q0 -16 -21.5 -48t-57.5 -71t-80 -80t-88 -73.5t-84 -54t-68 -21.5q-57 0 -58 57z" />
<glyph unicode="&#xf1;" horiz-adv-x="835" d="M-68 141q0 -8 10.5 -18t24 -19.5t24.5 -15.5t15 -6q2 0 27.5 21.5t68.5 55.5t97.5 78t115.5 89q57 43 117 84t115 72.5t103 51t83 19.5q29 0 29 -29q0 -12 -16.5 -47t-40 -82t-51 -101t-51 -105.5t-40 -95.5t-16.5 -68q0 -33 22.5 -59.5t34.5 -26.5t37 14t50.5 32.5 t44 35t18.5 22.5t-2 13t-11 7q-12 0 -30.5 -11t-28.5 -11t-10 12q0 2 13 30t34.5 71t45 96t45 103t35 93t13.5 68q0 43 -33.5 65.5t-68.5 22.5q-66 0 -147 -35t-164 -86t-159.5 -108.5t-131.5 -102.5q23 33 44 66t38.5 59.5t27.5 43t10 20.5q0 12 -12 27.5t-29 15.5 q-10 0 -35.5 -24.5t-58.5 -62.5t-69.5 -83t-67.5 -85t-50.5 -68.5t-19.5 -37.5zM483 748l17 -31q41 29 61.5 37t44.5 8q16 0 39 -11.5t45.5 -23.5t42 -23.5t29.5 -11.5q8 0 31.5 13.5t52 30t55.5 33t39 22.5q-8 27 -22 34q-29 -8 -55.5 -26.5t-55.5 -18.5q-12 0 -31.5 10.5 t-40 22.5t-39 22.5t-30.5 10.5q-18 0 -44 -11.5t-52.5 -26.5t-50 -31.5t-36.5 -28.5z" />
<glyph unicode="&#xf2;" horiz-adv-x="618" d="M10 166q0 -68 44 -101.5t110 -33.5q63 0 130.5 37.5t130 93t114 120t82.5 117.5q14 2 26 5.5t19 3.5q24 0 10 18q-4 4 -9 19.5t-12 31.5v12q0 68 -30.5 97.5t-69.5 29.5q-27 0 -59.5 -8t-46.5 -8q-6 0 -11.5 7t-11.5 16.5t-12 16.5t-17 7q-29 0 -67.5 -24.5t-81.5 -65.5 t-85 -92t-77 -104.5t-55.5 -104.5t-20.5 -90zM104 135q0 33 21.5 78t58.5 92t84 93t97.5 82t101.5 58.5t94 22.5q21 0 21 -8q0 -4 -19.5 -24.5t-19.5 -55.5q0 -27 7 -35t11 -12q0 -16 -21.5 -48t-57.5 -71t-80 -80t-88 -73.5t-84 -54t-68 -21.5q-57 0 -58 57zM391 836 q12 -4 45 -13.5t68 -27t66.5 -44t43.5 -65.5q6 -6 19 -2q6 2 6 14q-10 31 -29.5 59.5t-43 55.5t-49 52.5t-44.5 49.5q-10 10 -19.5 5t-13.5 -7q-8 -2 -17 -11t-16.5 -21.5t-11.5 -24.5t-4 -20z" />
<glyph unicode="&#xf3;" horiz-adv-x="618" d="M10 166q0 -68 44 -101.5t110 -33.5q63 0 130.5 37.5t130 93t114 120t82.5 117.5q14 2 26 5.5t19 3.5q24 0 10 18q-4 4 -9 19.5t-12 31.5v12q0 68 -30.5 97.5t-69.5 29.5q-27 0 -59.5 -8t-46.5 -8q-6 0 -11.5 7t-11.5 16.5t-12 16.5t-17 7q-29 0 -67.5 -24.5t-81.5 -65.5 t-85 -92t-77 -104.5t-55.5 -104.5t-20.5 -90zM104 135q0 33 21.5 78t58.5 92t84 93t97.5 82t101.5 58.5t94 22.5q21 0 21 -8q0 -4 -19.5 -24.5t-19.5 -55.5q0 -27 7 -35t11 -12q0 -16 -21.5 -48t-57.5 -71t-80 -80t-88 -73.5t-84 -54t-68 -21.5q-57 0 -58 57zM494 686 q-4 -10 8 -14q4 -2 8 0l8 4q4 16 30.5 44t61.5 53.5t69 44t52 13.5l4 5q0 6 -6 18t-14 24.5t-17.5 22.5t-17.5 12q-4 2 -13.5 6.5t-19.5 -6.5q-14 -12 -37.5 -42.5t-48 -66.5t-44 -69t-23.5 -49z" />
<glyph unicode="&#xf4;" horiz-adv-x="618" d="M10 166q0 -68 44 -101.5t110 -33.5q63 0 130.5 37.5t130 93t114 120t82.5 117.5q14 2 26 5.5t19 3.5q24 0 10 18q-4 4 -9 19.5t-12 31.5v12q0 68 -30.5 97.5t-69.5 29.5q-27 0 -59.5 -8t-46.5 -8q-6 0 -11.5 7t-11.5 16.5t-12 16.5t-17 7q-29 0 -67.5 -24.5t-81.5 -65.5 t-85 -92t-77 -104.5t-55.5 -104.5t-20.5 -90zM104 135q0 33 21.5 78t58.5 92t84 93t97.5 82t101.5 58.5t94 22.5q21 0 21 -8q0 -4 -19.5 -24.5t-19.5 -55.5q0 -27 7 -35t11 -12q0 -16 -21.5 -48t-57.5 -71t-80 -80t-88 -73.5t-84 -54t-68 -21.5q-57 0 -58 57zM358 741l15 -6 l22 8q2 14 30 37t61.5 44.5t67.5 40t50 28.5q33 -23 57.5 -50.5t32.5 -62.5q4 -10 3 -19t1 -18q2 -4 8.5 -6t10.5 -2q12 0 14 18.5t2 24.5q0 14 -6 50t-19.5 73t-33 65.5t-43.5 28.5q-35 0 -46.5 -13t-27.5 -32q-14 -14 -47 -38.5t-66.5 -53.5t-59.5 -59.5t-26 -57.5z" />
<glyph unicode="&#xf5;" horiz-adv-x="618" d="M10 166q0 -68 44 -101.5t110 -33.5q63 0 130.5 37.5t130 93t114 120t82.5 117.5q14 2 26 5.5t19 3.5q24 0 10 18q-4 4 -9 19.5t-12 31.5v12q0 68 -30.5 97.5t-69.5 29.5q-27 0 -59.5 -8t-46.5 -8q-6 0 -11.5 7t-11.5 16.5t-12 16.5t-17 7q-29 0 -67.5 -24.5t-81.5 -65.5 t-85 -92t-77 -104.5t-55.5 -104.5t-20.5 -90zM104 135q0 33 21.5 78t58.5 92t84 93t97.5 82t101.5 58.5t94 22.5q21 0 21 -8q0 -4 -19.5 -24.5t-19.5 -55.5q0 -27 7 -35t11 -12q0 -16 -21.5 -48t-57.5 -71t-80 -80t-88 -73.5t-84 -54t-68 -21.5q-57 0 -58 57zM399 797 l17 -29q41 29 61.5 36t44.5 7q16 0 39 -11.5t45.5 -23.5t42 -23.5t29.5 -11.5q8 0 31.5 13.5t52.5 30t55.5 33t38.5 22.5q-8 27 -22 34q-29 -6 -55.5 -25.5t-55.5 -19.5q-12 0 -31.5 10.5t-40 24t-39 23.5t-30.5 10q-18 0 -44 -11.5t-52.5 -26.5t-50 -32.5t-36.5 -29.5z" />
<glyph unicode="&#xf6;" horiz-adv-x="618" d="M10 166q0 -68 44 -101.5t110 -33.5q63 0 130.5 37.5t130 93t114 120t82.5 117.5q14 2 26 5.5t19 3.5q24 0 10 18q-4 4 -9 19.5t-12 31.5v12q0 68 -30.5 97.5t-69.5 29.5q-27 0 -59.5 -8t-46.5 -8q-6 0 -11.5 7t-11.5 16.5t-12 16.5t-17 7q-29 0 -67.5 -24.5t-81.5 -65.5 t-85 -92t-77 -104.5t-55.5 -104.5t-20.5 -90zM104 135q0 33 21.5 78t58.5 92t84 93t97.5 82t101.5 58.5t94 22.5q21 0 21 -8q0 -4 -19.5 -24.5t-19.5 -55.5q0 -27 7 -35t11 -12q0 -16 -21.5 -48t-57.5 -71t-80 -80t-88 -73.5t-84 -54t-68 -21.5q-57 0 -58 57zM401 795 q-16 -31 6.5 -46.5t57.5 -15.5t53.5 13.5t18.5 48.5q0 74 -68 73q-35 0 -45 -22.5t-23 -50.5zM629 795q-16 -31 6 -46.5t57 -15.5t52.5 13.5t17.5 48.5q0 74 -68 73q-35 0 -44 -22.5t-21 -50.5z" />
<glyph unicode="&#xf8;" horiz-adv-x="618" d="M-69.5 -61.5q-2.5 -10.5 4 -15.5t17.5 -3t28 19q10 10 41.5 37.5t72.5 66.5q33 -12 70 -12q63 0 130.5 37.5t130 93t115 120t83.5 117.5q12 2 24 5.5t19 3.5q29 0 10 18q-4 4 -9 19.5t-12 31.5q0 4 1 6t1 6q0 53 -24 89q35 41 60.5 67.5t29.5 30.5q6 4 7 16.5t-2 20.5 t-12 9t-24 -15q-20 -23 -42.5 -47.5t-49.5 -53.5q-16 10 -45 10q-27 0 -59.5 -8t-44.5 -8q-6 0 -12.5 7t-11.5 16.5t-12 16.5t-18 7q-29 0 -67.5 -24.5t-81.5 -65.5t-85 -92t-77 -104.5t-55.5 -104.5t-20.5 -90q0 -68 49 -105q-31 -29 -59.5 -54t-54.5 -48 q-12 -10 -14.5 -20.5zM104 135q0 33 21.5 78t58.5 92t83 93t97.5 82t101.5 58.5t93 22.5q-102 -109 -221 -228.5t-229 -223.5q-4 16 -5 26zM137 80q41 37 84 75t81 71.5t66.5 61t43.5 44.5q20 20 55 59t76 84v-2q0 -27 7 -35t11 -12q0 -16 -21.5 -48t-56 -71t-79 -80 t-88.5 -73.5t-83.5 -54t-68.5 -21.5q-18 0 -27 2z" />
<glyph unicode="&#xf9;" horiz-adv-x="774" d="M43 66q0 -16 10 -32t26.5 -28t36 -20.5t38.5 -8.5q23 0 61.5 23t82.5 57.5t90 76.5t84 78t63.5 61.5t27.5 29.5l6 -4q-8 -14 -21 -51t-13 -96q0 -55 26.5 -97.5t61.5 -42.5q12 0 26.5 12.5t28.5 28t24.5 30.5t14.5 19q4 6 10 10.5t6 8.5t-10 4q-14 0 -40 5t-26 30 q0 49 17.5 90t17.5 90q0 33 -18.5 65.5t-44.5 32.5q-8 0 -33 -24q-29 -31 -73 -83t-97 -104q-70 -66 -133.5 -109.5t-87.5 -43.5q-16 0 -21.5 15t-5.5 30q0 29 20.5 81t47 107t54.5 104.5t44 71.5q4 4 4 11q0 8 -5 19t-13 22.5t-17.5 18.5t-15.5 7q-35 0 -80 -63.5 t-86 -149.5q-37 -78 -62.5 -156.5t-25.5 -125.5zM334 713q12 -4 45 -13.5t68.5 -27t66.5 -44t43 -65.5q8 -6 18 -2q11 2 7 14q-10 31 -30 60t-43.5 55.5t-48 52t-44.5 50.5q-8 10 -18.5 5t-14.5 -7q-8 -2 -17.5 -11.5t-16.5 -22t-11 -24.5t-4 -20z" />
<glyph unicode="&#xfa;" horiz-adv-x="774" d="M43 66q0 -16 10 -32t26.5 -28t36 -20.5t38.5 -8.5q23 0 61.5 23t82.5 57.5t90 76.5t84 78t63.5 61.5t27.5 29.5l6 -4q-8 -14 -21 -51t-13 -96q0 -55 26.5 -97.5t61.5 -42.5q12 0 26.5 12.5t28.5 28t24.5 30.5t14.5 19q4 6 10 10.5t6 8.5t-10 4q-14 0 -40 5t-26 30 q0 49 17.5 90t17.5 90q0 33 -18.5 65.5t-44.5 32.5q-8 0 -33 -24q-29 -31 -73 -83t-97 -104q-70 -66 -133.5 -109.5t-87.5 -43.5q-16 0 -21.5 15t-5.5 30q0 29 20.5 81t47 107t54.5 104.5t44 71.5q4 4 4 11q0 8 -5 19t-13 22.5t-17.5 18.5t-15.5 7q-35 0 -80 -63.5 t-86 -149.5q-37 -78 -62.5 -156.5t-25.5 -125.5zM492 578q-4 -10 10 -15q4 -2 8 0l8 4q4 16 30.5 44t61.5 53.5t69 44t50 14.5l4 4q0 6 -6 18.5t-14 24.5t-17.5 22.5t-15.5 12.5t-15.5 6t-19.5 -6q-14 -12 -37.5 -43t-48 -67t-44 -68.5t-23.5 -48.5z" />
<glyph unicode="&#xfb;" horiz-adv-x="774" d="M43 66q0 -16 10 -32t26.5 -28t36 -20.5t38.5 -8.5q23 0 61.5 23t82.5 57.5t90 76.5t84 78t63.5 61.5t27.5 29.5l6 -4q-8 -14 -21 -51t-13 -96q0 -55 26.5 -97.5t61.5 -42.5q12 0 26.5 12.5t28.5 28t24.5 30.5t14.5 19q4 6 10 10.5t6 8.5t-10 4q-14 0 -40 5t-26 30 q0 49 17.5 90t17.5 90q0 33 -18.5 65.5t-44.5 32.5q-8 0 -33 -24q-29 -31 -73 -83t-97 -104q-70 -66 -133.5 -109.5t-87.5 -43.5q-16 0 -21.5 15t-5.5 30q0 29 20.5 81t47 107t54.5 104.5t44 71.5q4 4 4 11q0 8 -5 19t-13 22.5t-17.5 18.5t-15.5 7q-35 0 -80 -63.5 t-86 -149.5q-37 -78 -62.5 -156.5t-25.5 -125.5zM365 678l12 -6l22 8q2 14 30 36.5t61.5 44t67.5 40t50 28.5q35 -23 58.5 -50t33.5 -62q2 -10 1 -19.5t4 -17.5q2 -8 16 -8t16 18.5t2 24.5q0 14 -7 50t-19.5 72.5t-31.5 65.5t-44 29q-35 0 -46 -13.5t-30 -31.5 q-14 -14 -46 -39t-65.5 -53.5t-59 -59t-25.5 -57.5z" />
<glyph unicode="&#xfc;" horiz-adv-x="774" d="M43 66q0 -16 10 -32t26.5 -28t36 -20.5t36.5 -8.5q23 0 61.5 23t82.5 57.5t90 76.5t84 78t63.5 61.5l29.5 29.5l4 -4q-8 -14 -21.5 -51t-13.5 -96q0 -55 27 -97.5t62 -42.5q12 0 26.5 12.5t28.5 28t24.5 30.5t14.5 19q16 17 16 19q0 4 -8 4q-14 0 -41 5t-27 30 q0 49 18.5 90t18.5 90q0 33 -18.5 65.5t-44.5 32.5q-6 0 -14.5 -7t-20.5 -17q-29 -31 -73 -83t-97 -104q-35 -33 -68.5 -60.5t-63.5 -48t-53.5 -32.5t-35.5 -12q-16 0 -21.5 15t-5.5 30q0 29 20.5 81t48 107t55.5 104.5t44 71.5q2 2 2 11q0 16 -18.5 41.5t-32.5 25.5 q-16 0 -36.5 -17.5t-42 -46t-44 -67.5t-43.5 -82q-35 -78 -60.5 -156.5t-25.5 -125.5zM389 692q-16 -31 6.5 -46t57.5 -15t53 13t18 48q0 74 -67 74q-35 0 -45.5 -22.5t-22.5 -51.5zM616 692q-16 -31 6.5 -46t57.5 -15t52.5 13t17.5 48q0 74 -68 74q-35 0 -44 -22.5 t-22 -51.5z" />
<glyph unicode="&#xfd;" horiz-adv-x="684" d="M-1151 -1049q0 -57 39 -87.5t86 -30.5q106 0 240.5 55t280 150.5t295 221.5t286.5 268t256 292.5t200 292.5q35 -2 53.5 -9.5t28 -16.5t14.5 -16.5t11 -7.5q27 0 27 33q0 31 -31 46.5t-76 19.5q57 106 89 202.5t32 176.5q0 49 -27 49q-10 0 -67.5 -61.5t-175.5 -153.5 q-31 -23 -70 -53.5t-78 -59.5t-70.5 -49t-48.5 -20q-14 0 -16 7t-2 15q0 4 23.5 41t51 81t51 82t23.5 44q0 10 -16 27.5t-31 17.5q-10 0 -43.5 -39t-70.5 -90t-66 -101.5t-29 -72.5q0 -45 27 -70.5t55 -25.5q18 0 54 19t80.5 48t89.5 62.5t83.5 64.5t64.5 52.5t30 25.5 q10 8 14 -6q-20 -53 -46 -107.5t-54 -109.5q-164 -49 -344.5 -131t-354.5 -185.5t-330.5 -219.5t-276.5 -233.5t-190.5 -230t-70.5 -207.5zM-1090 -1040q0 82 67 186t178.5 215t260 223.5t313.5 212t333.5 180t324.5 129.5q-88 -152 -197.5 -296t-224.5 -263 q-55 -57 -133 -127.5t-166 -145.5t-183 -145.5t-186.5 -126t-172 -89t-140.5 -33.5q-35 0 -54.5 23.5t-19.5 56.5zM422 641q-2 -10 10 -14q4 -2 14 4q4 14 32 41.5t61.5 54.5t67.5 44t52 13l5 7q0 6 -6.5 18t-14.5 24.5t-17.5 21.5t-15.5 11t-15 6.5t-20 -6.5 q-14 -12 -37.5 -42.5t-48 -65.5t-44 -68t-23.5 -49z" />
<glyph unicode="&#xfe;" horiz-adv-x="743" d="M-496 -739q0 -45 18.5 -78t39.5 -33q10 0 41.5 36t78 97.5t101.5 141t115.5 169t121 180.5t113.5 175q29 -4 60 -4h57q61 0 134 25.5t137.5 57t109.5 61.5t55 38q14 14 14 25q0 12 -10 12q-6 0 -14 -6q-10 -6 -28.5 -13.5t-39 -15.5t-39 -16.5t-26.5 -12.5l-4 13 q10 6 38.5 39.5t58.5 81t52.5 98.5t22.5 92q0 162 -170 162q-4 0 -6.5 -1t-6.5 -1q16 29 53 93t82.5 143t93.5 163t87 154.5t64.5 117t25.5 50.5q0 14 -12 14q-23 0 -40.5 -18.5t-33.5 -36.5q-4 -4 -33 -51.5t-71 -117t-93 -152.5t-98 -159.5t-85 -139t-56 -89.5 q-98 -41 -204 -131t-206 -208t-190.5 -253t-159 -265t-108.5 -245t-40 -192zM-444 -705q0 53 34.5 147.5t96 210.5t141.5 241.5t170 240.5t185.5 209t183.5 145q-70 -104 -150 -226t-156 -243q-51 -82 -107 -171t-109.5 -175t-101.5 -162.5t-86 -135t-61.5 -93.5t-27.5 -35 q-10 0 -11 14.5t-1 32.5zM174 12q6 10 12.5 17.5t10.5 17.5q82 127 161.5 256t145.5 238q8 2 26 2q45 0 74 -26t29 -79q0 -68 -29 -129t-66.5 -110t-75.5 -82t-59 -45q-14 -8 -42.5 -17.5t-61.5 -17.5t-66.5 -14.5t-58.5 -10.5z" />
<glyph unicode="&#xff;" horiz-adv-x="684" d="M-1151 -1049q0 -57 39 -87.5t86 -30.5q106 0 240.5 55t280 150.5t295 221.5t286.5 268t256 292.5t200 292.5q35 -2 53.5 -9.5t28 -16.5t14.5 -16.5t11 -7.5q27 0 27 33q0 31 -31 46.5t-76 19.5q57 106 89 202.5t32 176.5q0 49 -27 49q-10 0 -67.5 -61.5t-175.5 -153.5 q-31 -23 -70 -53.5t-78 -59.5t-70.5 -49t-48.5 -20q-14 0 -16 7t-2 15q0 4 23.5 41t51 81t51 82t23.5 44q0 10 -16 27.5t-31 17.5q-10 0 -43.5 -39t-70.5 -90t-66 -101.5t-29 -72.5q0 -45 27 -70.5t55 -25.5q18 0 54 19t80.5 48t89.5 62.5t83.5 64.5t64.5 52.5t30 25.5 q10 8 14 -6q-20 -53 -46 -107.5t-54 -109.5q-164 -49 -344.5 -131t-354.5 -185.5t-330.5 -219.5t-276.5 -233.5t-190.5 -230t-70.5 -207.5zM-1090 -1040q0 82 67 186t178.5 215t260 223.5t313.5 212t333.5 180t324.5 129.5q-88 -152 -197.5 -296t-224.5 -263 q-55 -57 -133 -127.5t-166 -145.5t-183 -145.5t-186.5 -126t-172 -89t-140.5 -33.5q-35 0 -54.5 23.5t-19.5 56.5zM287 737q-16 -31 6 -46t57 -15t52.5 13t17.5 48q0 74 -68 74q-35 0 -44 -22.5t-21 -51.5zM512 737q-14 -31 8.5 -46t57.5 -15t52 13t17 48q0 74 -67 74 q-35 0 -45.5 -22.5t-22.5 -51.5z" />
<glyph unicode="&#x152;" horiz-adv-x="1947" d="M23 219q0 -123 58 -197.5t187 -74.5q137 0 278.5 63.5t276.5 171.5q-16 -33 -16 -41q0 -16 10 -48t27.5 -62.5t38 -53t39.5 -22.5q76 0 185.5 14.5t231 37t245.5 53t233 61.5q6 8 6 20q0 35 -29 47q-45 -12 -115.5 -26.5t-154.5 -28.5t-173 -28.5t-169 -25.5 t-145.5 -18.5t-100.5 -7.5q-27 0 -27 25q0 12 20.5 53t52.5 95.5t71 117t73.5 117.5t61 97t37.5 58q176 18 355 39t357 21h23q16 0 16 4q0 20 -22.5 31.5t-52 16.5t-58.5 5h-41q-133 0 -264 -11t-264 -28q72 115 145.5 227.5t145.5 227.5q37 59 80 124.5t67 131.5 q199 20 414 42.5t411 22.5h27q23 1 23 9q0 27 -29 40t-65.5 18t-73.5 5h-52q-170 0 -336.5 -15.5t-334.5 -39.5l-47 8l-25 -18q-59 -10 -105 -20.5t-73 -16.5q-29 86 -102.5 130t-184.5 44q-109 0 -216 -33t-208.5 -87t-191.5 -124t-164 -145q-4 -4 -16.5 -17.5t-25.5 -29 t-23.5 -30.5t-10.5 -22q0 -27 16.5 -44t45.5 -17q6 0 31.5 16.5t59 41t70.5 54t69 55t52.5 45t20.5 26.5q0 25 -10.5 28.5t-10.5 20.5q0 33 56.5 72.5t138.5 72.5t170 55.5t153 22.5q213 0 213 -211q0 -66 -22.5 -148.5t-63.5 -175t-97 -190.5t-124 -195q-14 -2 -32.5 -5 t-35 -8t-27.5 -11t-11 -17q0 -18 8 -24t26 -6q4 0 10.5 1t10.5 1q-86 -113 -181.5 -214.5t-191.5 -177t-191.5 -119.5t-179.5 -44q-102 0 -143 61.5t-41 155.5q0 143 57.5 289.5t150.5 275.5t211 230.5t241 152.5q0 10 -6.5 26.5t-16.5 16.5q-2 0 -10 -4 q-139 -57 -266 -165.5t-222.5 -247t-151.5 -295t-56 -308.5zM1460 1247q2 18 3 35.5t1 36.5q0 14 -1 26.5t-3 24.5q16 2 40.5 5t47.5 7q-14 -23 -36.5 -56.5t-51.5 -78.5z" />
<glyph unicode="&#x153;" horiz-adv-x="1021" d="M10 166q0 -68 44 -101.5t110 -33.5q78 0 163 56t156 132q-2 -14 -3 -26.5t-1 -24.5q0 -84 47 -128t121 -44q43 0 91 17.5t97.5 47t98.5 68.5t96 80q92 82 147 144t80 91q10 16 5 34t-23 18q-35 -47 -103.5 -119t-148.5 -141q-43 -37 -87 -70t-87 -58.5t-83 -40t-73 -14.5 t-52 23.5t-19 64.5q0 37 14 80t37 86q47 12 115.5 41t131 66t107.5 76.5t45 76.5q0 33 -26.5 47.5t-45 26.5t-38 31.5t-47.5 19.5q-37 0 -100.5 -42t-127.5 -113q-10 43 -37.5 61t-58.5 18q-27 0 -59.5 -8t-46.5 -8q-6 0 -11.5 7t-11.5 16.5t-12 16.5t-17 7 q-29 0 -67.5 -24.5t-81.5 -65.5t-85 -92t-77 -104.5t-55.5 -104.5t-20.5 -90zM104 135q0 33 21.5 78t58.5 92t84 93t97.5 82t101.5 58.5t94 22.5q21 0 21 -8q0 -4 -19.5 -24.5t-19.5 -55.5q0 -27 7 -35t11 -12q0 -20 -22.5 -54t-57.5 -73t-80 -78t-89 -70.5t-84 -52 t-66 -20.5q-57 0 -58 57zM692 399q27 39 57.5 74t59.5 60.5t55.5 41t44.5 15.5q33 0 42.5 -10.5t9.5 -24.5q0 -10 -28 -32.5t-68 -47t-87 -46t-86 -30.5z" />
<glyph unicode="&#x178;" horiz-adv-x="1622" d="M66 -623q0 -43 15 -72.5t38.5 -49t51.5 -27.5t54 -8q72 0 159 34.5t181 96t193.5 144.5t197 179.5t189.5 201t172 206.5q49 63 99 136t102 151q25 -10 39 -28.5t26 -35.5q10 -4 21.5 3t9.5 18q-10 20 -26.5 42.5t-45.5 39.5q76 121 146.5 245.5t127 236t95.5 201 t51 142.5q55 33 63 33q4 10 -2 19t-18 13q-27 0 -82 -30.5t-129 -80.5t-163 -116.5t-181 -139.5t-184 -146.5t-172 -137.5q-119 -94 -256.5 -199.5t-262 -194.5t-222 -147.5t-136.5 -58.5q-12 0 -16 5t-4 9q0 33 39.5 93.5t104.5 142.5t147.5 178t168.5 198.5t169 205 t147.5 196.5t104.5 174t40 137q0 41 -6 78t-21.5 66t-44 45t-71.5 16q-68 0 -155 -36.5t-168 -86t-145.5 -97.5t-88.5 -68q-12 -10 -25.5 0t-27.5 10q-4 0 -26 -22.5t-51.5 -57.5t-62 -76t-60.5 -77t-46.5 -62.5t-18.5 -30.5q0 -16 20.5 -31.5t31.5 -15.5q6 0 47 44 t98 103.5t121.5 123t118.5 102.5q51 39 114.5 79t128 72.5t124 52t106.5 19.5q20 0 36.5 -9t16.5 -30q0 -72 -69.5 -179.5t-174 -234.5t-225.5 -265t-225.5 -269t-174 -246t-69.5 -194q0 -55 30.5 -87t69.5 -32t100.5 29.5t137.5 78.5t161 112.5t172 132.5t170 137.5 t152 127.5q63 53 145.5 118t170.5 131.5t176 131t166 117.5q-25 -66 -66 -152t-89 -178t-102.5 -183t-105.5 -171q-143 -10 -297.5 -64.5t-304 -140.5t-285 -192.5t-238 -219t-162.5 -224t-60 -204.5zM100 -639q0 80 56.5 182.5t151.5 210t222 213t269.5 191.5t293 144.5 t289.5 72.5q-18 -29 -37.5 -58.5t-39.5 -60.5q-82 -123 -180.5 -244t-203 -231.5t-209 -205.5t-198.5 -166t-173 -110.5t-132 -39.5q-70 0 -89.5 32.5t-19.5 69.5zM1389 1516q-16 -31 6 -46.5t57 -15.5t52.5 13.5t17.5 48.5q0 74 -66 73q-35 0 -45 -22.5t-22 -50.5z M1614 1516q-14 -31 8.5 -46.5t56.5 -15.5q35 0 52.5 13.5t17.5 48.5q0 74 -68 73q-35 0 -44 -22.5t-23 -50.5z" />
<glyph unicode="&#x2c6;" horiz-adv-x="448" d="M23 1317l12 -6l22 8q2 14 30 35.5t61.5 43t67.5 41t50 29.5q35 -23 58.5 -51t33.5 -63q2 -8 1 -17.5t3 -17.5q2 -8 17 -8q14 0 16 17.5t2 25.5q0 14 -7 50t-19.5 72.5t-32 65.5t-43.5 29q-35 0 -47 -14.5t-29 -30.5q-14 -16 -47 -40t-65.5 -52.5t-58 -59.5t-25.5 -57z " />
<glyph unicode="&#x2dc;" horiz-adv-x="579" d="M76 1475l16 -31q41 29 60.5 37t46.5 8q16 0 38.5 -11.5t45 -24.5t42 -24.5t29.5 -11.5q27 0 52.5 13.5t49 30t44 33t32.5 22.5q-8 27 -24 34q-29 -6 -54.5 -24.5t-54.5 -18.5q-14 0 -33.5 10.5t-39 22.5t-38 22.5t-30.5 10.5q-18 0 -44 -11.5t-52.5 -26.5t-50 -31.5 t-35.5 -28.5z" />
<glyph unicode="&#x2000;" horiz-adv-x="1004" />
<glyph unicode="&#x2001;" horiz-adv-x="2009" />
<glyph unicode="&#x2002;" horiz-adv-x="1004" />
<glyph unicode="&#x2003;" horiz-adv-x="2009" />
<glyph unicode="&#x2004;" horiz-adv-x="669" />
<glyph unicode="&#x2005;" horiz-adv-x="502" />
<glyph unicode="&#x2006;" horiz-adv-x="334" />
<glyph unicode="&#x2007;" horiz-adv-x="334" />
<glyph unicode="&#x2008;" horiz-adv-x="251" />
<glyph unicode="&#x2009;" horiz-adv-x="401" />
<glyph unicode="&#x200a;" horiz-adv-x="111" />
<glyph unicode="&#x2010;" horiz-adv-x="780" d="M184 444q0 -27 27 -26q12 14 47 21t76 10.5t79 4.5t56 1q61 0 123.5 -5.5t126.5 -5.5q16 0 22 9l2 16q0 10 -1 21.5t-9 17.5q-6 4 -35.5 9t-70.5 10t-89.5 9.5t-91.5 6.5t-75.5 4t-44.5 2q-35 0 -60.5 -1t-44 -10.5t-28 -31t-9.5 -62.5z" />
<glyph unicode="&#x2011;" horiz-adv-x="780" d="M184 444q0 -27 27 -26q12 14 47 21t76 10.5t79 4.5t56 1q61 0 123.5 -5.5t126.5 -5.5q16 0 22 9l2 16q0 10 -1 21.5t-9 17.5q-6 4 -35.5 9t-70.5 10t-89.5 9.5t-91.5 6.5t-75.5 4t-44.5 2q-35 0 -60.5 -1t-44 -10.5t-28 -31t-9.5 -62.5z" />
<glyph unicode="&#x2012;" horiz-adv-x="780" d="M184 444q0 -27 27 -26q12 14 47 21t76 10.5t79 4.5t56 1q61 0 123.5 -5.5t126.5 -5.5q16 0 22 9l2 16q0 10 -1 21.5t-9 17.5q-6 4 -35.5 9t-70.5 10t-89.5 9.5t-91.5 6.5t-75.5 4t-44.5 2q-35 0 -60.5 -1t-44 -10.5t-28 -31t-9.5 -62.5z" />
<glyph unicode="&#x2013;" horiz-adv-x="1134" d="M184 444q0 -27 25 -26q8 8 41 15t78 11.5t97 6.5t99 3t84 1h51q102 0 203 -5.5t203 -5.5q16 0 25 9v16q4 25 -11 39q-4 4 -53 9t-119.5 10t-155.5 9.5t-160 6.5t-132.5 4t-73.5 2h-35t-53.5 -2t-53 -4t-32.5 -8q-12 -10 -19.5 -42t-7.5 -49z" />
<glyph unicode="&#x2014;" horiz-adv-x="1671" d="M184 444q0 -27 25 -26q8 10 61.5 16t129 10.5t164.5 6.5t168 3t138 1h80q162 0 322 -5.5t319 -5.5q16 0 25 9v16q2 10 0 20.5t-10 18.5q-6 4 -84 9t-195 10t-255 9.5t-262 6.5t-215 4t-118 2h-51q-39 0 -85 -2t-85 -4t-45 -8q-14 -12 -20.5 -43t-6.5 -48z" />
<glyph unicode="&#x2018;" horiz-adv-x="645" d="M449 1323q0 -10 9 -24.5t22.5 -29t27.5 -23.5t24 -9q6 0 17.5 8t22 20.5t17.5 25t7 18.5q0 10 -7 42.5t-11 43.5q14 35 28.5 72.5t36.5 68.5q10 14 29.5 29.5t38 28t33 23.5t18.5 17q0 8 -7 10.5t-12 2.5q-43 0 -91 -39t-89 -89.5t-70.5 -97.5t-35.5 -63q-2 -10 -5 -17.5 t-3 -17.5z" />
<glyph unicode="&#x2019;" horiz-adv-x="694" d="M481 1249q0 -8 7.5 -10t11.5 -2q43 0 91 39t89 89t70.5 97t35.5 64q2 10 5.5 17.5t3.5 17.5t-9.5 24t-22.5 28.5t-27.5 24t-24.5 9.5q-6 0 -17.5 -8.5t-21.5 -20.5t-17.5 -24.5t-7.5 -18.5q0 -10 7.5 -43t11.5 -43q-14 -35 -28.5 -73t-37.5 -68q-10 -16 -29.5 -30.5 t-38 -27t-34 -24t-17.5 -17.5z" />
<glyph unicode="&#x201a;" d="M-68 -252q0 -8 7.5 -10t11.5 -2q43 0 90 39t89 89t70.5 97t35.5 64q4 10 7 17t3 17t-9.5 24.5t-23.5 29t-28.5 23.5t-24.5 9q-6 0 -17.5 -8t-20.5 -20.5t-16.5 -24.5t-7.5 -18q0 -10 6.5 -43t10.5 -43q-12 -35 -26.5 -73t-37.5 -69q-10 -16 -29.5 -30.5t-38 -26.5 t-34 -23.5t-17.5 -17.5z" />
<glyph unicode="&#x201c;" horiz-adv-x="763" d="M373 1323q0 -10 9 -24.5t22.5 -29t27.5 -23.5t25 -9q6 0 17 8t21.5 20.5t17.5 25t7 18.5q0 10 -7 42.5t-11 43.5q14 35 28.5 72.5t36.5 68.5q10 14 29.5 29.5t38 28t33 23.5t18.5 17q0 8 -7 10.5t-11 2.5q-43 0 -91.5 -39t-89.5 -89.5t-70.5 -97.5t-35.5 -63 q-2 -10 -5 -17.5t-3 -17.5zM592 1323q0 -10 9 -24.5t22.5 -29t28 -23.5t24.5 -9q6 0 17.5 8t20.5 20.5t16 25t7 18.5q0 10 -6 42.5t-10 43.5q12 35 26.5 72.5t36.5 68.5q10 14 30 29.5t39 28t33.5 23.5t18.5 17q0 8 -8 10.5t-12 2.5q-43 0 -90 -39t-89 -89.5t-71 -97.5 t-35 -63q-4 -10 -6 -17.5t-2 -17.5z" />
<glyph unicode="&#x201d;" horiz-adv-x="903" d="M428 1249q0 -8 7 -10t11 -2q43 0 91.5 39t89.5 89t70.5 97t35.5 64q2 10 5 17.5t3 17.5t-9 24t-22.5 28.5t-27.5 24t-25 9.5q-6 0 -17 -8.5t-21.5 -20.5t-17.5 -24.5t-7 -18.5q0 -10 7 -43t11 -43q-14 -35 -28.5 -73t-36.5 -68q-10 -16 -29.5 -30.5t-38 -27t-34 -24 t-17.5 -17.5zM647 1249q0 -8 7.5 -10t11.5 -2q43 0 90 39t89 89t70.5 97t34.5 64q4 10 7.5 17.5t3.5 17.5t-9.5 24t-24 28.5t-28.5 24t-25 9.5q-6 0 -17 -8.5t-20.5 -20.5t-16.5 -24.5t-7 -18.5q0 -10 6 -43t10 -43q-12 -35 -26.5 -73t-36.5 -68q-10 -16 -29.5 -30.5 t-38 -27t-34 -24t-17.5 -17.5z" />
<glyph unicode="&#x201e;" horiz-adv-x="534" d="M-68 -252q0 -8 7.5 -10t11.5 -2q43 0 90 39t89 89t70.5 97t35.5 64q4 10 7 17t3 17t-9.5 24.5t-23.5 29t-28.5 23.5t-24.5 9q-6 0 -17.5 -8t-20.5 -20.5t-16.5 -24.5t-7.5 -18q0 -10 6.5 -43t10.5 -43q-12 -35 -26.5 -73t-37.5 -69q-10 -16 -29.5 -30.5t-38 -26.5 t-34 -23.5t-17.5 -17.5zM150 -252q0 -8 7 -10t13 -2q43 0 90 39t89 89t71 97t35 64q4 10 6 17t2 17t-9.5 24.5t-22.5 29t-27.5 23.5t-24.5 9q-6 0 -17.5 -8t-20.5 -20.5t-16.5 -24.5t-7.5 -18q0 -10 6.5 -43t10.5 -43q-12 -35 -26.5 -73t-37.5 -69q-10 -16 -29.5 -30.5 t-39 -26.5t-34.5 -23.5t-17 -17.5z" />
<glyph unicode="&#x2022;" horiz-adv-x="1060" d="M225 788q0 -66 24.5 -123t67.5 -100t101.5 -67.5t124.5 -24.5t123 24.5t100 67.5t67.5 100t24.5 123t-24.5 124.5t-67.5 101.5t-101.5 67.5t-123.5 24.5q-66 0 -123.5 -24.5t-100.5 -67.5t-67.5 -101.5t-24.5 -124.5z" />
<glyph unicode="&#x2026;" horiz-adv-x="909" d="M98 74q0 -10 5.5 -39t9.5 -41q2 -10 17 -18.5t38 -8.5q14 0 28.5 10.5t24.5 23.5t17.5 29.5t7.5 28.5t-10.5 27.5t-24.5 28t-28.5 21.5t-22.5 9t-18.5 -9t-19.5 -20.5t-16.5 -23.5t-7.5 -18zM391 74q0 -10 5 -39t10 -41q2 -10 17 -18.5t38 -8.5q14 0 28.5 10.5t24.5 23.5 t17.5 29.5t7.5 28.5t-10.5 27.5t-25 28t-28.5 21.5t-22 9t-18.5 -9t-19.5 -20.5t-16.5 -23.5t-7.5 -18zM684 74q0 -10 5 -39t9 -41q8 -27 56 -27q14 0 28.5 10.5t24.5 23.5t17 29.5t7 28.5t-10 27.5t-24.5 28t-27.5 21.5t-21 9t-19.5 -9t-21 -20.5t-16.5 -23.5t-7 -18z" />
<glyph unicode="&#x202f;" horiz-adv-x="401" />
<glyph unicode="&#x2039;" horiz-adv-x="671" d="M305 543q0 -29 25.5 -60.5t58.5 -59.5t63.5 -49.5t43.5 -29.5q16 4 16 23q0 6 -4 14q-29 37 -54.5 70.5t-41.5 76.5q47 39 104 76t113 64q12 6 12 16q0 16 -14 21q-66 -18 -126.5 -51t-125.5 -60q-27 -10 -48.5 -21.5t-21.5 -29.5z" />
<glyph unicode="&#x203a;" horiz-adv-x="655" d="M252 362q0 -16 14 -18q66 16 126.5 50t123.5 59q29 10 50.5 21.5t21.5 31.5q0 27 -25.5 58.5t-58.5 59t-63.5 49t-43.5 32.5q-16 -6 -16 -25q0 -8 4 -12q29 -37 54.5 -71t41.5 -79q-47 -39 -104.5 -75.5t-112.5 -63.5q-6 -4 -9 -5t-3 -12z" />
<glyph unicode="&#x205f;" horiz-adv-x="502" />
<glyph unicode="&#x2122;" horiz-adv-x="1255" d="M41 1325h45q6 27 12 43t13 27q10 16 22 20t35 4h68v-354q0 -25 -7.5 -31t-23.5 -6h-49v-49h256v49h-45q-20 0 -26.5 7t-6.5 30v354h63q23 0 34 -3t22 -15q12 -23 26 -76h45l-4 143h-475zM565 979h197v49q-41 0 -58.5 16.5t-17.5 57.5v225l156 -348h37l151 348v-262 q0 -25 -6 -31t-25 -6h-41v-49h246v49h-43q-20 0 -26.5 7t-6.5 30v317q0 25 6.5 31t24.5 6h45v49h-166l-153 -354l-158 354h-158v-49h35q23 0 28 -6t5 -31v-280q0 -43 -17.5 -58.5t-54.5 -15.5v-49z" />
<glyph unicode="&#x25fc;" horiz-adv-x="727" d="M0 0v727h727v-727h-727z" />
<glyph unicode="&#xfb01;" horiz-adv-x="843" d="M-465 -379v-24q0 -27 5 -55.5t19.5 -51t36 -38t54.5 -15.5q53 0 110.5 44t110.5 105.5t97 126t69 105.5q104 176 203.5 361.5t195.5 367.5l269 -33q-27 -31 -27 -51t-21 -45q-4 -6 -27.5 -38t-50 -76t-47 -93t-20.5 -88q0 -45 22.5 -61.5t53.5 -16.5q47 0 97 25.5 t85 46.5q16 10 41 28.5t48.5 37t43 34.5t25.5 23q2 25 -15 24q-20 -16 -57 -41.5t-80 -52.5q-45 -27 -87 -46.5t-66 -19.5q-14 0 -20.5 9.5t-6.5 17.5q0 25 29.5 68t60.5 82q14 18 34.5 39.5t39 41t33 36t20.5 22.5q10 14 16.5 47t6.5 49q0 14 -17.5 34.5t-44.5 20.5 q-78 0 -155.5 10.5t-157.5 10.5q66 123 123 238.5t121 238.5q12 25 44.5 82t72.5 114.5t82 101.5t73 44q23 0 29 -14.5t6 -32.5q0 -20 -8.5 -44t-19.5 -45.5t-19.5 -37.5t-8.5 -23q0 -10 18.5 -33.5t29.5 -23.5q6 0 16 21.5t12 25.5q18 16 47 39t54 25q6 27 -23 35 q-16 -6 -29.5 -13.5t-27.5 -15.5q2 20 0 51t-11.5 59.5t-27 49t-45.5 20.5q-47 0 -95.5 -30.5t-97.5 -83t-96 -121t-92 -142.5q-43 -72 -81 -142.5t-71 -133t-57.5 -114.5t-42.5 -89q-29 -2 -63.5 -6t-68.5 -10.5t-66 -13.5t-56 -13q-10 -2 -19.5 -8t-9.5 -17q0 -10 7.5 -19 t17.5 -7q20 6 50 12t61.5 11t61.5 8.5t54 3.5q-10 -23 -32.5 -69t-52.5 -107.5t-66.5 -135t-77.5 -149.5q-57 -109 -117.5 -215.5t-118 -191.5t-107.5 -138t-83 -53q-20 0 -32.5 12t-19 28.5t-8.5 36t-2 33.5q0 70 27 145t63 132q-4 18 -16 18q-20 0 -41.5 -34.5t-40 -80.5 t-32 -89t-13.5 -60zM872 760q0 -10 8.5 -21.5t19.5 -21.5t22.5 -17.5t17.5 -7.5t14.5 7.5t16.5 16.5t13 18.5t5 13.5q0 10 -4 31.5t-8 31.5q-4 20 -43 20q-23 0 -42.5 -25.5t-19.5 -45.5z" />
<glyph unicode="&#xfb02;" horiz-adv-x="911" d="M-465 -379v-24q0 -27 5 -55.5t19.5 -51t36 -38t54.5 -15.5q53 0 110.5 44t110.5 105.5t97 126t69 105.5q104 176 203.5 361.5t195.5 367.5l226 -23q10 -2 19 7.5t9 19.5q0 8 -10 8q-8 0 -12 2q-12 2 -37 7t-54.5 10.5t-60.5 9.5t-55 4q66 123 123 238.5t121 238.5 q12 25 44.5 82t72.5 114.5t82 101.5t73 44q23 0 29 -14.5t6 -32.5q0 -20 -8.5 -44t-19.5 -45.5t-19.5 -37.5t-8.5 -23q0 -10 18.5 -33.5t29.5 -23.5q6 0 16 21.5t12 25.5q18 16 47 39t54 25q6 27 -23 35q-16 -6 -29.5 -13.5t-27.5 -15.5q2 20 0 51t-11.5 59.5t-27 49 t-45.5 20.5q-47 0 -95.5 -30.5t-97.5 -83t-96 -121t-92 -142.5q-43 -72 -81 -142.5t-71 -133t-57.5 -114.5t-42.5 -89q-29 -2 -63.5 -6t-68.5 -10.5t-66 -13.5t-56 -13q-10 -2 -19.5 -8t-9.5 -17q0 -10 7.5 -19t17.5 -7q20 6 50 12t61.5 11t61.5 8.5t54 3.5 q-10 -23 -32.5 -69t-52.5 -107.5t-66.5 -135t-77.5 -149.5q-57 -109 -117.5 -215.5t-118 -191.5t-107.5 -138t-83 -53q-20 0 -32.5 12t-19 28.5t-8.5 36t-2 33.5q0 70 27 145t63 132q-4 18 -16 18q-20 0 -41.5 -34.5t-40 -80.5t-32 -89t-13.5 -60zM575 113q0 -45 20.5 -83 t82.5 -38q72 0 125 49q4 4 4 12q0 4 -1 8.5t-9 1.5q-33 -29 -84 -28q-39 0 -53.5 21.5t-14.5 49.5q0 31 14.5 79t34 98.5t40 96.5t34.5 75q37 33 102.5 87t145.5 122.5t169 148.5t175 164q76 74 143.5 146.5t118.5 139t81 126t30 104.5q0 33 -20.5 59.5t-59.5 26.5 q-68 0 -144.5 -43t-158.5 -116.5t-165 -173t-161 -210t-148.5 -227.5t-128 -226.5t-99.5 -208t-60 -169.5q-12 -47 -13 -92zM825 571q23 43 62 105.5t89 133.5t108.5 146.5t120 149.5t124 139.5t118.5 114.5t104 77.5t83 28.5q16 0 20.5 -11.5t4.5 -27.5q0 -18 -27.5 -61 t-74 -99.5t-107.5 -123t-129 -129.5q-74 -72 -150.5 -141.5t-144.5 -129t-121 -104.5t-80 -68z" />
</font>
</defs>
</svg>
