<?xml version="1.0" encoding="iso-8859-1"?>
<!-- Generator: Adobe Illustrator 16.0.0, SVG Export Plug-In . SVG Version: 6.00 Build 0)  -->
<!DOCTYPE svg PUBLIC "-//W3C//DTD SVG 1.1//EN" "http://www.w3.org/Graphics/SVG/1.1/DTD/svg11.dtd">
<svg version="1.1" id="Capa_1" xmlns="http://www.w3.org/2000/svg" xmlns:xlink="http://www.w3.org/1999/xlink" x="0px" y="0px"
	 width="44.699px" height="44.7px" viewBox="0 0 44.699 44.7" style="enable-background:new 0 0 44.699 44.7; fill: #fff" xml:space="preserve">
		<path d="M30.688,30.115h-3.793l-0.952,2.793l-7.294,0.024l-1.037-2.817h-3.753v-0.026l-0.722-0.01l0.743-2.088l0.015,0.058H30.66
			l0.016-0.058l0.742,2.088l-0.729,0.01L30.688,30.115L30.688,30.115z M33.769,44.629l-3.909,0.062V44.7h-2.221v-9.984h2.188l0,0
			l3.6,0.031c1.777-0.049,3.146,3.133,0.844,4.848C37.342,40.454,36.242,44.622,33.769,44.629z M29.859,38.686h2.721
			c1.41,0.06,0.975-2.194,0.031-2.188l-2.752-0.058V38.686z M33.05,40.5l-3.19,0.058v2.325l3.159,0.025
			C34.218,42.945,34.295,40.517,33.05,40.5z M21.995,14.097c2.33,1.732,6.236,2.769,4.238,6.846
			c-0.121,0.215-0.013,0.322,0.159,0.291c0.089,0.021,0.224-0.021,0.353-0.128c2.85-3.305,7.487-8.52,3.584-12.778
			c-2.217-2.398-6.766-3.98-7.674-6.257c-0.175-0.441,0.019-1.08,0.261-1.583c0.15-0.36-0.157-0.515-0.354-0.484
			c-0.102-0.015-0.2,0.011-0.237,0.077C20.403,4.066,13.556,7.936,21.995,14.097z M19.062,23.242
			c1.541,0.92,3.533,2.068,3.314,3.754c-0.083,0.215,0.11,0.244,0.258,0.069c2.194-2.514,3.842-6.111,1.155-8.523
			c-1.404-1.361-4.727-2.095-5.085-4.423c0.082-0.318-0.278-0.348-0.326-0.221C17.391,16.583,12.4,19.675,19.062,23.242z
			 M24.281,44.629l-3.911,0.062V44.7h-2.221v-9.984h2.188h0.002l3.597,0.031c1.779-0.049,3.146,3.133,0.845,4.848
			C27.853,40.454,26.754,44.622,24.281,44.629z M20.371,38.686h2.722c1.411,0.06,0.973-2.194,0.03-2.188l-2.752-0.058V38.686z
			 M23.561,40.5l-3.191,0.058v2.325l3.16,0.025C24.729,42.945,24.806,40.517,23.561,40.5z M14.689,44.629l-3.91,0.062V44.7H8.559
			v-9.984h2.188h0.001l3.597,0.031c1.78-0.049,3.146,3.133,0.845,4.848C18.262,40.454,17.163,44.622,14.689,44.629z M10.78,38.686
			H13.5c1.41,0.06,0.973-2.194,0.031-2.188L10.78,36.44V38.686z M13.97,40.5l-3.19,0.058v2.325l3.159,0.025
			C15.138,42.945,15.215,40.517,13.97,40.5z"/>
</svg>
